<svg xmlns="http://www.w3.org/2000/svg" width="33" height="32" fill="none"><path fill="#fff" fill-rule="evenodd" d="M26.75 29.577a1.818 1.818 0 0 1-2.583 0 1.894 1.894 0 0 1 .018-2.624l1.33-1.483 1.206 1.469c.599.725.8 1.866.033 2.638h-.004Zm.745-3.284-1.58-1.923a.503.503 0 0 0-.712-.065c-.018.014-.036.032-.054.05l-1.716 1.92a2.941 2.941 0 0 0 .018 4.02 2.827 2.827 0 0 0 4.008 0c1.05-1.06 1.068-2.743.033-4.002h.003ZM3.851 24.261l1.333-1.49 1.21 1.476c.599.729.803 1.873.033 2.649a1.829 1.829 0 0 1-2.598 0 1.9 1.9 0 0 1 .018-2.635h.004Zm1.282 4.19c.753 0 1.476-.3 2.01-.837 1.053-1.065 1.071-2.754.029-4.017L5.588 21.67a.494.494 0 0 0-.376-.184.524.524 0 0 0-.387.166L3.102 23.58a2.944 2.944 0 0 0 .018 4.031 2.831 2.831 0 0 0 2.01.837l.003.004Zm11.923 1.447a1.818 1.818 0 0 1-2.583 0 1.894 1.894 0 0 1 .018-2.623l1.329-1.484 1.207 1.47c.598.724.8 1.865.032 2.637h-.003Zm.741-3.284-1.576-1.92a.495.495 0 0 0-.376-.184.514.514 0 0 0-.387.17l-1.72 1.92a2.941 2.941 0 0 0 .018 4.02 2.827 2.827 0 0 0 4.01 0c1.053-1.061 1.067-2.743.028-4.002l.003-.004Zm7.448-4.937H12.23c-3.317 0-6.004-2.706-6.004-6.048a6.05 6.05 0 0 1 4.041-5.716c.2-.068.337-.26.337-.476.043-3.313 2.715-5.976 6-5.987a5.946 5.946 0 0 1 4.787 2.396c.165.22.473.267.695.105a3.86 3.86 0 0 1 5.41.916 3.914 3.914 0 0 1 .64 3.057.504.504 0 0 0 .23.534c2.83 1.736 3.73 5.456 2.006 8.31a5.992 5.992 0 0 1-5.13 2.902l.003.007Zm-24.224-9.75c-.008 2.49 1.845 4.586 4.299 4.875a7.13 7.13 0 0 1-.097-1.173c0-2.88 1.737-5.474 4.388-6.55a7.028 7.028 0 0 1 2.064-4.593c.401-.4.849-.755 1.333-1.047a4.851 4.851 0 0 0-6.893-.1 4.919 4.919 0 0 0-1.476 3.47.5.5 0 0 1-.337.473 4.912 4.912 0 0 0-3.278 4.645h-.003Zm28.162-2.14c3.202 2.19 4.037 6.582 1.866 9.808a6.994 6.994 0 0 1-5.8 3.097H12.234c-3.024-.004-5.703-1.96-6.656-4.85-3.246-.181-5.732-2.974-5.553-6.244a5.931 5.931 0 0 1 3.622-5.15C3.869 3.188 6.677.723 9.92.95a5.864 5.864 0 0 1 4.026 2.017 6.995 6.995 0 0 1 7.957 1.906 4.869 4.869 0 0 1 6.674 1.819 4.942 4.942 0 0 1 .606 3.096Z" clip-rule="evenodd"/></svg>