<svg width="20" height="20" viewBox="0 0 20 20" fill="none" xmlns="http://www.w3.org/2000/svg">
<path fill-rule="evenodd" clip-rule="evenodd" d="M19.031 0H19.1107L19.2276 0.0155925L19.3003 0.0350409L19.419 0.0847241L19.504 0.136635L19.5802 0.198307L19.6217 0.239839L19.6834 0.315973L19.7353 0.401005L19.785 0.519732L19.8085 0.613052L19.82 0.70927V0.788998L19.8044 0.905821L19.785 0.978536L13.2527 19.0616C13.0409 19.5237 12.5792 19.82 12.0709 19.82C11.6087 19.82 11.1852 19.5751 10.9611 19.2007L10.9001 19.0845L7.51187 12.3071L0.758423 8.93095C0.338307 8.73843 0.0552424 8.33936 0.00724814 7.88646L0 7.74913C0 7.28701 0.244872 6.86342 0.67996 6.61339L0.816138 6.54372L18.8415 0.0350409L18.9348 0.0114598L19.031 0ZM17.8219 1.99613L1.80487 7.77813L8.40628 11.0783C8.5224 11.1364 8.62094 11.2233 8.69287 11.3301L8.74169 11.4137L12.0389 18.0111L17.8219 1.99613Z" fill="#212121"/>
</svg>
