<svg width="140" height="116" viewBox="0 0 140 116" fill="none" xmlns="http://www.w3.org/2000/svg">
<g clip-path="url(#clip0_46_1105)">
<rect width="139.882" height="115.431" transform="translate(0 0.0947266)" fill="white"/>
<path d="M95.1287 114.269C94.9653 114.269 94.8182 114.236 94.6548 114.187C92.9229 113.485 77.6291 107.379 76.0605 106.399C74.0998 105.191 71.9756 102.089 71.8449 98.9706C71.7469 96.4889 70.4234 94.2848 69.8842 94.1215C69.5084 94.1215 68.9365 94.4807 68.3483 94.8562C67.6293 95.3134 66.8124 95.8195 65.8483 95.9664C65.6032 95.9991 65.3091 96.0154 64.9333 96.0154C62.5151 96.0154 56.927 95.2481 54.9009 94.3501C53.3813 93.6643 49.5905 93.1256 47.4664 93.1256C47.0579 93.1256 46.8455 93.1419 46.7475 93.1582C46.6004 93.1745 46.388 93.648 46.2409 93.9582C45.9305 94.6276 45.4076 95.7379 44.1168 95.7379C42.826 95.7379 38.3816 94.8399 34.2478 90.7092C32.7282 89.1908 31.5027 88.0642 30.5224 87.1499C28.9864 85.7131 27.9571 84.7662 27.3198 83.7376C26.7479 82.8069 26.5682 81.6641 26.4048 80.6518C26.3231 80.1457 26.2087 79.3946 26.078 79.166C25.98 79.1007 25.8819 79.0191 25.7676 78.9375C25.1793 78.4803 23.5944 77.2558 22.8591 77.2558C22.614 77.3537 22.3853 77.4844 22.1402 77.6313C21.552 77.9742 20.8657 78.3497 20.0814 78.3497C19.3461 78.3497 18.6926 78.0231 18.137 77.4027C17.2874 76.4558 17.0913 75.4272 16.9606 74.6761C16.9116 74.3822 16.8462 74.023 16.7645 73.9088C16.3724 73.3536 14.0848 71.8026 12.9411 71.623C12.8267 71.6067 12.7123 71.5903 12.5979 71.5903C11.928 71.5903 11.3235 71.8842 10.8496 72.1291C10.6535 72.2271 10.4901 72.3087 10.3594 72.3577C10.0817 72.472 9.80389 72.521 9.52612 72.521C9.13397 72.521 8.80718 72.423 8.43137 72.2924C8.13726 72.1944 7.74511 72.0801 7.17323 71.9495C5.49026 71.5903 2.25505 70.4475 2.12433 70.3985C1.61781 70.2189 1.29102 69.7454 1.29102 69.2066V8.01328C1.29102 7.31123 1.8629 6.75611 2.5655 6.75611H87.057C88.4622 5.74384 93.6418 2.21723 98.5436 2.21723C102.204 2.21723 104.132 3.18051 105.537 3.88257C106.207 4.20911 106.681 4.45401 107.155 4.503C109.377 4.69892 111.158 6.57651 112.269 8.11125C112.743 8.78065 113.56 9.58067 114.703 9.58067C115.014 9.58067 115.357 9.51536 115.716 9.40107C118.233 8.51942 119.785 7.34388 120.292 5.87446C121.059 3.68665 122.661 3.14786 124.082 2.65805C124.376 2.56009 124.67 2.46213 124.981 2.33151C126.206 1.84171 127.219 1.79273 128.02 1.74374C128.461 1.72742 128.853 1.69476 129.115 1.61313C129.54 1.46619 130.046 1.40088 130.569 1.40088C132.105 1.40088 133.477 1.98865 134.245 2.98459C134.392 3.18051 134.67 3.4744 134.997 3.81726C136.206 5.12342 138.036 7.08265 138.559 9.28678C139.098 11.5889 136.941 15.8829 133.526 21.6299L133.183 22.2177C131.827 24.5035 129.752 32.569 129.638 35.9323C129.507 39.6875 126.027 48.1122 123.674 51.2143C122.644 52.5695 121.827 53.5981 120.667 54.643C119.213 55.9655 117.252 57.2226 113.952 59.0023C113.037 59.4921 112.628 60.2105 112.514 61.484C112.351 63.2963 110.798 65.0269 109.524 66.1698C108.658 66.9372 105.455 71.574 104.573 73.3536C104.066 74.3659 104.213 75.6557 104.361 76.7986C104.426 77.3048 104.475 77.7946 104.475 78.2517C104.475 79.9007 104.295 81.5008 102.089 83.1171C101.468 83.5743 100.978 85.3376 100.57 86.7744C100.129 88.3254 99.6711 89.9255 98.8868 91.0847C96.7953 94.1542 95.5045 96.4236 95.096 97.8277C94.3771 100.277 93.9196 103.673 94.5895 105.387C94.8019 105.926 95.0633 106.53 95.3411 107.15C96.7463 110.399 97.3835 112.016 96.6809 113.061L96.2071 113.763C95.962 114.122 95.5699 114.318 95.1614 114.318" fill="white"/>
<path d="M130.536 2.6254C131.517 2.6254 132.628 2.95194 133.216 3.7193C134.033 4.76423 136.712 7.09898 137.301 9.53169C137.889 11.9807 133.575 18.9523 132.056 21.5157C130.536 24.079 128.445 32.3404 128.33 35.8344C128.216 39.3283 124.834 47.4755 122.612 50.3817C121.631 51.6878 120.863 52.6674 119.768 53.6307C118.429 54.8389 116.615 56.0308 113.298 57.8267C111.778 58.6431 111.321 59.9166 111.207 61.3207C111.092 62.7085 109.687 64.2269 108.641 65.1575C107.596 66.0882 104.328 70.8556 103.396 72.7169C102.465 74.5782 103.168 76.7823 103.168 78.1864C103.168 79.5905 103.053 80.7498 101.305 82.0233C99.5565 83.3131 99.3278 88.0805 97.8082 90.2847C96.2886 92.4888 94.4259 95.4113 93.854 97.3869C93.2658 99.3624 92.4652 103.428 93.3965 105.763C94.3279 108.081 96.0762 111.575 95.6023 112.277L95.1448 112.979C95.1448 112.979 78.2498 106.236 76.7466 105.289C75.227 104.358 73.2499 101.681 73.1355 98.889C73.0212 96.0971 71.4526 92.8317 69.9657 92.8317C68.4788 92.8317 67.2043 94.4644 65.6847 94.6929C65.505 94.7256 65.2599 94.7256 64.9658 94.7256C62.6946 94.7256 57.3026 93.9909 55.4399 93.1745C53.6589 92.3908 49.5903 91.8357 47.4826 91.8357C47.1067 91.8357 46.7963 91.8521 46.5839 91.8847C45.0643 92.1133 45.195 94.448 44.133 94.448C43.0709 94.448 39.0024 93.6317 35.1626 89.7949C31.3228 85.958 29.3294 84.5376 28.398 83.0518C27.483 81.5661 27.8098 78.8558 26.8785 78.1538C26.0615 77.5497 24.1824 75.9496 22.8589 75.9496C22.6629 75.9496 22.4995 75.9823 22.3361 76.0639C21.4701 76.4558 20.7675 77.0599 20.0812 77.0599C19.7381 77.0599 19.4113 76.9129 19.0682 76.5374C18.0225 75.3782 18.3656 73.9741 17.7937 73.1577C17.2055 72.3414 14.6565 70.5944 13.1369 70.3658C12.9572 70.3332 12.7775 70.3168 12.5977 70.3168C11.3396 70.3168 10.3919 70.9699 9.88539 71.1658C9.75467 71.2148 9.6403 71.2475 9.52592 71.2475C9.11743 71.2475 8.70895 70.9699 7.43447 70.7087C5.80052 70.3658 2.54896 69.1903 2.54896 69.1903V8.01329H87.4653C87.4653 8.01329 93.2985 3.4744 98.5271 3.4744C103.756 3.4744 105.047 5.58057 107.024 5.74384C109.001 5.92344 110.635 8.01329 111.223 8.82963C111.697 9.48271 112.841 10.8378 114.687 10.8378C115.128 10.8378 115.602 10.7562 116.108 10.5766C118.788 9.64598 120.765 8.25819 121.468 6.26631C122.17 4.29075 123.69 4.17646 125.438 3.4744C127.187 2.77234 128.461 3.13154 129.507 2.77234C129.801 2.67438 130.16 2.6254 130.553 2.6254M130.536 0.0947266C129.866 0.0947266 129.245 0.192688 128.69 0.372284C128.559 0.404938 128.2 0.437592 127.922 0.437592C127.056 0.486573 125.896 0.551881 124.474 1.107C124.196 1.22128 123.919 1.31925 123.625 1.41721C122.105 1.93967 120.03 2.65805 119.066 5.4173C118.592 6.77244 116.729 7.67042 115.259 8.17656C115.046 8.25819 114.834 8.29084 114.671 8.29084C114.033 8.29084 113.51 7.70307 113.265 7.34388C111.452 4.82954 109.36 3.39277 107.236 3.21317C107.007 3.19684 106.566 2.98459 106.076 2.72336C104.638 2.00498 102.481 0.9274 98.5108 0.9274C93.5926 0.9274 88.4783 4.16013 86.6156 5.46629H2.53262C1.12742 5.46629 0 6.59284 0 7.99696V69.2229C0 70.3005 0.669919 71.2475 1.68297 71.6067C2.0261 71.7373 5.14694 72.8312 6.89526 73.2067C7.41813 73.321 7.74492 73.419 8.02269 73.5169C8.44752 73.6475 8.90502 73.8108 9.50958 73.8108C9.95075 73.8108 10.3756 73.7292 10.8004 73.5659C11.0128 73.4843 11.2089 73.3863 11.3886 73.2883C11.7808 73.0924 12.2056 72.8802 12.5814 72.8802C12.6304 72.8802 12.6794 72.8802 12.7448 72.8802C13.382 72.9781 15.0487 73.9904 15.6532 74.5782C15.6696 74.6761 15.7022 74.8067 15.7186 74.9047C15.8656 75.7047 16.1107 77.0435 17.1891 78.2517C18.2022 79.3783 19.3296 79.6232 20.0812 79.6232C21.2087 79.6232 22.0746 79.1334 22.7772 78.7252C22.8589 78.6762 22.9406 78.6436 23.006 78.5946C23.6106 78.8722 24.6399 79.6559 24.9994 79.9334C25.0484 80.1946 25.1138 80.5702 25.1628 80.8477C25.3262 81.9253 25.5386 83.2641 26.2412 84.407C26.9765 85.5825 28.0386 86.5785 29.6725 88.0805C30.6529 88.9785 31.862 90.1214 33.3652 91.6072C37.7932 96.0318 42.6297 97.0114 44.133 97.0114C46.2244 97.0114 47.0904 95.1828 47.4009 94.497C47.4009 94.4644 47.4335 94.4317 47.4499 94.3991H47.4826C49.427 94.3991 53.0707 94.9215 54.4105 95.5093C56.8451 96.5869 62.711 97.2889 64.9495 97.2889C65.3906 97.2889 65.7501 97.2726 66.0605 97.2236C67.286 97.0277 68.2664 96.4236 69.0507 95.9175C69.2141 95.8195 69.4101 95.6889 69.5899 95.5909C70.0147 96.2767 70.5539 97.6318 70.6029 99.0196C70.75 102.677 73.2009 106.105 75.4067 107.461C76.9917 108.44 90.194 113.73 94.1972 115.347C94.5076 115.461 94.818 115.526 95.1448 115.526C95.9781 115.526 96.7625 115.118 97.2526 114.4L97.7101 113.697C98.8376 112.016 97.9389 109.975 96.4683 106.579C96.1906 105.959 95.9455 105.371 95.7331 104.848C95.1939 103.509 95.6187 100.375 96.2723 98.1216C96.5337 97.24 97.367 95.4113 99.8996 91.7378C100.815 90.4153 101.288 88.701 101.746 87.0519C102.024 86.0723 102.481 84.456 102.841 84.0478C105.471 82.1049 105.7 80.015 105.7 78.2028C105.7 77.664 105.635 77.1252 105.569 76.6027C105.455 75.5904 105.324 74.5455 105.667 73.8761C106.533 72.1455 109.589 67.7535 110.324 67.0678C112.432 65.2065 113.576 63.3452 113.723 61.5656C113.805 60.5207 114.099 60.2921 114.491 60.0799C117.889 58.2512 119.915 56.9288 121.468 55.541C122.71 54.4144 123.559 53.3368 124.621 51.9327C127.105 48.6673 130.716 39.9977 130.847 35.9323C130.945 32.7812 132.971 24.928 134.229 22.8218L134.572 22.234C138.346 15.8992 140.405 11.6868 139.752 8.96025C139.147 6.42957 137.186 4.3234 135.879 2.91929C135.601 2.6254 135.324 2.31519 135.193 2.16825C134.196 0.878419 132.448 0.111053 130.52 0.111053" fill="white"/>
<path d="M122.628 50.3819C124.834 47.4757 128.217 39.3285 128.331 35.8346C128.445 32.3406 130.553 24.0792 132.056 21.5159C133.576 18.9525 137.873 11.9646 137.301 9.53189C136.713 7.08285 134.033 4.76443 133.216 3.7195C132.399 2.67458 130.537 2.446 129.491 2.78887C128.445 3.13173 127.154 2.78887 125.406 3.49093C123.658 4.19298 122.138 4.30727 121.452 6.28283C120.749 8.25839 118.772 9.6625 116.093 10.5931C113.413 11.5238 111.779 9.6625 111.207 8.84616C110.619 8.02981 108.985 5.93997 107.008 5.76037C105.031 5.58077 103.74 3.49093 98.5114 3.49093C93.2827 3.49093 87.4495 8.02981 87.4495 8.02981H2.5332V53.6472H119.785C120.864 52.6676 121.632 51.688 122.628 50.3819Z" fill="black"/>
<path d="M2.5332 53.647V69.2392C2.5332 69.2392 5.8011 70.3984 7.41871 70.7576C9.05266 71.1005 9.28141 71.4597 9.86963 71.2148C10.4579 70.9862 11.618 70.1698 13.1375 70.3984C14.6571 70.627 17.2061 72.374 17.7943 73.1903C18.3825 74.0067 18.023 75.3944 19.0688 76.57C20.1145 77.7292 21.0458 76.6843 22.3367 76.0965C23.6111 75.5087 25.9477 77.5006 26.879 78.1863C27.8104 78.8884 27.4673 81.5987 28.3986 83.0681C29.3136 84.5538 31.307 85.9743 35.1468 89.8274C38.9866 93.6643 43.0715 94.4806 44.1172 94.4806C45.1629 94.4806 45.0486 92.1459 46.5681 91.9173C48.0877 91.6887 53.3163 92.2602 55.4241 93.1908C57.5156 94.1214 64.1658 94.9378 65.669 94.7092C67.1886 94.4806 68.463 92.8479 69.9499 92.8479C71.4368 92.8479 73.0054 96.1133 73.1198 98.9052C73.2342 101.697 75.2113 104.375 76.7308 105.305C78.2504 106.236 95.1291 112.995 95.1291 112.995L95.5866 112.293C96.0604 111.591 94.3121 108.097 93.3808 105.779C92.4494 103.444 93.2664 99.3787 93.8546 97.4031C94.4428 95.4276 96.3055 92.5214 97.8088 90.3009C99.3283 88.0968 99.5571 83.313 101.305 82.0395C103.054 80.766 103.168 79.5905 103.168 78.2027C103.168 76.8149 102.466 74.5944 103.397 72.7332C104.328 70.8719 107.596 66.1044 108.642 65.1738C109.688 64.2432 111.093 62.7247 111.207 61.337C111.322 59.9328 111.795 58.6593 113.299 57.843C116.616 56.0634 118.446 54.8552 119.769 53.647H2.5332Z" fill="#ED1D24"/>
<path d="M70.4391 82.0397C70.6025 83.1009 67.4163 82.2682 64.9654 82.0397C62.5145 81.8111 56.6976 81.3376 55.178 82.2193C55.178 82.2193 57.7924 78.4314 57.4656 75.9987C57.0407 72.7333 54.933 69.37 52.9559 66.3332C50.9788 63.3127 48.2664 59.7861 44.2142 58.4146C37.3353 56.0799 29.427 56.2105 29.3126 56.0799C29.1983 55.9656 38.3974 53.9084 45.2763 55.6554C45.2763 55.6554 44.345 51.6553 30.8322 49.0919C17.3194 46.5286 14.5254 49.6797 14.5254 49.6797C14.5254 49.6797 17.0907 45.1408 22.5644 44.6673C22.5644 44.6673 18.7246 36.8631 19.8847 32.9119C19.8847 32.9119 21.5187 41.1734 26.4042 44.4388C26.4042 44.4388 30.8322 43.9816 36.4203 46.5286C36.4203 46.5286 33.1524 38.4958 31.4041 36.1773C29.6558 33.8426 29.1983 28.3731 30.9466 26.871C30.9466 26.871 34.4432 35.6059 37.6948 40.3734C41.1914 45.5 46.7795 49.9083 46.7795 49.9083C46.7795 49.9083 47.8253 42.8061 47.2371 38.3815C46.6488 33.9569 42.4659 25.8097 42.4659 25.8097C42.4659 25.8097 51.5507 31.9813 51.7794 39.4264C52.0082 46.8715 51.1912 52.1124 51.1912 52.1124C51.1912 52.1124 56.7793 57.4676 58.1845 61.6637C58.1845 61.6637 58.0701 55.1982 60.5211 54.0063C60.5211 54.0063 58.9688 60.6024 61.142 65.5005C63.3151 70.3822 64.7203 70.7414 64.7203 70.7414C64.7203 70.7414 65.3085 63.8678 64.3772 61.0759C63.4458 58.284 65.1615 57.1574 65.4719 55.3778C66.1255 51.541 64.4262 47.5735 63.1027 45.1408C61.7792 42.6918 57.629 37.108 57.629 37.108C57.629 37.108 64.3935 40.2591 65.5536 43.5081C66.7137 46.7735 68.7071 50.6103 68.7071 50.6103C68.7071 50.6103 69.181 47.6552 69.0503 43.7367C68.8869 38.9039 68.1026 32.716 68.9359 30.3486C70.2104 26.7404 74.0665 21.1566 78.135 20.7974C78.135 20.7974 72.0731 29.9894 71.7299 33.0099C71.3868 36.0304 72.3182 43.3612 72.3182 43.3612C72.3182 43.3612 83.1513 31.8017 84.5564 28.0955C84.5564 28.0955 81.7624 38.3488 77.9226 42.5448C74.0828 46.7409 72.4489 48.945 72.1058 49.8756C71.7626 50.8063 71.9914 54.4145 71.9914 54.4145C71.9914 54.4145 80.9618 49.8756 84.5728 41.9571C88.1838 34.0385 92.6118 22.6423 92.6118 22.6423C92.6118 22.6423 93.0857 33.6956 88.6577 42.202C88.6577 42.202 101.697 27.769 104.85 24.0464C104.85 24.0464 102.399 31.0343 98.7881 36.1447C95.1771 41.2713 92.9713 43.2469 92.9713 43.2469C92.9713 43.2469 98.6738 41.6142 103.102 38.5937C107.53 35.5732 109.736 33.3528 109.736 33.3528C109.736 33.3528 106.827 40.5693 99.4907 44.4061C92.1543 48.2429 89.0008 47.3123 89.0008 47.3123C89.0008 47.3123 84.1153 50.5777 81.1905 52.0798C78.2821 53.5982 72.9227 57.0921 72.9227 57.0921C72.9227 57.0921 74.1972 58.0228 78.3965 57.435C82.5957 56.8472 84.4584 55.4594 84.4584 55.4594C84.4584 55.4594 82.367 59.7697 76.1906 61.631C70.0143 63.4923 69.8346 67.574 69.9816 68.6189C70.1287 69.6639 69.6712 76.8804 70.4881 82.007" fill="#FFF200"/>
</g>
<defs>
<clipPath id="clip0_46_1105">
<rect width="139.882" height="115.431" fill="white" transform="translate(0 0.0947266)"/>
</clipPath>
</defs>
</svg>
