<svg width="86" height="71" viewBox="0 0 86 71" fill="none" xmlns="http://www.w3.org/2000/svg">
<g clip-path="url(#clip0_378_9582)">
<path d="M58.22 69.9298C58.12 69.9298 58.03 69.9098 57.93 69.8798C56.87 69.4498 47.51 65.7098 46.55 65.1098C45.35 64.3698 44.05 62.4698 43.97 60.5598C43.91 59.0398 43.1 57.6898 42.77 57.5898C42.54 57.5898 42.19 57.8098 41.83 58.0398C41.39 58.3198 40.89 58.6298 40.3 58.7198C40.15 58.7398 39.97 58.7498 39.74 58.7498C38.26 58.7498 34.84 58.2798 33.6 57.7298C32.67 57.3098 30.35 56.9798 29.05 56.9798C28.8 56.9798 28.67 56.9898 28.61 56.9998C28.52 57.0098 28.39 57.2998 28.3 57.4898C28.11 57.8998 27.79 58.5798 27 58.5798C26.21 58.5798 23.49 58.0298 20.96 55.4998C20.03 54.5698 19.28 53.8798 18.68 53.3198C17.74 52.4398 17.11 51.8598 16.72 51.2298C16.37 50.6598 16.26 49.9598 16.16 49.3398C16.11 49.0298 16.04 48.5698 15.96 48.4298C15.9 48.3898 15.84 48.3398 15.77 48.2898C15.41 48.0098 14.44 47.2598 13.99 47.2598C13.84 47.3198 13.7 47.3998 13.55 47.4898C13.19 47.6998 12.77 47.9298 12.29 47.9298C11.84 47.9298 11.44 47.7298 11.1 47.3498C10.58 46.7698 10.46 46.1398 10.38 45.6798C10.35 45.4998 10.31 45.2798 10.26 45.2098C10.02 44.8698 8.62004 43.9198 7.92004 43.8098C7.85004 43.7998 7.78004 43.7898 7.71004 43.7898C7.30004 43.7898 6.93004 43.9698 6.64004 44.1198C6.52004 44.1798 6.42004 44.2298 6.34004 44.2598C6.17004 44.3298 6.00004 44.3598 5.83004 44.3598C5.59004 44.3598 5.39004 44.2998 5.16004 44.2198C4.98004 44.1598 4.74004 44.0898 4.39004 44.0098C3.36004 43.7898 1.38004 43.0898 1.30004 43.0598C0.990039 42.9498 0.790039 42.6598 0.790039 42.3298V4.8498C0.790039 4.4198 1.14004 4.0798 1.57004 4.0798H53.28C54.14 3.4598 57.31 1.2998 60.31 1.2998C62.55 1.2998 63.73 1.8898 64.59 2.3198C65 2.5198 65.29 2.6698 65.58 2.6998C66.94 2.8198 68.03 3.9698 68.71 4.9098C69 5.3198 69.5 5.8098 70.2 5.8098C70.39 5.8098 70.6 5.7698 70.82 5.6998C72.36 5.1598 73.31 4.4398 73.62 3.5398C74.09 2.1998 75.07 1.8698 75.94 1.5698C76.12 1.5098 76.3 1.4498 76.49 1.3698C77.24 1.0698 77.86 1.0398 78.35 1.0098C78.62 0.999805 78.86 0.979805 79.02 0.929805C79.28 0.839805 79.59 0.799805 79.91 0.799805C80.85 0.799805 81.69 1.1598 82.16 1.7698C82.25 1.8898 82.42 2.0698 82.62 2.2798C83.36 3.0798 84.48 4.2798 84.8 5.6298C85.13 7.0398 83.81 9.6698 81.72 13.1898L81.51 13.5498C80.68 14.9498 79.41 19.8898 79.34 21.9498C79.26 24.2498 77.13 29.4098 75.69 31.3098C75.06 32.1398 74.56 32.7698 73.85 33.4098C72.96 34.2198 71.76 34.9898 69.74 36.0798C69.18 36.3798 68.93 36.8198 68.86 37.5998C68.76 38.7098 67.81 39.7698 67.03 40.4698C66.5 40.9398 64.54 43.7798 64 44.8698C63.69 45.4898 63.78 46.2798 63.87 46.9798C63.91 47.2898 63.94 47.5898 63.94 47.8698C63.94 48.8798 63.83 49.8598 62.48 50.8498C62.1 51.1298 61.8 52.2098 61.55 53.0898C61.28 54.0398 61 55.0198 60.52 55.7298C59.24 57.6098 58.45 58.9998 58.2 59.8598C57.76 61.3598 57.48 63.4398 57.89 64.4898C58.02 64.8198 58.18 65.1898 58.35 65.5698C59.21 67.5598 59.6 68.5498 59.17 69.1898L58.88 69.6198C58.73 69.8398 58.49 69.9598 58.24 69.9598" fill="white"/>
<path d="M79.89 1.55C80.49 1.55 81.17 1.75 81.53 2.22C82.03 2.86 83.67 4.29 84.03 5.78C84.39 7.28 81.75 11.55 80.82 13.12C79.89 14.69 78.61 19.75 78.54 21.89C78.47 24.03 76.4 29.02 75.04 30.8C74.44 31.6 73.97 32.2 73.3 32.79C72.48 33.53 71.37 34.26 69.34 35.36C68.41 35.86 68.13 36.64 68.06 37.5C67.99 38.35 67.13 39.28 66.49 39.85C65.85 40.42 63.85 43.34 63.28 44.48C62.71 45.62 63.14 46.97 63.14 47.83C63.14 48.69 63.07 49.4 62 50.18C60.93 50.97 60.79 53.89 59.86 55.24C58.93 56.59 57.79 58.38 57.44 59.59C57.08 60.8 56.59 63.29 57.16 64.72C57.73 66.14 58.8 68.28 58.51 68.71L58.23 69.14C58.23 69.14 47.89 65.01 46.97 64.43C46.04 63.86 44.83 62.22 44.76 60.51C44.69 58.8 43.73 56.8 42.82 56.8C41.91 56.8 41.13 57.8 40.2 57.94C40.09 57.96 39.94 57.96 39.76 57.96C38.37 57.96 35.07 57.51 33.93 57.01C32.84 56.53 30.35 56.19 29.06 56.19C28.83 56.19 28.64 56.2 28.51 56.22C27.58 56.36 27.66 57.79 27.01 57.79C26.36 57.79 23.87 57.29 21.52 54.94C19.17 52.59 17.95 51.72 17.38 50.81C16.82 49.9 17.02 48.24 16.45 47.81C15.95 47.44 14.8 46.46 13.99 46.46C13.87 46.46 13.77 46.48 13.67 46.53C13.14 46.77 12.71 47.14 12.29 47.14C12.08 47.14 11.88 47.05 11.67 46.82C11.03 46.11 11.24 45.25 10.89 44.75C10.53 44.25 8.97 43.18 8.04 43.04C7.93 43.02 7.82 43.01 7.71 43.01C6.94 43.01 6.36 43.41 6.05 43.53C5.97 43.56 5.9 43.58 5.83 43.58C5.58 43.58 5.33 43.41 4.55 43.25C3.55 43.04 1.56 42.32 1.56 42.32V4.85H53.53C53.53 4.85 57.1 2.07 60.3 2.07C63.5 2.07 64.29 3.36 65.5 3.46C66.71 3.57 67.71 4.85 68.07 5.35C68.36 5.75 69.06 6.58 70.19 6.58C70.46 6.58 70.75 6.53 71.06 6.42C72.7 5.85 73.91 5 74.34 3.78C74.77 2.57 75.7 2.5 76.77 2.07C77.84 1.64 78.62 1.86 79.26 1.64C79.44 1.58 79.66 1.55 79.9 1.55M79.89 0C79.48 0 79.1 0.06 78.76 0.17C78.68 0.19 78.46 0.21 78.29 0.21C77.76 0.24 77.05 0.28 76.18 0.62C76.01 0.69 75.84 0.75 75.66 0.81C74.73 1.13 73.46 1.57 72.87 3.26C72.58 4.09 71.44 4.64 70.54 4.95C70.41 5 70.28 5.02 70.18 5.02C69.79 5.02 69.47 4.66 69.32 4.44C68.21 2.9 66.93 2.02 65.63 1.91C65.49 1.9 65.22 1.77 64.92 1.61C64.04 1.17 62.72 0.51 60.29 0.51C57.28 0.51 54.15 2.49 53.01 3.29H1.55C0.69 3.29 0 3.98 0 4.84V42.34C0 43 0.41 43.58 1.03 43.8C1.24 43.88 3.15 44.55 4.22 44.78C4.54 44.85 4.74 44.91 4.91 44.97C5.17 45.05 5.45 45.15 5.82 45.15C6.09 45.15 6.35 45.1 6.61 45C6.74 44.95 6.86 44.89 6.97 44.83C7.21 44.71 7.47 44.58 7.7 44.58C7.73 44.58 7.76 44.58 7.8 44.58C8.19 44.64 9.21 45.26 9.58 45.62C9.59 45.68 9.61 45.76 9.62 45.82C9.71 46.31 9.86 47.13 10.52 47.87C11.14 48.56 11.83 48.71 12.29 48.71C12.98 48.71 13.51 48.41 13.94 48.16C13.99 48.13 14.04 48.11 14.08 48.08C14.45 48.25 15.08 48.73 15.3 48.9C15.33 49.06 15.37 49.29 15.4 49.46C15.5 50.12 15.63 50.94 16.06 51.64C16.51 52.36 17.16 52.97 18.16 53.89C18.76 54.44 19.5 55.14 20.42 56.05C23.13 58.76 26.09 59.36 27.01 59.36C28.29 59.36 28.82 58.24 29.01 57.82C29.01 57.8 29.03 57.78 29.04 57.76H29.06C30.25 57.76 32.48 58.08 33.3 58.44C34.79 59.1 38.38 59.53 39.75 59.53C40.02 59.53 40.24 59.52 40.43 59.49C41.18 59.37 41.78 59 42.26 58.69C42.36 58.63 42.48 58.55 42.59 58.49C42.85 58.91 43.18 59.74 43.21 60.59C43.3 62.83 44.8 64.93 46.15 65.76C47.12 66.36 55.2 69.6 57.65 70.59C57.84 70.66 58.03 70.7 58.23 70.7C58.74 70.7 59.22 70.45 59.52 70.01L59.8 69.58C60.49 68.55 59.94 67.3 59.04 65.22C58.87 64.84 58.72 64.48 58.59 64.16C58.26 63.34 58.52 61.42 58.92 60.04C59.08 59.5 59.59 58.38 61.14 56.13C61.7 55.32 61.99 54.27 62.27 53.26C62.44 52.66 62.72 51.67 62.94 51.42C64.55 50.23 64.69 48.95 64.69 47.84C64.69 47.51 64.65 47.18 64.61 46.86C64.54 46.24 64.46 45.6 64.67 45.19C65.2 44.13 67.07 41.44 67.52 41.02C68.81 39.88 69.51 38.74 69.6 37.65C69.65 37.01 69.83 36.87 70.07 36.74C72.15 35.62 73.39 34.81 74.34 33.96C75.1 33.27 75.62 32.61 76.27 31.75C77.79 29.75 80 24.44 80.08 21.95C80.14 20.02 81.38 15.21 82.15 13.92L82.36 13.56C84.67 9.68 85.93 7.1 85.53 5.43C85.16 3.88 83.96 2.59 83.16 1.73C82.99 1.55 82.82 1.36 82.74 1.27C82.13 0.48 81.06 0.01 79.88 0.01" fill="white"/>
<path d="M75.05 30.7999C76.4 29.0199 78.47 24.0299 78.54 21.8899C78.61 19.7499 79.9 14.6899 80.82 13.1199C81.75 11.5499 84.38 7.26988 84.03 5.77988C83.67 4.27988 82.03 2.85988 81.53 2.21988C81.03 1.57988 79.89 1.43988 79.25 1.64988C78.61 1.85988 77.82 1.64988 76.75 2.07988C75.68 2.50988 74.75 2.57988 74.33 3.78988C73.9 4.99988 72.69 5.85988 71.05 6.42988C69.41 6.99988 68.41 5.85988 68.06 5.35988C67.7 4.85988 66.7 3.57988 65.49 3.46988C64.28 3.35988 63.4901 2.07988 60.2901 2.07988C57.0901 2.07988 53.5201 4.85988 53.5201 4.85988H1.55005V32.7999H73.31C73.97 32.1999 74.44 31.5999 75.05 30.7999Z" fill="black"/>
<path d="M1.55005 32.7998V42.3498C1.55005 42.3498 3.55005 43.0598 4.54005 43.2798C5.54005 43.4898 5.68005 43.7098 6.04005 43.5598C6.40005 43.4198 7.11005 42.9198 8.04005 43.0598C8.97005 43.1998 10.53 44.2698 10.89 44.7698C11.25 45.2698 11.03 46.1198 11.67 46.8398C12.31 47.5498 12.88 46.9098 13.67 46.5498C14.45 46.1898 15.88 47.4098 16.45 47.8298C17.02 48.2598 16.81 49.9198 17.38 50.8198C17.94 51.7298 19.16 52.5998 21.51 54.9598C23.86 57.3098 26.36 57.8098 27 57.8098C27.64 57.8098 27.57 56.3798 28.5 56.2398C29.43 56.0998 32.63 56.4498 33.92 57.0198C35.2 57.5898 39.27 58.0898 40.19 57.9498C41.12 57.8098 41.9001 56.8098 42.8101 56.8098C43.7201 56.8098 44.68 58.8098 44.75 60.5198C44.82 62.2298 46.03 63.8698 46.96 64.4398C47.89 65.0098 58.2201 69.1498 58.2201 69.1498L58.5 68.7198C58.79 68.2898 57.7201 66.1498 57.1501 64.7298C56.5801 63.2998 57.08 60.8098 57.44 59.5998C57.8 58.3898 58.9401 56.6098 59.8601 55.2498C60.7901 53.8998 60.93 50.9698 62 50.1898C63.07 49.4098 63.14 48.6898 63.14 47.8398C63.14 46.9898 62.71 45.6298 63.28 44.4898C63.85 43.3498 65.85 40.4298 66.49 39.8598C67.13 39.2898 67.99 38.3598 68.06 37.5098C68.13 36.6498 68.42 35.8698 69.34 35.3698C71.37 34.2798 72.49 33.5398 73.3 32.7998H1.55005Z" fill="#ED1D24"/>
<path d="M43.1099 50.1902C43.2099 50.8402 41.2599 50.3302 39.7599 50.1902C38.2599 50.0502 34.6999 49.7602 33.7699 50.3002C33.7699 50.3002 35.3699 47.9802 35.1699 46.4902C34.9099 44.4902 33.6199 42.4302 32.4099 40.5702C31.1999 38.7202 29.5399 36.5602 27.0599 35.7202C22.8499 34.2902 18.0099 34.3702 17.9399 34.2902C17.8699 34.2202 23.4999 32.9602 27.7099 34.0302C27.7099 34.0302 27.1399 31.5802 18.8699 30.0102C10.5999 28.4402 8.88989 30.3702 8.88989 30.3702C8.88989 30.3702 10.4599 27.5902 13.8099 27.3002C13.8099 27.3002 11.4599 22.5202 12.1699 20.1002C12.1699 20.1002 13.1699 25.1602 16.1599 27.1602C16.1599 27.1602 18.8699 26.8802 22.2899 28.4402C22.2899 28.4402 20.2899 23.5202 19.2199 22.1002C18.1499 20.6702 17.8699 17.3202 18.9399 16.4002C18.9399 16.4002 21.0799 21.7502 23.0699 24.6702C25.2099 27.8102 28.6299 30.5102 28.6299 30.5102C28.6299 30.5102 29.2699 26.1602 28.9099 23.4502C28.5499 20.7402 25.9899 15.7502 25.9899 15.7502C25.9899 15.7502 31.5499 19.5302 31.6899 24.0902C31.8299 28.6502 31.3299 31.8602 31.3299 31.8602C31.3299 31.8602 34.7499 35.1402 35.6099 37.7102C35.6099 37.7102 35.5399 33.7502 37.0399 33.0202C37.0399 33.0202 36.0899 37.0602 37.4199 40.0602C38.7499 43.0502 39.6099 43.2702 39.6099 43.2702C39.6099 43.2702 39.9699 39.0602 39.3999 37.3502C38.8299 35.6402 39.8799 34.9502 40.0699 33.8602C40.4699 31.5102 39.4299 29.0802 38.6199 27.5902C37.8099 26.0902 35.2699 22.6702 35.2699 22.6702C35.2699 22.6702 39.4099 24.6002 40.1199 26.5902C40.8299 28.5902 42.0499 30.9402 42.0499 30.9402C42.0499 30.9402 42.3399 29.1302 42.2599 26.7302C42.1599 23.7702 41.6799 19.9802 42.1899 18.5302C42.9699 16.3202 45.3299 12.9002 47.8199 12.6802C47.8199 12.6802 44.1099 18.3102 43.8999 20.1602C43.6899 22.0102 44.2599 26.5002 44.2599 26.5002C44.2599 26.5002 50.8899 19.4202 51.7499 17.1502C51.7499 17.1502 50.0399 23.4302 47.6899 26.0002C45.3399 28.5702 44.3399 29.9202 44.1299 30.4902C43.9199 31.0602 44.0599 33.2702 44.0599 33.2702C44.0599 33.2702 49.5499 30.4902 51.7599 25.6402C53.9699 20.7902 56.6799 13.8102 56.6799 13.8102C56.6799 13.8102 56.9699 20.5802 54.2599 25.7902C54.2599 25.7902 62.2399 16.9502 64.1699 14.6702C64.1699 14.6702 62.6699 18.9502 60.4599 22.0802C58.2499 25.2202 56.8999 26.4302 56.8999 26.4302C56.8999 26.4302 60.3899 25.4302 63.0999 23.5802C65.8099 21.7302 67.1599 20.3702 67.1599 20.3702C67.1599 20.3702 65.3799 24.7902 60.8899 27.1402C56.3999 29.4902 54.4699 28.9202 54.4699 28.9202C54.4699 28.9202 51.4799 30.9202 49.6899 31.8402C47.9099 32.7702 44.6299 34.9102 44.6299 34.9102C44.6299 34.9102 45.4099 35.4802 47.9799 35.1202C50.5499 34.7602 51.6899 33.9102 51.6899 33.9102C51.6899 33.9102 50.4099 36.5502 46.6299 37.6902C42.8499 38.8302 42.7399 41.3302 42.8299 41.9702C42.9199 42.6102 42.6399 47.0302 43.1399 50.1702" fill="#FFF200"/>
</g>
<defs>
<clipPath id="clip0_378_9582">
<rect width="85.61" height="70.7" fill="white"/>
</clipPath>
</defs>
</svg>
