<svg width="66" height="34" viewBox="0 0 66 34" fill="none" xmlns="http://www.w3.org/2000/svg">
<path d="M4.97686 23.8579H0.334021C0.075475 23.8579 -0.0847289 23.5765 0.0472288 23.3542L13.5231 0.653113C13.7635 0.248242 14.1994 5.30409e-05 14.6703 5.30409e-05H19.3131C19.5717 5.30409e-05 19.7319 0.281475 19.5999 0.503796L6.12401 23.2048C5.88365 23.6097 5.44771 23.8579 4.97686 23.8579Z" fill="#0B0E20"/>
<path d="M65.9998 4.99872C65.9969 2.23791 63.7572 0.00177448 60.9963 0.00340856L50.9437 0.00941608C48.3657 0.0109441 46.2768 2.10158 46.2773 4.67959L46.2805 19.1788C46.2811 21.758 48.3728 23.8482 50.9519 23.8469L62.6609 23.8413C63.1767 23.8411 63.6649 23.7238 64.1007 23.5145C64.3163 23.411 64.3553 23.1197 64.175 22.9625C63.2423 22.1488 60.7432 19.9686 60.2274 19.5186C60.1666 19.4656 60.0891 19.4367 60.0084 19.4367L53.388 19.4396C52.2661 19.4401 51.3562 18.5308 51.3561 17.4089L51.3543 6.27191C51.3542 5.24396 52.1871 4.41039 53.2151 4.4098L59.2194 4.40629C60.2624 4.3647 60.9186 4.75287 60.8816 5.95201V6.98946C60.8816 7.16469 61.0181 7.31038 61.1929 7.32307C61.8802 7.37297 62.4057 7.39951 63.1063 7.39951C63.9776 7.39951 64.8398 7.36019 65.6911 7.28383C65.863 7.26843 65.9942 7.12287 65.9942 6.95031V6.81175C65.9944 6.80829 65.9953 6.80505 65.9953 6.80157L65.9998 4.99872Z" fill="#0B0E20"/>
<path d="M64.6612 10.7274L55.196 10.7264C54.9097 10.7264 54.7565 11.0634 54.9446 11.2792L58.2641 15.0846C58.3274 15.1572 58.4189 15.1988 58.5151 15.1989L61.0159 15.2012C61.2 15.2014 61.3491 15.3507 61.3491 15.5348L61.3489 18.0606C61.3489 18.1569 61.3905 18.2486 61.4631 18.3119L65.2996 21.6612C65.4794 21.8181 65.7639 21.7421 65.8368 21.5149C65.9389 21.1968 65.995 20.8582 65.995 20.5061V12.0615C65.995 11.3247 65.3979 10.7275 64.6612 10.7274Z" fill="#0B0E20"/>
<path d="M19.6001 23.3542L9.82268 6.88352L6.82861 11.9272L13.5233 23.2049C13.7636 23.6097 14.1996 23.8579 14.6705 23.8579H19.3133C19.5718 23.8579 19.7321 23.5765 19.6001 23.3542Z" fill="#0B0E20"/>
<path d="M6.0802 9.7005L8.68641 5.31016C8.74872 5.20519 8.74872 5.07462 8.68641 4.96967L6.12402 0.653098C5.8837 0.248248 5.44774 3.74718e-05 4.97691 3.74718e-05H0.334009C0.0754844 3.74718e-05 -0.0847409 0.281481 0.047238 0.503802L5.50663 9.7005C5.63585 9.91819 5.95098 9.91819 6.0802 9.7005Z" fill="#0B0E20"/>
<path d="M39.6103 23.8635L44.728 23.8459C44.9572 23.8451 45.1174 23.6187 45.0417 23.4024L41.7243 13.911C41.6909 13.8155 41.5805 13.7707 41.4904 13.8164C39.9685 14.5882 38.5251 15.4918 37.175 16.5128C37.061 16.599 37.0151 16.7491 37.06 16.8848L39.2925 23.6348C39.3378 23.7717 39.466 23.864 39.6103 23.8635Z" fill="#0B0E20"/>
<path d="M27.7364 23.6879C30.8685 18.6717 35.5123 14.6964 41.0309 12.4005C41.1122 12.3667 41.1531 12.276 41.1241 12.1928L40.5705 10.609C40.5439 10.5329 40.4664 10.4862 40.3868 10.4984C32.117 11.7645 25.0149 16.5744 20.6769 23.3287C20.5339 23.5514 20.6923 23.8445 20.957 23.8445H27.4551C27.5697 23.8445 27.6756 23.7851 27.7364 23.6879Z" fill="#BF1A21"/>
<path d="M29.9577 11.6525L31.8232 6.31511C31.87 6.18128 31.9963 6.09164 32.1381 6.09164H33.2492C33.393 6.09164 33.5206 6.18385 33.5658 6.32044L34.7387 9.86661C34.7659 9.949 34.8515 9.99602 34.9357 9.97523C36.5282 9.58224 38.1732 9.32344 39.8582 9.2099C39.9679 9.20252 40.0406 9.09378 40.0043 8.98998L37.1756 0.896885C36.9879 0.359844 36.4803 0.000918417 35.9114 0.00299816L32.6957 0.0147334L29.48 0.00299816C28.9111 0.000918417 28.4035 0.359844 28.2158 0.896885L23.0134 15.7813C22.9575 15.9415 23.1487 16.0734 23.2778 15.9634C25.2604 14.2738 27.476 12.8501 29.8707 11.7479C29.9115 11.7292 29.9429 11.6948 29.9577 11.6525Z" fill="#0B0E20"/>
<path d="M14.8321 31.3668H16.1474L15.4838 29.55L14.8321 31.3668ZM16.5979 32.5891L16.3877 32.0364H14.5979L14.3877 32.601C14.3056 32.8213 14.2356 32.97 14.1775 33.047C14.1194 33.1241 14.0244 33.1626 13.8922 33.1626C13.7801 33.1626 13.681 33.1215 13.595 33.0394C13.5089 32.9574 13.4658 32.8643 13.4658 32.7602C13.4658 32.7001 13.4758 32.6381 13.4958 32.574C13.5158 32.5099 13.5489 32.4209 13.595 32.3067L14.7211 29.4479C14.753 29.3658 14.7916 29.2672 14.8366 29.1521C14.8817 29.037 14.9297 28.9415 14.9808 28.8653C15.0319 28.7893 15.0989 28.7278 15.182 28.6806C15.2651 28.6336 15.3677 28.6101 15.4898 28.6101C15.6139 28.6101 15.7175 28.6336 15.8006 28.6806C15.8837 28.7278 15.9508 28.7884 16.0018 28.8624C16.0529 28.9364 16.0959 29.0161 16.1309 29.1011C16.166 29.1862 16.2105 29.2997 16.2646 29.442L17.4147 32.2828C17.5048 32.4989 17.5498 32.6561 17.5498 32.7541C17.5498 32.8564 17.5073 32.9498 17.4222 33.035C17.3371 33.12 17.2345 33.1626 17.1144 33.1626C17.0443 33.1626 16.9843 33.1501 16.9342 33.125C16.8842 33.1 16.8422 33.066 16.8081 33.0229C16.7741 32.9799 16.7375 32.9138 16.6985 32.8248C16.6595 32.7357 16.6259 32.6572 16.5979 32.5891Z" fill="#0B0E20"/>
<path d="M18.438 31.2677V29.1506C18.438 28.9705 18.4786 28.8354 18.5596 28.7453C18.6407 28.6551 18.7473 28.6101 18.8794 28.6101C19.0176 28.6101 19.1272 28.6551 19.2083 28.7453C19.2893 28.8354 19.3299 28.9705 19.3299 29.1506V31.3158C19.3299 31.562 19.3574 31.7677 19.4125 31.9329C19.4675 32.0981 19.5651 32.2262 19.7053 32.3173C19.8454 32.4084 20.0416 32.4539 20.2939 32.4539C20.6422 32.4539 20.8884 32.3614 21.0326 32.1761C21.1767 31.9909 21.2488 31.7102 21.2488 31.3338V29.1506C21.2488 28.9685 21.2888 28.8328 21.3689 28.7438C21.449 28.6547 21.5561 28.6101 21.6902 28.6101C21.8243 28.6101 21.933 28.6547 22.016 28.7438C22.0991 28.8328 22.1407 28.9685 22.1407 29.1506V31.2677C22.1407 31.6121 22.1071 31.8994 22.0401 32.1295C21.973 32.3598 21.8464 32.562 21.6602 32.7361C21.5 32.8843 21.3139 32.9924 21.1016 33.0605C20.8894 33.1285 20.6412 33.1626 20.3569 33.1626C20.0186 33.1626 19.7273 33.1261 19.483 33.053C19.2388 32.9799 19.0396 32.8668 18.8855 32.7137C18.7313 32.5604 18.6182 32.3643 18.5461 32.1251C18.4741 31.8859 18.438 31.6 18.438 31.2677Z" fill="#0B0E20"/>
<path d="M26.9106 31.7662C26.9106 32.0325 26.8419 32.2718 26.7049 32.4839C26.5677 32.6961 26.367 32.8622 26.1027 32.9825C25.8385 33.1026 25.5252 33.1626 25.1628 33.1626C24.7283 33.1626 24.37 33.0805 24.0878 32.9164C23.8875 32.7982 23.7249 32.6406 23.5998 32.4434C23.4747 32.2462 23.4121 32.0544 23.4121 31.8683C23.4121 31.7603 23.4497 31.6676 23.5247 31.5905C23.5998 31.5135 23.6953 31.4749 23.8115 31.4749C23.9055 31.4749 23.9851 31.5049 24.0502 31.565C24.1152 31.6251 24.1708 31.7142 24.2169 31.8323C24.2729 31.9725 24.3335 32.0895 24.3986 32.1837C24.4636 32.2778 24.5552 32.3553 24.6733 32.4163C24.7914 32.4774 24.9466 32.5079 25.1388 32.5079C25.403 32.5079 25.6178 32.4464 25.7829 32.3232C25.9481 32.2002 26.0307 32.0465 26.0307 31.8624C26.0307 31.7162 25.9861 31.5976 25.897 31.5064C25.8079 31.4153 25.6928 31.3457 25.5517 31.2978C25.4106 31.2497 25.2218 31.1987 24.9856 31.1447C24.6693 31.0705 24.4046 30.9839 24.1914 30.8849C23.9782 30.7857 23.809 30.6506 23.6839 30.4795C23.5587 30.3082 23.4962 30.0956 23.4962 29.8413C23.4962 29.5991 23.5622 29.3838 23.6944 29.1956C23.8265 29.0076 24.0177 28.8629 24.268 28.7618C24.5181 28.6606 24.8124 28.6101 25.1508 28.6101C25.421 28.6101 25.6548 28.6437 25.852 28.7107C26.0491 28.7778 26.2128 28.8668 26.343 28.978C26.4731 29.0891 26.5682 29.2057 26.6283 29.3278C26.6883 29.4499 26.7183 29.5691 26.7183 29.6851C26.7183 29.7914 26.6808 29.8869 26.6057 29.9719C26.5306 30.057 26.4371 30.0996 26.325 30.0996C26.2228 30.0996 26.1453 30.0741 26.0922 30.0229C26.0391 29.9719 25.9816 29.8883 25.9196 29.7723C25.8395 29.6061 25.7434 29.4765 25.6313 29.3834C25.5191 29.2903 25.339 29.2437 25.0908 29.2437C24.8605 29.2437 24.6748 29.2944 24.5337 29.3954C24.3925 29.4965 24.322 29.6181 24.322 29.7602C24.322 29.8483 24.346 29.9245 24.3941 29.9884C24.4421 30.0526 24.5082 30.1076 24.5923 30.1536C24.6764 30.1997 24.7614 30.2357 24.8475 30.2618C24.9335 30.2878 25.0757 30.3258 25.2739 30.3758C25.5221 30.434 25.7469 30.498 25.9481 30.568C26.1493 30.6381 26.3205 30.7232 26.4616 30.8232C26.6028 30.9234 26.7128 31.05 26.7919 31.2031C26.871 31.3563 26.9106 31.544 26.9106 31.7662Z" fill="#0B0E20"/>
<path d="M30.9878 29.4209H30.015V32.619C30.015 32.8033 29.9738 32.9399 29.8918 33.029C29.8097 33.118 29.7036 33.1626 29.5734 33.1626C29.4414 33.1626 29.3337 33.1176 29.2506 33.0275C29.1675 32.9373 29.126 32.8013 29.126 32.619V29.4209H28.1531C28.0009 29.4209 27.8878 29.3875 27.8138 29.3203C27.7396 29.2533 27.7026 29.1646 27.7026 29.0546C27.7026 28.9404 27.7411 28.8503 27.8182 28.7844C27.8953 28.7183 28.007 28.6852 28.1531 28.6852H30.9878C31.142 28.6852 31.2566 28.7192 31.3317 28.7873C31.4068 28.8554 31.4443 28.9445 31.4443 29.0546C31.4443 29.1646 31.4063 29.2533 31.3302 29.3203C31.2541 29.3875 31.14 29.4209 30.9878 29.4209Z" fill="#0B0E20"/>
<path d="M34.1425 29.3548H33.3196V30.5651H34.1184C34.3326 30.5651 34.5128 30.5465 34.659 30.5094C34.8051 30.4725 34.9167 30.4094 34.9938 30.3203C35.0708 30.2313 35.1094 30.1086 35.1094 29.9524C35.1094 29.8303 35.0783 29.7227 35.0163 29.6296C34.9542 29.5365 34.8681 29.467 34.7581 29.4209C34.654 29.3768 34.4488 29.3548 34.1425 29.3548ZM33.6319 31.2047H33.3196V32.619C33.3196 32.8053 33.2785 32.9424 33.1965 33.0304C33.1144 33.1185 33.0073 33.1626 32.8752 33.1626C32.733 33.1626 32.6229 33.1165 32.5449 33.0245C32.4668 32.9324 32.4277 32.7972 32.4277 32.619V29.2318C32.4277 29.0396 32.4708 28.9004 32.557 28.8143C32.6429 28.7282 32.7821 28.6852 32.9743 28.6852H34.4247C34.6248 28.6852 34.7961 28.6937 34.9382 28.7107C35.0803 28.7278 35.2085 28.7623 35.3227 28.8143C35.4607 28.8724 35.5828 28.9555 35.6889 29.0636C35.7951 29.1717 35.8757 29.2973 35.9307 29.4404C35.9858 29.5835 36.0133 29.7352 36.0133 29.8953C36.0133 30.2237 35.9207 30.4859 35.7356 30.6822C35.5503 30.8784 35.2696 31.0175 34.8932 31.0995C35.0513 31.1836 35.2024 31.3077 35.3467 31.4719C35.4908 31.6361 35.6194 31.8108 35.7325 31.996C35.8456 32.1811 35.9337 32.3483 35.9968 32.4974C36.0598 32.6465 36.0914 32.7492 36.0914 32.8053C36.0914 32.8633 36.0728 32.9208 36.0358 32.9779C35.9987 33.035 35.9482 33.08 35.8841 33.113C35.8201 33.1461 35.7461 33.1626 35.662 33.1626C35.5618 33.1626 35.4777 33.1391 35.4097 33.0921C35.3416 33.0451 35.283 32.9854 35.234 32.9133C35.185 32.8413 35.1184 32.7352 35.0342 32.5951L34.677 32.0004C34.5488 31.7823 34.4342 31.616 34.3331 31.502C34.2321 31.3878 34.1295 31.3097 34.0254 31.2677C33.9213 31.2257 33.79 31.2047 33.6319 31.2047Z" fill="#0B0E20"/>
<path d="M38.3698 31.3668H39.6851L39.0214 29.55L38.3698 31.3668ZM40.1354 32.5891L39.9252 32.0364H38.1355L37.9253 32.601C37.8432 32.8213 37.7731 32.97 37.7151 33.047C37.6571 33.1241 37.562 33.1626 37.4298 33.1626C37.3176 33.1626 37.2186 33.1215 37.1325 33.0394C37.0464 32.9574 37.0034 32.8643 37.0034 32.7602C37.0034 32.7001 37.0134 32.6381 37.0334 32.574C37.0534 32.5099 37.0864 32.4209 37.1325 32.3067L38.2585 29.4479C38.2906 29.3658 38.3292 29.2672 38.3742 29.1521C38.4193 29.037 38.4673 28.9415 38.5183 28.8653C38.5694 28.7893 38.6365 28.7278 38.7195 28.6806C38.8026 28.6336 38.9052 28.6101 39.0274 28.6101C39.1515 28.6101 39.2551 28.6336 39.3382 28.6806C39.4212 28.7278 39.4883 28.7884 39.5393 28.8624C39.5904 28.9364 39.6335 29.0161 39.6685 29.1011C39.7035 29.1862 39.748 29.2997 39.8022 29.442L40.9522 32.2828C41.0424 32.4989 41.0874 32.6561 41.0874 32.7541C41.0874 32.8564 41.0448 32.9498 40.9598 33.035C40.8746 33.12 40.7721 33.1626 40.6519 33.1626C40.5818 33.1626 40.5218 33.1501 40.4718 33.125C40.4217 33.1 40.3796 33.066 40.3457 33.0229C40.3115 32.9799 40.2751 32.9138 40.236 32.8248C40.197 32.7357 40.1635 32.6572 40.1354 32.5891Z" fill="#0B0E20"/>
<path d="M43.077 29.1508V32.3549H44.8847C45.0288 32.3549 45.1395 32.39 45.2164 32.4601C45.2936 32.5301 45.3321 32.6182 45.3321 32.7243C45.3321 32.8324 45.2941 32.92 45.2181 32.9871C45.1419 33.0542 45.0308 33.0876 44.8847 33.0876H42.7316C42.5374 33.0876 42.3977 33.0447 42.3126 32.9586C42.2275 32.8725 42.1851 32.7333 42.1851 32.5411V29.1508C42.1851 28.9706 42.2256 28.8355 42.3066 28.7454C42.3877 28.6552 42.4944 28.6103 42.6264 28.6103C42.7606 28.6103 42.8692 28.6549 42.9523 28.7439C43.0353 28.833 43.077 28.9686 43.077 29.1508Z" fill="#0B0E20"/>
<path d="M46.415 32.619V29.1506C46.415 28.9705 46.4561 28.8354 46.5382 28.7453C46.6203 28.6551 46.7264 28.6101 46.8566 28.6101C46.9906 28.6101 47.0993 28.6547 47.1823 28.7438C47.2654 28.8328 47.3069 28.9685 47.3069 29.1506V32.619C47.3069 32.8013 47.2654 32.9373 47.1823 33.0275C47.0993 33.1176 46.9906 33.1626 46.8566 33.1626C46.7284 33.1626 46.6227 33.1171 46.5397 33.026C46.4565 32.9349 46.415 32.7993 46.415 32.619Z" fill="#0B0E20"/>
<path d="M49.816 31.3668H51.1313L50.4677 29.55L49.816 31.3668ZM51.5817 32.5891L51.3715 32.0364H49.5818L49.3716 32.601C49.2895 32.8213 49.2194 32.97 49.1613 33.047C49.1033 33.1241 49.0082 33.1626 48.8761 33.1626C48.7639 33.1626 48.6649 33.1215 48.5788 33.0394C48.4927 32.9574 48.4497 32.8643 48.4497 32.7602C48.4497 32.7001 48.4597 32.6381 48.4797 32.574C48.4997 32.5099 48.5327 32.4209 48.5788 32.3067L49.7048 29.4479C49.7369 29.3658 49.7755 29.2672 49.8205 29.1521C49.8656 29.037 49.9136 28.9415 49.9646 28.8653C50.0156 28.7893 50.0828 28.7278 50.1658 28.6806C50.2488 28.6336 50.3514 28.6101 50.4737 28.6101C50.5978 28.6101 50.7014 28.6336 50.7845 28.6806C50.8675 28.7278 50.9346 28.7884 50.9856 28.8624C51.0367 28.9364 51.0798 29.0161 51.1148 29.1011C51.1497 29.1862 51.1943 29.2997 51.2485 29.442L52.3985 32.2828C52.4887 32.4989 52.5337 32.6561 52.5337 32.7541C52.5337 32.8564 52.4911 32.9498 52.4061 33.035C52.3209 33.12 52.2184 33.1626 52.0982 33.1626C52.0281 33.1626 51.968 33.1501 51.9181 33.125C51.868 33.1 51.8259 33.066 51.7919 33.0229C51.7578 32.9799 51.7214 32.9138 51.6823 32.8248C51.6433 32.7357 51.6098 32.6572 51.5817 32.5891Z" fill="#0B0E20"/>
</svg>
