<svg width="44" height="42" viewBox="0 0 44 42" fill="none" xmlns="http://www.w3.org/2000/svg">
<path fill-rule="evenodd" clip-rule="evenodd" d="M38.8832 11.8162H32.5669C33.3872 14.5787 33.8118 17.561 33.8649 20.5433H41.3055C41.2041 17.4463 40.3645 14.4735 38.8832 11.8162ZM10.8724 11.8162H4.56092C3.10851 14.4162 2.23996 17.3842 2.1338 20.5433H9.57439C9.62747 17.5705 10.0521 14.5882 10.8724 11.8162ZM32.5669 30.5705H38.8783C40.3307 27.9705 41.1993 25.0025 41.3055 21.8433H33.8649C33.8118 24.8161 33.3872 27.7984 32.5669 30.5705ZM4.55609 30.5705H10.8724C10.0521 27.808 9.62747 24.8256 9.57439 21.8433H2.1338C2.23513 24.9404 3.07473 27.9131 4.55609 30.5705ZM15.3889 38.9057C14.8629 38.9439 14.3369 38.963 13.8158 38.9583C14.6699 39.3311 15.5577 39.6465 16.4697 39.8998C16.0982 39.5987 15.7363 39.2689 15.3889 38.9057ZM21.0634 37.6917C19.7606 38.1649 18.424 38.509 17.0874 38.7145C18.2406 39.7039 19.5724 40.4064 21.0634 40.5689V37.6917ZM30.1156 33.4237L28.7838 32.6638C26.9502 34.5851 24.774 36.1002 22.3807 37.166V40.5737C25.9562 40.1818 28.5957 36.7645 30.1156 33.4285V33.4237ZM31.9637 32.3818C32.0264 32.2146 32.0892 32.0473 32.1471 31.8752H38.0822C35.4958 35.7561 31.5584 38.6333 26.9744 39.895C28.6873 38.5042 30.1397 36.4778 31.2544 34.0737C31.7803 34.3748 32.3739 33.8969 32.2243 33.3473L31.9589 32.3818H31.9637ZM22.3759 24.5771L28.668 22.9235C29.0444 22.8183 29.4015 23.0238 29.498 23.3775L31.3364 30.0973C32.1036 27.4734 32.4945 24.6631 32.5476 21.8481H22.3759V24.5771ZM17.5602 30.5705C18.6894 29.8488 19.7413 28.998 20.6822 28.0278L18.4529 26.7565C17.9511 26.4698 18.0428 25.7146 18.6121 25.5665L21.0586 24.926V21.8529H10.8869C10.9399 24.8448 11.3839 27.8271 12.2379 30.58H17.5554V30.5705H17.5602ZM12.9955 32.659C13.7193 32.444 14.4335 32.1811 15.1283 31.8752H12.6867C12.7832 32.1429 12.8894 32.401 12.9955 32.659ZM6.36558 33.2612C8.12198 33.4715 9.94594 33.3712 11.712 32.9888C11.5672 32.6256 11.4273 32.2576 11.2922 31.8752H5.35227C5.67074 32.3532 6.0085 32.812 6.36558 33.2612ZM3.14711 33.8635C5.84927 34.7715 8.78787 34.891 11.6444 34.3318C15.688 33.5385 19.4903 31.3973 22.2118 28.3003C22.482 27.9896 22.4048 27.5164 22.0477 27.3109L20.4892 26.4172L28.4026 24.3381L30.5451 32.162L28.9865 31.273C28.7211 31.1249 28.3785 31.1679 28.171 31.4021C27.1046 32.5778 25.9273 33.5815 24.6679 34.4179C23.6594 35.0918 22.6027 35.6557 21.5121 36.1145C21.4784 36.1241 21.4494 36.1384 21.4156 36.1528C19.5434 36.9318 17.5795 37.405 15.6301 37.577C15.606 37.577 15.5867 37.577 15.5626 37.5818C14.8002 37.6487 14.0426 37.6678 13.2947 37.6439C9.60817 37.5245 5.912 36.3153 3.20984 33.9065L3.15676 33.8587L3.14711 33.8682V33.8635ZM28.0504 3.48094C28.5764 3.44271 29.1023 3.42359 29.6234 3.42837C28.7694 3.05558 27.8815 2.74014 26.9695 2.48683C27.3411 2.78793 27.703 3.11771 28.0504 3.48094ZM22.3759 4.6949C23.6787 4.22175 25.0153 3.87763 26.3519 3.67212C25.1987 2.68279 23.8669 1.98022 22.3759 1.81772V4.6949ZM13.3236 8.96289L14.6554 9.72281C16.489 7.8015 18.6652 6.28644 21.0586 5.22064V1.81294C17.483 2.20485 14.8436 5.6221 13.3236 8.95811V8.96289ZM11.4756 10.0048C11.4128 10.1721 11.3501 10.3393 11.2922 10.5114H5.35709C7.94344 6.63055 11.876 3.75337 16.4649 2.49161C14.7519 3.88241 13.2995 5.90409 12.1849 8.31289C11.6589 8.01179 11.0654 8.48973 11.215 9.03936L11.4804 10.0048H11.4756ZM21.0634 17.8095L14.7712 19.4632C14.3948 19.5683 14.0378 19.3628 13.9413 19.0091L12.1028 12.2893C11.3356 14.9132 10.9448 17.7235 10.8917 20.5433H21.0634V17.8095ZM25.879 11.8162C24.7499 12.5379 23.698 13.3886 22.7571 14.3588L24.9863 15.6349C25.4882 15.9217 25.3965 16.6768 24.8271 16.825L22.3807 17.4654V20.5385H32.5524C32.4993 17.5467 32.0554 14.5643 31.2013 11.8114H25.879V11.8162ZM30.4437 9.72759C29.7199 9.94266 29.0058 10.2055 28.311 10.5114H30.7526C30.6561 10.2438 30.5499 9.98568 30.4437 9.72759ZM37.0737 9.12539C35.3173 8.9151 33.4933 9.01546 31.7273 9.39781C31.872 9.76105 32.012 10.1291 32.1471 10.5114H38.087C37.7685 10.0335 37.4308 9.57465 37.0737 9.12539ZM41.1076 7.50518C41.9424 8.24598 42.6855 9.08715 43.3176 10.0191C43.7036 10.5927 43.0329 11.2952 42.4346 10.9368C41.3489 10.282 40.1812 9.80406 38.97 9.48862C41.3489 12.9202 42.6324 16.9636 42.6324 21.1981C42.6324 32.5443 33.3727 41.9119 21.7196 41.9119C19.6689 41.9119 17.6857 41.6156 15.8038 41.0708C13.9075 40.5163 12.1221 39.7039 10.4912 38.6763C7.39819 38.1362 4.54644 36.8601 2.32681 34.891C1.49204 34.1502 0.748945 33.309 0.116833 32.3771C-0.26919 31.8035 0.401525 31.101 0.99986 31.4594C2.08555 32.1142 3.25327 32.5921 4.46441 32.9076C2.08555 29.476 0.802023 25.4326 0.802023 21.1981C0.806849 9.85185 10.0666 0.479492 21.7196 0.479492C23.7704 0.479492 25.7536 0.775814 27.6354 1.32066C29.5318 1.87507 31.3171 2.68756 32.9481 3.71513C36.0411 4.2552 38.8928 5.5313 41.1124 7.5004H41.1076V7.50518ZM40.2921 8.52319C37.59 7.6151 34.6514 7.49562 31.7948 8.05481C27.7512 8.84818 23.9489 10.9893 21.2275 14.0864C20.9572 14.397 21.0344 14.8702 21.3915 15.0757L22.9501 15.9695L15.0366 18.0485L12.8942 10.2246L14.4528 11.1136C14.7181 11.2618 15.0607 11.2188 15.2682 10.9846C16.3346 9.80884 17.512 8.80517 18.7714 7.96878C19.7799 7.29489 20.8366 6.73092 21.9271 6.2721C21.9609 6.26254 21.9898 6.2482 22.0236 6.23386C23.8958 5.45483 25.8597 4.98167 27.8091 4.80961C27.8333 4.80961 27.8526 4.80961 27.8767 4.80483C28.6391 4.73792 29.3967 4.7188 30.1494 4.7427C33.8359 4.86218 37.5321 6.07136 40.2342 8.48017L40.2873 8.52797V8.51841L40.2921 8.52319Z" fill="white"/>
</svg>
