<svg width="28" height="36" viewBox="0 0 28 36" fill="none" xmlns="http://www.w3.org/2000/svg">
<path d="M26.9068 7.18844L20.9674 1.23362C20.4894 0.754407 19.8391 0.487305 19.1652 0.487305H4.38716C2.11482 0.487305 0.273438 2.33345 0.273438 4.61168V31.7422C0.273438 34.0205 2.11482 35.8627 4.38716 35.8666H23.5375C25.8098 35.8666 27.6473 34.0205 27.6512 31.7422V8.99138C27.6512 8.31577 27.3848 7.66372 26.9068 7.18451V7.18844ZM25.6923 31.7422C25.6923 32.9363 24.7285 33.9026 23.5375 33.9026H4.38716C3.19614 33.9026 2.23235 32.9363 2.23235 31.7422V4.61168C2.23235 3.41758 3.19614 2.45129 4.38716 2.45129H19.1652C19.3219 2.45129 19.4708 2.51414 19.5805 2.62413L25.5199 8.57894C25.6296 8.68893 25.6923 8.83819 25.6923 8.99531V31.7422Z" fill="white"/>
<path d="M11.0906 15.3154H7.12572C6.58506 15.3154 6.14626 15.7554 6.14626 16.2974C6.14626 16.8395 6.58506 17.2794 7.12572 17.2794H9.13556V18.1554C9.13556 18.6974 9.57436 19.1373 10.115 19.1373C10.6557 19.1373 11.0945 18.6974 11.0945 18.1554V17.2794C12.7478 17.2794 14.0838 15.936 14.0838 14.2784C14.0838 12.6208 12.7439 11.2814 11.0906 11.2814H9.30011C8.72811 11.2735 8.27364 10.8022 8.28539 10.2287C8.29323 9.67092 8.73986 9.22313 9.29619 9.21135H12.7517C13.2924 9.21135 13.7312 8.77141 13.7312 8.22935C13.7312 7.68729 13.2924 7.24736 12.7517 7.24736H11.0945V6.37535C11.0945 5.83328 10.6557 5.39335 10.115 5.39335C9.57436 5.39335 9.13556 5.83328 9.13556 6.37535V7.25521C7.48616 7.34556 6.2207 8.7557 6.31081 10.4094C6.397 12.0002 7.70947 13.2493 9.30011 13.2454H11.0906C11.6586 13.2336 12.1327 13.6892 12.1405 14.2588C12.1523 14.8284 11.6978 15.3036 11.1297 15.3115C11.118 15.3115 11.1023 15.3115 11.0906 15.3115V15.3154Z" fill="white"/>
<path d="M20.8029 22.1108H7.1218C6.58114 22.1108 6.14234 22.5508 6.14234 23.0928C6.14234 23.6349 6.58114 24.0748 7.1218 24.0748H20.8029C21.3435 24.0748 21.7823 23.6349 21.7823 23.0928C21.7823 22.5508 21.3435 22.1108 20.8029 22.1108Z" fill="white"/>
<path d="M20.8029 27.9989H7.1218C6.58114 27.9989 6.14234 28.4388 6.14234 28.9809C6.14234 29.5229 6.58114 29.9629 7.1218 29.9629H20.8029C21.3435 29.9629 21.7823 29.5229 21.7823 28.9809C21.7823 28.4388 21.3435 27.9989 20.8029 27.9989Z" fill="white"/>
</svg>
