<svg width="34" height="48" viewBox="0 0 34 48" fill="none" xmlns="http://www.w3.org/2000/svg">
<path d="M32.3355 42.3006H26.6199C26.5672 42.2477 26.5144 42.189 26.4558 42.142L22.5927 38.9284C26.2741 36.4432 28.3727 32.2837 28.2203 27.666C28.062 22.872 25.5003 18.595 21.5199 16.4153C21.3734 15.0288 20.2303 13.9478 18.8175 13.9126L19.5679 12.0091C19.8082 11.3981 19.7144 10.7695 19.3686 10.3171L22.1296 5.1001C22.1824 5.10597 22.2351 5.11772 22.282 5.11772C22.3875 5.11772 22.4989 5.1001 22.6044 5.07072C22.8858 4.98847 23.1144 4.7946 23.2492 4.5361L23.5717 3.93097C23.853 3.39635 23.6537 2.73247 23.1203 2.45047L19.7027 0.629223C19.4448 0.494098 19.1517 0.464723 18.8703 0.546973C18.5889 0.629223 18.3603 0.823098 18.2255 1.0816L17.903 1.68672C17.6803 2.10385 17.7624 2.60322 18.0672 2.93222L15.3296 8.09635C14.7141 7.9906 14.0634 8.26672 13.6648 8.8601L11.0503 12.7611C11.0503 12.7611 11.021 12.814 11.0034 12.8433L9.17442 17.326C8.91649 17.9663 9.02787 18.6302 9.42063 19.0826L7.33959 23.013C7.26925 23.013 7.19304 23.0306 7.1227 23.0482C6.88235 23.1246 6.68304 23.2891 6.55994 23.5123L6.30787 23.9823C6.06166 24.4465 6.23752 25.0222 6.70063 25.2748L9.89546 26.9727C10.0361 27.0432 10.1886 27.0843 10.341 27.0843C10.4348 27.0843 10.5286 27.0726 10.6224 27.0432C10.8627 26.9668 11.062 26.8023 11.1851 26.5791L11.4372 26.1091C11.5955 25.8095 11.5779 25.457 11.4137 25.1808L13.5006 21.2446C13.5592 21.2505 13.6179 21.2681 13.6765 21.2681C14.0048 21.2681 14.3213 21.1506 14.6086 20.9508C15.5465 22.2845 17.0355 22.9483 19.1517 22.966C20.7755 23.4653 22.0944 25.3395 22.3582 27.5426C22.6161 29.6517 21.8424 31.473 20.2889 32.46C18.8468 32.0605 17.3872 32.3718 15.9392 33.3706L13.7468 31.5435C13.2017 31.0911 12.463 30.9971 11.8182 31.2967C11.6717 31.3672 11.5368 31.4553 11.4196 31.5552L3.00166 27.6953C2.4858 27.4603 1.87028 27.6836 1.62994 28.2065L0.674422 30.298C0.55718 30.5506 0.551318 30.8326 0.645111 31.0911C0.738904 31.3496 0.932353 31.5552 1.18442 31.6727L10.7689 36.0672V42.2947H4.08028C3.43546 42.2947 2.91373 42.8176 2.91373 43.4638V46.3132C2.91373 46.9595 3.43546 47.4823 4.08028 47.4823H32.3413C32.9861 47.4823 33.5079 46.9595 33.5079 46.3132V43.4638C33.5079 42.8176 32.9861 42.2947 32.3413 42.2947L32.3355 42.3006ZM20.6172 16.7032C20.6172 17.7313 19.7848 18.5656 18.7589 18.5656C17.733 18.5656 16.9006 17.7313 16.9006 16.7032C16.9006 15.6751 17.733 14.8408 18.7589 14.8408C19.7848 14.8408 20.6172 15.6751 20.6172 16.7032ZM16.1972 8.47235L18.8644 3.43747L21.2796 4.7241L18.6124 9.75897L16.971 8.8836L16.1972 8.47235ZM18.7355 2.12735L19.0579 1.52222C19.0813 1.47522 19.1282 1.45172 19.1517 1.44585C19.1634 1.44585 19.181 1.43997 19.1986 1.43997C19.222 1.43997 19.2455 1.43997 19.2689 1.4576L22.6982 3.28472C22.7686 3.32585 22.8037 3.41985 22.7627 3.49622L22.4403 4.10135C22.4168 4.14835 22.3699 4.17185 22.3465 4.17772C22.323 4.1836 22.2761 4.19535 22.2292 4.16597L21.5903 3.8311L18.8879 2.39172L18.7941 2.34472C18.7237 2.3036 18.6886 2.2096 18.7296 2.13322L18.7355 2.12735ZM10.0479 17.6902L11.8592 13.2487L14.4444 9.38885C14.632 9.10685 14.9955 8.89535 15.3413 9.07747L18.4599 10.7342C18.8058 10.9163 18.8292 11.3452 18.7061 11.6566L17.7448 14.1006C16.7072 14.5118 15.9686 15.5165 15.9686 16.7032C15.9686 16.9382 16.0037 17.1615 16.0624 17.3788L14.3155 19.9521C14.1279 20.2341 13.7644 20.4456 13.4127 20.2635L11.8534 19.4351L10.2941 18.6067C9.94235 18.4187 9.9189 18.0016 10.0479 17.6902ZM10.3586 26.1443C10.3586 26.1443 10.3468 26.1561 10.341 26.1443L7.14614 24.4465C7.14614 24.4465 7.13442 24.4347 7.14614 24.4288L7.39821 23.9588C7.39821 23.9588 7.40994 23.9471 7.4158 23.9588L9.36201 24.9928L10.6048 25.6567C10.6048 25.6567 10.6165 25.6685 10.6106 25.6743L10.3586 26.1443ZM10.6575 24.6168L9.98925 24.2585L8.24235 23.3302L10.212 19.6172L12.6272 20.9038L10.6575 24.6168ZM20.201 33.4235C20.3241 33.4646 20.4648 33.4528 20.5761 33.3823C22.581 32.2308 23.5951 30.0101 23.2786 27.4368C22.962 24.8401 21.3441 22.6252 19.3392 22.0495C19.2982 22.0377 19.2572 22.0318 19.2103 22.0318C17.2758 22.0318 16.0096 21.4443 15.2475 20.2282L16.5079 18.3658C17.0179 19.0532 17.8268 19.5056 18.7472 19.5056C20.031 19.5056 21.1037 18.6302 21.432 17.4435C24.9141 19.5173 27.1358 23.3772 27.2765 27.6895C27.4172 32.0722 25.383 36.0085 21.8306 38.2938L16.672 33.9992C17.8737 33.2355 19.0286 33.0416 20.1951 33.4235H20.201ZM12.2168 32.1545C12.3399 32.0957 12.4689 32.0663 12.5979 32.0663C12.7913 32.0663 12.9848 32.1368 13.1489 32.272L25.8579 42.8587C26.151 43.0996 26.2506 43.4756 26.1217 43.8281C25.9927 44.1806 25.682 44.4038 25.301 44.4038L12.592 44.4273C12.3458 44.4273 12.1524 44.3451 11.9765 44.1688C11.8006 43.9926 11.7186 43.7987 11.7186 43.552V32.9417C11.7186 32.5892 11.9003 32.3013 12.2227 32.1486L12.2168 32.1545ZM1.57718 30.8208C1.54787 30.8091 1.53615 30.7856 1.53028 30.768C1.52442 30.7503 1.51856 30.7268 1.53028 30.6975L2.4858 28.606C2.50925 28.559 2.56787 28.5355 2.6089 28.559L10.8803 32.3483C10.8158 32.5363 10.7748 32.7361 10.7748 32.9476V35.0391L1.57718 30.8208ZM32.5641 46.3191C32.5641 46.4425 32.4586 46.5482 32.3355 46.5482H4.07442C3.95132 46.5482 3.8458 46.4425 3.8458 46.3191V43.4697C3.8458 43.3463 3.95132 43.2406 4.07442 43.2406H10.7748V43.5578C10.7748 44.0513 10.9565 44.492 11.3082 44.8445C11.6541 45.1911 12.0996 45.3732 12.5861 45.3732L25.2951 45.3497C26.0689 45.3497 26.7372 44.8797 26.9951 44.1512C27.1006 43.8457 27.1241 43.5402 27.0772 43.2406H32.3296C32.4527 43.2406 32.5582 43.3463 32.5582 43.4697V46.3191H32.5641Z" fill="white"/>
</svg>
