<svg width="80" height="79" viewBox="0 0 80 79" fill="none" xmlns="http://www.w3.org/2000/svg">
<rect x="0.72998" width="78.54" height="78.54" rx="12" fill="#00C857"/>
<path d="M73.54 40.46C72.53 46.86 64.8 67.64 53.02 62.31C49.37 59.6 46.56 57.5 44.1 56.03C44.86 55.7 45.82 55.26 46.36 54.89C51.14 51.68 54.32 48.32 55.87 43.59C58.21 47.02 61.8 49.82 66.16 51.6C61.26 46.9 58.31 40.85 58.31 34.25C58.31 29.24 60.05 24.58 63.01 20.55C63.19 20.96 63.38 21.38 63.57 21.82C66.91 28.1 74.55 34.06 73.54 40.46ZM23.08 43.59C20.74 47.02 17.15 49.82 12.79 51.6C17.68 46.9 20.63 40.85 20.63 34.25H20.64C20.64 30.17 19.49 26.3 17.47 22.83C16 24.42 14.63 25.81 13.84 26.4C6.31999 32.11 2.29999 40.46 10.72 54.14C12.88 58.98 16.49 61.13 21.81 59.11C25.92 56.8 29.07 55.23 31.74 54.34C30.53 53.55 29.39 52.69 29.39 52.69C26.45 50.14 24.22 47.05 23.08 43.58V43.59ZM53.68 64.7L53.58 64.8C52.38 66.4 53.01 69.99 55.09 71.01C57.36 71.93 61.72 67.02 60.3 65.03C59.07 63.54 55.1 63.51 53.68 64.71V64.7ZM39.11 37.66C37.72 39.93 37.23 43.68 37.9 47.85C38.08 47.91 38.27 47.94 38.47 47.95C38.79 47.97 39.12 47.93 39.44 47.85C38.71 44.14 38.63 40.62 39.12 37.66H39.11ZM44.64 54.08C44.09 54.72 43.71 55.24 43.44 55.64C42.77 55.26 42.12 54.93 41.48 54.65C40.84 53.13 40.29 51.5 39.85 49.77C39.7 49.13 39.56 48.5 39.44 47.87C42.12 47.21 44.4 43.14 44.76 38.07C45.16 32.4 39.92 27.41 39.92 27.41C39.92 27.41 34.03 31.63 33.63 37.3C33.26 42.62 35.14 47.15 37.9 47.87C38.02 48.62 38.16 49.37 38.35 50.14C38.7 51.52 39.16 52.8 39.68 53.98C37.92 53.46 36.19 53.36 34.26 53.7C32.85 52.36 32.2 51.37 32.2 51.37C29.84 47.86 28.31 43.96 27.89 39.79C27.19 32.9 29.61 26.48 34.17 21.44C30.34 23.2 27.22 25.8 25.12 28.9C24.03 25.82 21.99 23.07 19.3 20.82C20.9 19.04 22.39 17.31 23.2 16.35C27.17 12.45 29.52 8.75 35.39 9.52C38.57 9.92 42.97 14.06 45.77 14.83C54.59 15.74 52.07 -3.52 62.27 18.95C58.27 21.45 55.25 24.9 53.81 28.92C51.71 25.8 48.59 23.22 44.76 21.46C49.34 26.5 51.74 32.92 51.04 39.81C50.5 45.09 48.05 50.11 44.62 54.1L44.64 54.08ZM49.74 21.44C49.74 23.16 51.14 24.55 52.88 24.55C54.62 24.55 56.02 23.16 56.02 21.44C56.02 19.72 54.62 18.33 52.88 18.33C51.14 18.33 49.74 19.72 49.74 21.44ZM29.2 21.44C29.2 19.72 27.8 18.33 26.06 18.33C24.32 18.33 22.92 19.72 22.92 21.44C22.92 23.16 24.32 24.55 26.06 24.55C27.8 24.55 29.2 23.16 29.2 21.44Z" fill="white"/>
</svg>
