<svg width="82" height="82" viewBox="0 0 82 82" fill="none" xmlns="http://www.w3.org/2000/svg">
<path d="M80.959 26.43C80.729 26.16 80.389 26 80.039 26H76.639L70.529 13.78C71.379 12.99 71.919 11.87 71.919 10.62C71.919 8.24002 69.979 6.30002 67.599 6.30002C66.049 6.30002 64.689 7.13002 63.919 8.36002C59.939 7.41002 52.909 6.08002 44.389 5.97002L44.319 1.71002C44.309 1.05002 43.769 0.52002 43.109 0.52002H38.129C37.469 0.52002 36.929 1.05002 36.919 1.71002L36.849 5.97002C28.329 6.09002 21.299 7.41002 17.319 8.36002C16.559 7.13002 15.199 6.30002 13.639 6.30002C11.259 6.30002 9.31903 8.24002 9.31903 10.62C9.31903 11.87 9.85903 13 10.709 13.78L4.59903 26H1.20903C0.849031 26 0.509031 26.16 0.289031 26.43C0.0590313 26.7 -0.0409687 27.06 0.0190313 27.41L1.01903 33.4C1.33903 35.33 2.98903 36.72 4.93903 36.72H22.379C24.329 36.72 25.979 35.32 26.299 33.4L27.299 27.41C27.359 27.06 27.259 26.7 27.029 26.43C26.799 26.16 26.459 26 26.109 26H22.709L16.599 13.78C17.439 13.01 17.959 11.91 17.979 10.69C21.849 9.77002 28.619 8.50002 36.819 8.38002L36.319 39.67C26.649 41.67 19.359 50.24 19.359 60.49C19.359 72.21 28.899 81.75 40.619 81.75C52.339 81.75 61.879 72.21 61.879 60.49C61.879 50.24 54.589 41.66 44.919 39.67L44.419 8.38002C52.619 8.50002 59.399 9.77002 63.259 10.69C63.279 11.91 63.809 13.01 64.639 13.78L58.529 26H55.129C54.769 26 54.429 26.16 54.209 26.43C53.979 26.7 53.879 27.06 53.939 27.41L54.939 33.4C55.259 35.33 56.909 36.72 58.859 36.72H76.299C78.249 36.72 79.899 35.32 80.219 33.4L81.219 27.41C81.279 27.06 81.179 26.7 80.949 26.43H80.929H80.959ZM13.649 8.71002C14.699 8.71002 15.549 9.56002 15.549 10.61C15.549 11.66 14.699 12.51 13.649 12.51C12.599 12.51 11.749 11.66 11.749 10.61C11.749 9.56002 12.599 8.71002 13.649 8.71002ZM23.899 33C23.779 33.75 23.129 34.3 22.359 34.3H4.92903C4.15903 34.3 3.51903 33.75 3.38903 33L2.61903 28.42H24.659L23.889 33H23.899ZM19.989 26H7.30903L12.879 14.86C13.129 14.91 13.389 14.93 13.649 14.93C13.909 14.93 14.169 14.9 14.419 14.86L19.989 26ZM39.489 41.69L39.629 43.68C39.649 43.95 39.549 44.21 39.359 44.39L37.609 46.07C37.399 46.28 37.109 46.4 36.809 46.42L35.299 46.51C33.929 46.59 32.759 47.52 32.369 48.84L32.079 49.85C31.789 50.84 32.119 51.92 32.909 52.58L35.029 54.37C35.139 54.47 35.229 54.59 35.289 54.73L35.969 56.45C36.069 56.7 36.039 56.98 35.889 57.2L34.979 58.57C34.859 58.75 34.679 58.87 34.469 58.92L31.699 59.49C31.499 59.53 31.289 59.5 31.109 59.41L29.799 58.73C28.759 58.19 27.509 58.26 26.539 58.9L24.679 60.13C24.459 60.28 24.179 60.32 23.919 60.24L21.809 59.6C22.259 49.99 29.929 42.25 39.509 41.68L39.489 41.69ZM40.609 79.34C39.979 79.34 39.349 79.31 38.739 79.25L39.509 77.95C40.179 76.82 40.049 75.38 39.189 74.39L37.329 72.23C37.209 72.09 37.139 71.93 37.119 71.75L36.909 70.03C36.879 69.78 36.949 69.53 37.119 69.34L39.509 66.52C39.639 66.36 39.829 66.25 40.039 66.22L42.679 65.74C43.899 65.52 44.859 64.59 45.129 63.37L46.019 59.26C46.069 59.03 46.219 58.83 46.419 58.72L48.729 57.42C48.949 57.3 49.209 57.28 49.439 57.38L52.159 58.49C52.369 58.58 52.529 58.78 52.559 59L52.799 60.77C52.829 60.98 52.779 61.21 52.659 61.39L51.869 62.58C51.399 63.29 51.259 64.17 51.479 64.99L51.679 65.72C51.979 66.85 53.019 67.65 54.189 67.65H55.399C55.649 67.66 55.909 67.72 56.129 67.84L57.649 68.63C54.609 74.96 48.129 79.34 40.649 79.34H40.609ZM59.459 60.49C59.459 62.54 59.119 64.52 58.509 66.37L57.209 65.69C56.639 65.39 56.009 65.24 55.369 65.23H54.159C54.069 65.23 53.999 65.16 53.969 65.08L53.769 64.35C53.729 64.2 53.749 64.03 53.839 63.9L54.629 62.71C55.079 62.04 55.259 61.23 55.149 60.43L54.909 58.66C54.759 57.57 54.039 56.64 53.029 56.23L50.309 55.12C49.389 54.74 48.369 54.81 47.509 55.3L45.199 56.6C44.389 57.05 43.819 57.83 43.619 58.74L42.729 62.85C42.679 63.11 42.469 63.3 42.209 63.35L39.569 63.83C38.819 63.97 38.129 64.37 37.629 64.95L35.239 67.77C34.639 68.47 34.359 69.4 34.479 70.32L34.689 72.04C34.769 72.7 35.039 73.31 35.469 73.81L37.329 75.97C37.509 76.18 37.539 76.48 37.399 76.72L36.169 78.81C28.429 76.94 22.539 70.28 21.829 62.15L23.179 62.56C23.499 62.66 23.819 62.7 24.139 62.7C24.779 62.7 25.409 62.51 25.959 62.15L27.819 60.92C28.069 60.76 28.379 60.74 28.639 60.88L29.949 61.56C30.619 61.91 31.399 62.01 32.139 61.86L34.909 61.29C35.749 61.12 36.469 60.63 36.949 59.91L37.859 58.54C38.449 57.66 38.569 56.55 38.179 55.56L37.499 53.83C37.299 53.32 36.969 52.86 36.549 52.51L34.429 50.72C34.369 50.67 34.349 50.59 34.369 50.51L34.659 49.5C34.759 49.17 35.049 48.93 35.399 48.91L36.909 48.82C37.789 48.77 38.609 48.41 39.249 47.8L40.999 46.11C41.709 45.42 42.079 44.46 42.009 43.48L41.879 41.68C51.669 42.35 59.419 50.52 59.419 60.47L59.459 60.49ZM40.609 39.23C39.979 39.23 39.349 39.26 38.729 39.32L39.309 2.93002H41.909L42.489 39.32C41.869 39.27 41.239 39.23 40.609 39.23ZM67.579 8.71002C68.629 8.71002 69.479 9.56002 69.479 10.61C69.479 11.66 68.629 12.51 67.579 12.51C66.529 12.51 65.679 11.66 65.679 10.61C65.679 9.56002 66.529 8.71002 67.579 8.71002ZM66.809 14.86C67.059 14.91 67.319 14.93 67.579 14.93C67.839 14.93 68.099 14.9 68.349 14.86L73.919 26H61.239L66.809 14.86ZM77.839 33C77.719 33.75 77.069 34.3 76.299 34.3H58.859C58.089 34.3 57.449 33.75 57.319 33L56.549 28.42H78.589L77.819 33H77.839Z" fill="#00C857"/>
</svg>
