<svg width="83" height="82" viewBox="0 0 83 82" fill="none" xmlns="http://www.w3.org/2000/svg">
<g clip-path="url(#clip0_47_1452)">
<path d="M64.1098 37.51C59.4298 37.51 55.4598 40.64 54.0798 44.97L45.8098 42.48C46.0698 41.54 46.2198 40.55 46.2198 39.53C46.2198 39.3 46.1998 39.08 46.1898 38.85L47.0398 38.71C47.3098 38.67 47.4998 38.41 47.4498 38.14C47.4098 37.87 47.1498 37.68 46.8698 37.73L46.0798 37.86C45.9098 36.77 45.5898 35.73 45.1298 34.77L55.1198 28.17C56.6998 30.21 59.1598 31.53 61.9398 31.53C66.7098 31.53 70.5698 27.65 70.5698 22.87C70.5698 18.09 66.6998 14.21 61.9398 14.21C57.1798 14.21 53.3098 18.09 53.3098 22.87C53.3098 24.51 53.7698 26.04 54.5598 27.35L44.6598 33.89C43.3398 31.68 41.2698 29.98 38.7998 29.19L40.0698 23.52C40.6698 23.63 41.2798 23.69 41.8998 23.69C47.7798 23.69 52.5498 18.8 52.5498 12.77C52.5498 6.73999 47.7898 1.83999 41.9098 1.83999C36.0298 1.83999 31.2598 6.72999 31.2598 12.76C31.2598 17.79 34.5798 22.02 39.0998 23.29L37.8398 28.93C37.1398 28.78 36.4098 28.7 35.6598 28.7C34.5398 28.7 33.4698 28.88 32.4598 29.21L22.3398 7.07999C23.1798 6.46999 23.7298 5.47999 23.7298 4.35999C23.7298 2.49999 22.2198 0.98999 20.3698 0.98999C18.5198 0.98999 17.0098 2.49999 17.0098 4.35999C17.0098 6.21999 18.5198 7.72999 20.3698 7.72999C20.7498 7.72999 21.0998 7.64999 21.4398 7.53999L31.5098 29.57C29.9198 30.26 28.5398 31.35 27.4598 32.7L20.8398 25.38C20.8398 25.38 20.8398 25.38 20.8298 25.38C22.3898 23.81 23.3498 21.65 23.3498 19.27C23.3498 14.49 19.4798 10.61 14.7198 10.61C9.95977 10.61 6.08977 14.49 6.08977 19.27C6.08977 24.05 9.95977 27.93 14.7198 27.93C16.7498 27.93 18.6198 27.22 20.0898 26.04C20.0898 26.04 20.0898 26.05 20.0998 26.06L26.8298 33.5C26.8298 33.5 26.8598 33.52 26.8698 33.53C25.7698 35.21 25.1298 37.23 25.0998 39.39H8.15977C7.90977 37.36 6.19977 35.78 4.10977 35.78C1.84977 35.78 0.00976562 37.63 0.00976562 39.89C0.00976562 42.15 1.84977 44 4.10977 44C6.19977 44 7.90977 42.42 8.15977 40.39H25.1498C25.3198 42.64 26.1498 44.7 27.4598 46.35L21.1598 51.27C19.2498 49.32 16.6198 48.12 13.7098 48.12C7.86977 48.12 3.13977 52.97 3.13977 58.96C3.13977 64.95 7.86977 69.8 13.7098 69.8C19.5498 69.8 24.2798 64.95 24.2798 58.96C24.2798 56.32 23.3598 53.9 21.8298 52.02L28.1198 47.11C29.2398 48.29 30.6198 49.2 32.1698 49.75L29.9898 57.5C29.8598 57.48 29.7198 57.46 29.5898 57.46C27.7398 57.46 26.2298 58.97 26.2298 60.83C26.2298 62.69 27.7398 64.2 29.5898 64.2C31.4398 64.2 32.9498 62.69 32.9498 60.83C32.9498 59.46 32.1298 58.29 30.9598 57.76L33.1298 50.05C33.8698 50.24 34.6398 50.35 35.4298 50.37V51.11C35.4298 51.39 35.6498 51.61 35.9198 51.61C36.1898 51.61 36.4198 51.39 36.4198 51.11V50.34C37.2598 50.28 38.0698 50.13 38.8398 49.88L43.5998 60.49C41.0198 61.99 39.2798 64.78 39.2798 67.98C39.2798 72.76 43.1498 76.64 47.9098 76.64C52.6698 76.64 56.5398 72.76 56.5398 67.98C56.5398 63.2 52.6698 59.32 47.9098 59.32C46.6898 59.32 45.5398 59.58 44.4798 60.03L39.7698 49.52C41.1098 48.94 42.3098 48.07 43.2998 47.01L43.6998 47.43C43.7998 47.53 43.9298 47.58 44.0598 47.58C44.1898 47.58 44.3098 47.53 44.4098 47.44C44.6098 47.25 44.6098 46.93 44.4198 46.73L43.9498 46.24C44.5998 45.4 45.1198 44.46 45.5098 43.44L53.8298 45.94C53.6598 46.71 53.5598 47.52 53.5598 48.34C53.5598 54.32 58.2898 59.17 64.1198 59.17C69.9498 59.17 74.6798 54.32 74.6798 48.34C74.6798 42.36 69.9498 37.51 64.1198 37.51H64.1098ZM57.0198 28.72C57.0198 28.72 57.0298 28.69 57.0298 28.67C57.0298 25.99 59.1498 23.96 61.9598 23.96C64.5798 23.96 66.4398 25.8 66.8298 28.76C65.5098 29.87 63.7998 30.54 61.9498 30.54C60.0998 30.54 58.3598 29.86 57.0298 28.73L57.0198 28.72ZM61.9598 22.9C60.5598 22.9 59.4298 21.76 59.4298 20.36C59.4298 18.96 60.5598 17.82 61.9598 17.82C63.3598 17.82 64.4898 18.96 64.4898 20.36C64.4898 21.76 63.3598 22.9 61.9598 22.9ZM61.9398 15.21C66.1498 15.21 69.5698 18.65 69.5698 22.87C69.5698 24.8 68.8498 26.56 67.6698 27.91C67.1698 25.62 65.8098 23.97 63.9198 23.3C64.8598 22.66 65.4798 21.59 65.4798 20.36C65.4798 18.41 63.8998 16.82 61.9498 16.82C59.9998 16.82 58.4198 18.41 58.4198 20.36C58.4198 21.57 59.0298 22.64 59.9598 23.28C57.9198 23.96 56.4198 25.67 56.0998 27.8C54.9798 26.47 54.2998 24.75 54.2998 22.87C54.2998 18.65 57.7198 15.21 61.9298 15.21H61.9398ZM35.6398 20.47C35.6698 16.46 38.3898 13.21 41.7398 13.21C45.0898 13.21 47.8498 16.49 47.8498 20.53C47.8498 20.59 47.8598 20.64 47.8798 20.7C46.2198 22.02 44.1498 22.82 41.8998 22.82C39.5198 22.82 37.3298 21.94 35.6398 20.48V20.47ZM41.7498 11.91C39.7798 11.91 38.1898 10.31 38.1898 8.33999C38.1898 6.36999 39.7898 4.76999 41.7498 4.76999C43.7098 4.76999 45.3098 6.36999 45.3098 8.33999C45.3098 10.31 43.7098 11.91 41.7498 11.91ZM32.1398 12.77C32.1398 7.22999 36.5198 2.72999 41.9098 2.72999C47.2998 2.72999 51.6798 7.23999 51.6798 12.77C51.6798 15.6 50.5298 18.15 48.6998 19.98C48.4898 16.29 46.1898 13.26 43.1798 12.52C44.9198 11.92 46.1798 10.28 46.1798 8.33999C46.1798 5.88999 44.1998 3.89999 41.7498 3.89999C39.2998 3.89999 37.3198 5.88999 37.3198 8.33999C37.3198 10.29 38.5798 11.92 40.3198 12.52C37.3998 13.24 35.1398 16.12 34.8198 19.66C33.1598 17.86 32.1398 15.44 32.1398 12.77ZM18.0198 4.36999C18.0198 3.06999 19.0798 1.99999 20.3798 1.99999C21.6798 1.99999 22.7398 3.05999 22.7398 4.36999C22.7398 5.67999 21.6798 6.73999 20.3798 6.73999C19.0798 6.73999 18.0198 5.67999 18.0198 4.36999ZM7.08977 19.26C7.08977 15.04 10.5098 11.6 14.7198 11.6C18.9298 11.6 22.3498 15.04 22.3498 19.26C22.3498 21.15 21.6598 22.87 20.5298 24.21C19.9898 22.03 18.6498 20.46 16.8198 19.82C17.7598 19.18 18.3798 18.11 18.3798 16.88C18.3798 14.93 16.7998 13.34 14.8498 13.34C12.8998 13.34 11.3198 14.93 11.3198 16.88C11.3198 18.09 11.9298 19.16 12.8598 19.8C10.8098 20.48 9.31977 22.19 8.98977 24.33C7.79977 22.98 7.06977 21.21 7.06977 19.27L7.08977 19.26ZM14.8698 19.41C13.4698 19.41 12.3398 18.27 12.3398 16.87C12.3398 15.47 13.4698 14.33 14.8698 14.33C16.2698 14.33 17.3998 15.47 17.3998 16.87C17.3998 18.27 16.2698 19.41 14.8698 19.41ZM9.92977 25.21C9.92977 25.21 9.92977 25.19 9.92977 25.17C9.92977 22.49 12.0498 20.46 14.8598 20.46C17.4198 20.46 19.2398 22.22 19.6898 25.05C18.3498 26.2 16.6198 26.91 14.7198 26.91C12.8198 26.91 11.2398 26.27 9.92977 25.2V25.21ZM7.51977 66.62C7.59977 62.66 10.2998 59.47 13.6198 59.47C16.9398 59.47 19.6998 62.73 19.7298 66.74C18.0698 68.1 15.9798 68.91 13.6998 68.91C11.4198 68.91 9.19977 68.05 7.51977 66.62ZM13.6198 58.17C11.6498 58.17 10.0598 56.57 10.0598 54.6C10.0598 52.63 11.6598 51.03 13.6198 51.03C15.5798 51.03 17.1798 52.63 17.1798 54.6C17.1798 56.57 15.5798 58.17 13.6198 58.17ZM20.5498 65.99C20.2498 62.41 17.9898 59.5 15.0498 58.78C16.7898 58.18 18.0498 56.54 18.0498 54.6C18.0498 52.15 16.0698 50.16 13.6198 50.16C11.1698 50.16 9.18976 52.15 9.18976 54.6C9.18976 56.55 10.4498 58.18 12.1898 58.78C9.28976 59.49 7.04977 62.33 6.69977 65.83C5.02977 64.04 3.99977 61.62 3.99977 58.95C3.99977 53.45 8.34977 48.98 13.6998 48.98C19.0498 48.98 23.3998 53.45 23.3998 58.95C23.3998 61.7 22.3098 64.19 20.5598 65.99H20.5498ZM31.9298 60.81C31.9298 62.11 30.8698 63.18 29.5698 63.18C28.2698 63.18 27.2098 62.12 27.2098 60.81C27.2098 59.5 28.2698 58.44 29.5698 58.44C30.8698 58.44 31.9298 59.5 31.9298 60.81ZM42.9098 73.77C42.9398 71.11 45.0398 69.11 47.8298 69.11C50.4598 69.11 52.3098 70.95 52.6998 73.92C51.3898 74.99 49.7098 75.64 47.8898 75.64C46.0698 75.64 44.2398 74.93 42.8998 73.77H42.9098ZM47.8398 68.06C46.4498 68.06 45.3098 66.92 45.3098 65.52C45.3098 64.12 46.4398 62.98 47.8398 62.98C49.2398 62.98 50.3698 64.12 50.3698 65.52C50.3698 66.92 49.2398 68.06 47.8398 68.06ZM55.5298 67.98C55.5298 69.95 54.7798 71.74 53.5598 73.1C53.0698 70.79 51.6998 69.13 49.7998 68.46C50.7398 67.82 51.3598 66.74 51.3598 65.52C51.3598 63.57 49.7798 61.98 47.8298 61.98C45.8798 61.98 44.2998 63.57 44.2998 65.52C44.2998 66.73 44.9098 67.8 45.8398 68.44C43.8298 69.11 42.3498 70.77 41.9898 72.84C40.9098 71.52 40.2598 69.83 40.2598 67.98C40.2598 63.76 43.6798 60.32 47.8898 60.32C52.0998 60.32 55.5198 63.76 55.5198 67.98H55.5298ZM4.09977 42.99C2.38977 42.99 0.999766 41.59 0.999766 39.88C0.999766 38.17 2.38977 36.77 4.09977 36.77C5.80977 36.77 7.19977 38.17 7.19977 39.88C7.19977 41.59 5.80977 42.99 4.09977 42.99ZM35.6598 29.58C40.9998 29.58 45.3498 34.05 45.3498 39.54C45.3498 42.01 44.4698 44.26 43.0198 46C43.0198 46 43.0198 46.01 43.0098 46.01C42.8498 46.2 42.6998 46.38 42.5298 46.55C42.2198 42.99 39.9598 40.09 37.0298 39.37C38.7698 38.77 40.0298 37.13 40.0298 35.19C40.0298 32.74 38.0498 30.75 35.5998 30.75C33.1498 30.75 31.1698 32.74 31.1698 35.19C31.1698 37.14 32.4298 38.77 34.1698 39.37C31.2698 40.08 29.0398 42.91 28.6798 46.41C28.6198 46.35 28.5598 46.28 28.5098 46.21C28.5098 46.2 28.4998 46.18 28.4898 46.17C28.4698 46.14 28.4398 46.13 28.4198 46.11C26.9098 44.35 25.9798 42.05 25.9798 39.53C25.9798 34.04 30.3298 29.57 35.6698 29.57L35.6598 29.58ZM38.9598 48.89H38.9398C38.9398 48.89 38.9398 48.89 38.9298 48.89C37.9098 49.27 36.8098 49.48 35.6698 49.48C33.3298 49.48 31.1798 48.62 29.4998 47.19C29.5798 43.24 32.2798 40.05 35.5998 40.05C38.9198 40.05 41.6698 43.3 41.6998 47.3C40.8898 47.97 39.9598 48.5 38.9598 48.87V48.89ZM35.5898 38.77C33.6198 38.77 32.0298 37.17 32.0298 35.2C32.0298 33.23 33.6298 31.63 35.5898 31.63C37.5498 31.63 39.1498 33.23 39.1498 35.2C39.1498 37.17 37.5498 38.77 35.5898 38.77ZM57.9398 56.02C58.0198 52.07 60.7198 48.88 64.0398 48.88C67.3598 48.88 70.1098 52.13 70.1398 56.13C68.4798 57.49 66.3898 58.31 64.1098 58.31C61.8298 58.31 59.6198 57.45 57.9398 56.02ZM64.0398 47.58C62.0798 47.58 60.4798 45.98 60.4798 44.01C60.4798 42.04 62.0798 40.44 64.0398 40.44C65.9998 40.44 67.5998 42.04 67.5998 44.01C67.5998 45.98 65.9998 47.58 64.0398 47.58ZM70.9798 55.37C70.6698 51.81 68.4098 48.91 65.4798 48.19C67.2198 47.59 68.4798 45.95 68.4798 44.01C68.4798 41.56 66.4998 39.57 64.0498 39.57C61.5998 39.57 59.6198 41.56 59.6198 44.01C59.6198 45.96 60.8798 47.59 62.6198 48.19C59.7198 48.9 57.4898 51.73 57.1298 55.23C55.4598 53.44 54.4298 51.02 54.4298 48.35C54.4298 42.86 58.7798 38.39 64.1198 38.39C69.4598 38.39 73.8098 42.86 73.8098 48.35C73.8098 51.09 72.7298 53.57 70.9798 55.37Z" fill="#00C857"/>
<path d="M35.9698 76.64C34.6298 76.64 33.5498 77.73 33.5498 79.07C33.5498 80.41 34.6298 81.5 35.9698 81.5C37.3098 81.5 38.3898 80.41 38.3898 79.07C38.3898 77.73 37.3098 76.64 35.9698 76.64Z" fill="#00C857"/>
<path d="M70.5098 71.9C69.3098 71.9 68.3398 72.88 68.3398 74.08C68.3398 75.28 69.3098 76.26 70.5098 76.26C71.7098 76.26 72.6798 75.28 72.6798 74.08C72.6798 72.88 71.7098 71.9 70.5098 71.9Z" fill="#00C857"/>
<path d="M80.3298 30.66C79.1298 30.66 78.1598 31.64 78.1598 32.84C78.1598 34.04 79.1298 35.02 80.3298 35.02C81.5298 35.02 82.4998 34.04 82.4998 32.84C82.4998 31.64 81.5298 30.66 80.3298 30.66Z" fill="#00C857"/>
<path d="M35.3298 67.35C35.3298 67.63 35.5498 67.85 35.8298 67.85C36.1098 67.85 36.3298 67.63 36.3298 67.35V65.32C36.3298 65.04 36.1198 64.82 35.8398 64.82C35.5598 64.82 35.3398 65.04 35.3398 65.32V67.35H35.3298Z" fill="#00C857"/>
<path d="M35.3498 63.29C35.3498 63.57 35.5698 63.79 35.8498 63.79C36.1298 63.79 36.3498 63.57 36.3498 63.29V61.26C36.3498 60.98 36.1398 60.76 35.8598 60.76C35.5798 60.76 35.3598 60.98 35.3598 61.26V63.29H35.3498Z" fill="#00C857"/>
<path d="M35.3698 59.22C35.3698 59.5 35.5898 59.72 35.8698 59.72C36.1498 59.72 36.3698 59.5 36.3698 59.22V57.19C36.3698 56.91 36.1598 56.69 35.8798 56.69C35.5998 56.69 35.3798 56.91 35.3798 57.19V59.22H35.3698Z" fill="#00C857"/>
<path d="M35.3198 71.41C35.3198 71.69 35.5398 71.91 35.8198 71.91C36.0998 71.91 36.3198 71.69 36.3198 71.41V69.38C36.3198 69.1 36.1098 68.88 35.8298 68.88C35.5298 68.91 35.3298 69.1 35.3298 69.38V71.41H35.3198Z" fill="#00C857"/>
<path d="M35.2998 75.48C35.2998 75.76 35.5198 75.98 35.7998 75.98C36.0798 75.98 36.2998 75.76 36.2998 75.48V73.45C36.2998 73.17 36.0898 72.95 35.8098 72.95C35.5298 72.95 35.3098 73.17 35.3098 73.45V75.48H35.2998Z" fill="#00C857"/>
<path d="M35.8898 55.66C36.1698 55.66 36.3898 55.44 36.3898 55.16V53.13C36.3898 52.85 36.1798 52.63 35.8998 52.63C35.6198 52.63 35.3998 52.85 35.3998 53.13V55.16C35.3998 55.44 35.6098 55.66 35.8898 55.66Z" fill="#00C857"/>
<path d="M56.4098 59.15C56.2198 58.95 55.8998 58.95 55.6998 59.14C55.4998 59.33 55.4998 59.65 55.6898 59.85L57.0198 61.23C57.1198 61.33 57.2498 61.38 57.3798 61.38C57.5098 61.38 57.6298 61.33 57.7298 61.24C57.9298 61.05 57.9298 60.73 57.7398 60.53L56.4098 59.15Z" fill="#00C857"/>
<path d="M68.4098 71.58L67.0798 70.2C66.8898 70 66.5698 70 66.3698 70.19C66.1698 70.38 66.1698 70.7 66.3598 70.9L67.6898 72.28C67.7898 72.38 67.9198 72.43 68.0498 72.43C68.1798 72.43 68.2998 72.38 68.3998 72.29C68.5998 72.1 68.5998 71.78 68.4098 71.58Z" fill="#00C857"/>
<path d="M53.0398 56.38C52.8398 56.57 52.8298 56.89 53.0298 57.09L54.3598 58.47C54.4598 58.57 54.5898 58.62 54.7198 58.62C54.8498 58.62 54.9698 58.57 55.0698 58.48C55.2698 58.29 55.2798 57.97 55.0798 57.77L53.7498 56.39C53.5598 56.19 53.2398 56.19 53.0398 56.38Z" fill="#00C857"/>
<path d="M47.7098 50.86C47.5098 51.05 47.5098 51.37 47.6998 51.57L49.0298 52.95C49.1298 53.05 49.2598 53.1 49.3898 53.1C49.5198 53.1 49.6398 53.05 49.7398 52.96C49.9398 52.77 49.9398 52.45 49.7498 52.25L48.4198 50.87C48.2298 50.67 47.9098 50.67 47.7098 50.86Z" fill="#00C857"/>
<path d="M59.0798 61.91C58.8898 61.71 58.5698 61.71 58.3698 61.9C58.1698 62.09 58.1698 62.41 58.3598 62.61L59.6898 63.99C59.7898 64.09 59.9198 64.14 60.0498 64.14C60.1798 64.14 60.2998 64.09 60.3998 64C60.5998 63.81 60.5998 63.49 60.4098 63.29L59.0798 61.91Z" fill="#00C857"/>
<path d="M45.0398 48.1C44.8398 48.29 44.8398 48.61 45.0298 48.81L46.3598 50.19C46.4598 50.29 46.5898 50.34 46.7198 50.34C46.8498 50.34 46.9698 50.29 47.0698 50.2C47.2698 50.01 47.2698 49.69 47.0798 49.49L45.7498 48.11C45.5598 47.91 45.2398 47.91 45.0398 48.1Z" fill="#00C857"/>
<path d="M61.7398 64.67C61.5498 64.47 61.2298 64.47 61.0298 64.66C60.8298 64.85 60.8298 65.17 61.0198 65.37L62.3498 66.75C62.4498 66.85 62.5798 66.9 62.7098 66.9C62.8398 66.9 62.9598 66.85 63.0598 66.76C63.2598 66.57 63.2598 66.25 63.0698 66.05L61.7398 64.67Z" fill="#00C857"/>
<path d="M64.4098 67.44C64.2198 67.24 63.8998 67.24 63.6998 67.43C63.4998 67.62 63.4898 67.94 63.6898 68.14L65.0198 69.52C65.1198 69.62 65.2498 69.67 65.3798 69.67C65.5098 69.67 65.6298 69.62 65.7298 69.53C65.9298 69.34 65.9398 69.02 65.7398 68.82L64.4098 67.44Z" fill="#00C857"/>
<path d="M50.3698 53.62C50.1698 53.81 50.1698 54.13 50.3598 54.33L51.6898 55.71C51.7898 55.81 51.9198 55.86 52.0498 55.86C52.1798 55.86 52.2998 55.81 52.3998 55.72C52.5998 55.53 52.5998 55.21 52.4098 55.01L51.0798 53.63C50.8898 53.43 50.5698 53.43 50.3698 53.62Z" fill="#00C857"/>
<path d="M63.7898 34.93C63.5198 34.97 63.3298 35.23 63.3798 35.5C63.4198 35.74 63.6298 35.92 63.8698 35.92C63.8998 35.92 63.9198 35.92 63.9498 35.92L65.8298 35.61C66.0998 35.57 66.2898 35.31 66.2398 35.04C66.1898 34.77 65.9298 34.58 65.6698 34.63L63.7898 34.94V34.93Z" fill="#00C857"/>
<path d="M67.5498 34.31C67.2798 34.35 67.0898 34.61 67.1398 34.88C67.1798 35.12 67.3898 35.3 67.6298 35.3C67.6598 35.3 67.6798 35.3 67.7098 35.3L69.5898 34.99C69.8598 34.95 70.0498 34.69 69.9998 34.42C69.9498 34.15 69.6998 33.96 69.4298 34.01L67.5498 34.32V34.31Z" fill="#00C857"/>
<path d="M48.7598 37.42C48.4898 37.46 48.2998 37.72 48.3498 37.99C48.3898 38.23 48.5998 38.41 48.8398 38.41C48.8698 38.41 48.8898 38.41 48.9198 38.41L50.7998 38.1C51.0698 38.06 51.2598 37.8 51.2098 37.53C51.1698 37.26 50.8998 37.07 50.6398 37.12L48.7598 37.43V37.42Z" fill="#00C857"/>
<path d="M60.0298 35.55C59.7598 35.59 59.5698 35.85 59.6198 36.12C59.6598 36.36 59.8698 36.54 60.1098 36.54C60.1398 36.54 60.1598 36.54 60.1898 36.54L62.0698 36.23C62.3398 36.19 62.5298 35.93 62.4798 35.66C62.4298 35.39 62.1698 35.2 61.9098 35.25L60.0298 35.56V35.55Z" fill="#00C857"/>
<path d="M52.5198 36.8C52.2498 36.84 52.0598 37.1 52.1098 37.37C52.1498 37.61 52.3598 37.79 52.5998 37.79C52.6298 37.79 52.6498 37.79 52.6798 37.79L54.5598 37.48C54.8298 37.44 55.0198 37.18 54.9698 36.91C54.9298 36.64 54.6698 36.45 54.3998 36.5L52.5198 36.81V36.8Z" fill="#00C857"/>
<path d="M56.2698 36.18C55.9998 36.22 55.8098 36.48 55.8598 36.75C55.8998 36.99 56.1098 37.17 56.3498 37.17C56.3798 37.17 56.3998 37.17 56.4298 37.17L58.3098 36.86C58.5798 36.82 58.7698 36.56 58.7198 36.29C58.6798 36.02 58.4098 35.83 58.1498 35.88L56.2698 36.19V36.18Z" fill="#00C857"/>
<path d="M76.9398 32.76L75.0598 33.07C74.7898 33.11 74.5998 33.37 74.6498 33.64C74.6898 33.88 74.8998 34.06 75.1398 34.06C75.1698 34.06 75.1898 34.06 75.2198 34.06L77.0998 33.75C77.3698 33.71 77.5598 33.45 77.5098 33.18C77.4598 32.91 77.2098 32.72 76.9398 32.77V32.76Z" fill="#00C857"/>
<path d="M71.3898 34.68C71.3898 34.68 71.4398 34.68 71.4698 34.68L73.3498 34.37C73.6198 34.33 73.8098 34.07 73.7598 33.8C73.7198 33.53 73.4498 33.34 73.1898 33.39L71.3098 33.7C71.0398 33.74 70.8498 34 70.8998 34.27C70.9398 34.51 71.1498 34.69 71.3898 34.69V34.68Z" fill="#00C857"/>
<path d="M13.6998 48.98C8.34977 48.98 3.99977 53.45 3.99977 58.95C3.99977 61.62 5.02977 64.04 6.69977 65.83C7.04977 62.33 9.28976 59.49 12.1898 58.78M13.6998 48.98H13.6898C19.0398 48.98 23.3898 53.45 23.3898 58.95C23.3898 61.69 22.2998 64.19 20.5498 65.99M13.6998 48.98C19.0498 48.98 23.3998 53.45 23.3998 58.95C23.3998 61.7 22.3098 64.19 20.5598 65.99H20.5498M12.1898 58.78C10.4498 58.18 9.18976 56.54 9.18976 54.6M12.1898 58.78C10.4498 58.18 9.18976 56.55 9.18976 54.6M9.18976 54.6C9.18976 52.15 11.1698 50.16 13.6198 50.16C16.0698 50.16 18.0498 52.15 18.0498 54.6M18.0498 54.6C18.0498 56.55 16.7898 58.18 15.0498 58.78M18.0498 54.6C18.0498 56.54 16.7898 58.18 15.0498 58.78M15.0498 58.78C17.9898 59.5 20.2598 62.41 20.5498 65.99M15.0498 58.78C17.9898 59.5 20.2498 62.41 20.5498 65.99M31.9298 60.81C31.9298 62.1189 30.8732 63.18 29.5698 63.18M31.9298 60.81C31.9298 59.5011 30.8732 58.44 29.5698 58.44M31.9298 60.81C31.9298 62.11 30.8698 63.18 29.5698 63.18M31.9298 60.81C31.9298 59.5 30.8698 58.44 29.5698 58.44M29.5698 63.18C28.2664 63.18 27.2098 62.1189 27.2098 60.81M29.5698 63.18C28.2698 63.18 27.2098 62.12 27.2098 60.81M27.2098 60.81C27.2098 59.5011 28.2664 58.44 29.5698 58.44M27.2098 60.81C27.2098 59.5 28.2698 58.44 29.5698 58.44M13.6198 59.47C10.2998 59.47 7.59977 62.66 7.51977 66.62M13.6198 59.47C16.9798 59.47 19.7098 62.72 19.7298 66.74M13.6198 59.47C16.9398 59.47 19.6998 62.73 19.7298 66.74M7.51977 66.62C9.19977 68.05 11.3498 68.91 13.6998 68.91M7.51977 66.62C9.19977 68.05 11.4198 68.91 13.6998 68.91M13.6998 68.91C16.0498 68.91 18.0698 68.09 19.7298 66.74M13.6998 68.91C15.9798 68.91 18.0698 68.1 19.7298 66.74M43.0098 46.01C42.9998 46.01 42.9998 46.02 42.9998 46.02C42.8498 46.2 42.6898 46.39 42.5198 46.56C42.2198 43 39.9498 40.1 37.0198 39.38C38.7598 38.78 40.0198 37.15 40.0198 35.2C40.0198 32.75 38.0398 30.76 35.5898 30.76C33.1398 30.76 31.1598 32.75 31.1598 35.2C31.1598 37.14 32.4198 38.78 34.1598 39.38C31.2598 40.09 29.0198 42.92 28.6698 46.42C28.6098 46.35 28.5598 46.29 28.4998 46.22C28.4898 46.21 28.4798 46.18 28.4798 46.18L28.4698 46.19C28.4498 46.17 28.4198 46.15 28.3998 46.13C26.8898 44.37 25.9598 42.07 25.9598 39.55C25.9598 34.06 30.3098 29.59 35.6498 29.59C40.9898 29.59 45.3398 34.06 45.3398 39.55C45.3398 42.01 44.4598 44.27 43.0098 46.01ZM43.0098 46.01C43.0198 46.01 43.0198 46 43.0198 46C44.4698 44.26 45.3498 42.01 45.3498 39.54C45.3498 34.05 40.9998 29.58 35.6598 29.58L35.6698 29.57C30.3298 29.57 25.9798 34.04 25.9798 39.53C25.9798 42.05 26.9098 44.35 28.4198 46.11C28.4398 46.13 28.4698 46.14 28.4898 46.17C28.4998 46.18 28.5098 46.2 28.5098 46.21C28.5598 46.28 28.6198 46.35 28.6798 46.41C29.0398 42.91 31.2698 40.08 34.1698 39.37C32.4298 38.77 31.1698 37.14 31.1698 35.19C31.1698 32.74 33.1498 30.75 35.5998 30.75C38.0498 30.75 40.0298 32.74 40.0298 35.19C40.0298 37.13 38.7698 38.77 37.0298 39.37C39.9598 40.09 42.2198 42.99 42.5298 46.55C42.6998 46.38 42.8498 46.2 43.0098 46.01ZM40.2598 67.98C40.2598 69.82 40.9098 71.51 41.9898 72.84M40.2598 67.98H40.2698C40.2698 63.76 43.6898 60.32 47.8998 60.32C52.1098 60.32 55.5298 63.76 55.5298 67.98M40.2598 67.98C40.2598 69.83 40.9098 71.52 41.9898 72.84M40.2598 67.98C40.2598 63.76 43.6798 60.32 47.8898 60.32C52.0998 60.32 55.5198 63.76 55.5198 67.98H55.5298M41.9898 72.84C42.3498 70.77 43.8298 69.11 45.8398 68.44C44.9098 67.8 44.2998 66.73 44.2998 65.52C44.2998 63.57 45.8798 61.98 47.8298 61.98C49.7798 61.98 51.3598 63.57 51.3598 65.52C51.3598 66.74 50.7398 67.82 49.7998 68.46M49.7998 68.46C51.6998 69.13 53.0598 70.8 53.5598 73.1M49.7998 68.46C51.6998 69.13 53.0698 70.79 53.5598 73.1M53.5598 73.1C54.7798 71.74 55.5298 69.95 55.5298 67.98M47.8398 62.98C46.4498 62.98 45.3098 64.12 45.3098 65.52M47.8398 62.98C49.2398 62.98 50.3698 64.12 50.3698 65.52C50.3698 66.92 49.2398 68.06 47.8398 68.06M47.8398 62.98C46.4398 62.98 45.3098 64.12 45.3098 65.52M45.3098 65.52C45.3098 66.92 46.4398 68.06 47.8398 68.06M45.3098 65.52C45.3098 66.92 46.4498 68.06 47.8398 68.06M59.9598 23.28C59.0298 22.64 58.4198 21.57 58.4198 20.36C58.4198 18.41 59.9998 16.82 61.9498 16.82C63.8998 16.82 65.4798 18.41 65.4798 20.36M59.9598 23.28H59.9698C57.9298 23.97 56.4298 25.67 56.1098 27.8C54.9898 26.46 54.3098 24.75 54.3098 22.87C54.3098 18.65 57.7298 15.21 61.9398 15.21M59.9598 23.28C57.9198 23.96 56.4198 25.67 56.0998 27.8C54.9798 26.47 54.2998 24.75 54.2998 22.87C54.2998 18.65 57.7198 15.21 61.9298 15.21H61.9398M65.4798 20.36C65.4798 21.58 64.8598 22.66 63.9198 23.3M65.4798 20.36C65.4798 21.59 64.8598 22.66 63.9198 23.3M63.9198 23.3C65.8098 23.97 67.1698 25.62 67.6698 27.91C68.8498 26.56 69.5698 24.8 69.5698 22.87C69.5698 18.65 66.1498 15.21 61.9398 15.21M61.9598 23.96C59.1498 23.96 57.0298 25.98 57.0298 28.67M61.9598 23.96L61.9498 23.95C64.5798 23.95 66.4298 25.79 66.8198 28.75C65.4998 29.86 63.8098 30.53 61.9398 30.53C60.0698 30.53 58.3498 29.85 57.0198 28.72M61.9598 23.96C59.1498 23.96 57.0298 25.99 57.0298 28.67M61.9598 23.96C64.5798 23.96 66.4398 25.8 66.8298 28.76C65.5098 29.87 63.7998 30.54 61.9498 30.54C60.0998 30.54 58.3598 29.86 57.0298 28.73L57.0198 28.72M57.0298 28.67C57.0298 28.69 57.0298 28.7 57.0198 28.72M57.0298 28.67C57.0298 28.69 57.0198 28.72 57.0198 28.72M22.7398 4.36999C22.7398 3.06999 21.6798 1.99999 20.3798 1.99999M22.7398 4.36999C22.7398 5.67999 21.6798 6.73999 20.3798 6.73999C19.0798 6.73999 18.0198 5.67999 18.0198 4.36999M22.7398 4.36999C22.7398 3.05999 21.6798 1.99999 20.3798 1.99999M20.3798 1.99999C19.0798 1.99999 18.0198 3.05999 18.0198 4.36999M20.3798 1.99999C19.0798 1.99999 18.0198 3.06999 18.0198 4.36999M40.3198 12.52C38.5798 11.92 37.3198 10.28 37.3198 8.33999M40.3198 12.52C37.3998 13.24 35.1398 16.11 34.8198 19.66M40.3198 12.52C38.5798 11.92 37.3198 10.29 37.3198 8.33999M40.3198 12.52C37.3998 13.24 35.1398 16.12 34.8198 19.66M37.3198 8.33999C37.3198 5.88999 39.2998 3.89999 41.7498 3.89999C44.1998 3.89999 46.1798 5.88999 46.1798 8.33999M46.1798 8.33999C46.1798 10.29 44.9198 11.92 43.1798 12.52M46.1798 8.33999C46.1798 10.28 44.9198 11.92 43.1798 12.52M43.1798 12.52C46.1898 13.26 48.4898 16.29 48.6998 19.98M48.6998 19.98C50.5398 18.15 51.6798 15.6 51.6798 12.77M48.6998 19.98C50.5298 18.15 51.6798 15.6 51.6798 12.77M51.6798 12.77C51.6798 7.22999 47.2998 2.72999 41.9098 2.72999M51.6798 12.77C51.6798 7.23999 47.2998 2.72999 41.9098 2.72999M41.9098 2.72999C36.5198 2.72999 32.1398 7.23999 32.1398 12.77M41.9098 2.72999C36.5198 2.72999 32.1398 7.22999 32.1398 12.77M32.1398 12.77C32.1398 15.44 33.1598 17.86 34.8198 19.66M64.0398 48.88C60.7198 48.88 58.0198 52.07 57.9398 56.02M64.0398 48.88C67.3798 48.88 70.1098 52.13 70.1398 56.13M64.0398 48.88C67.3598 48.88 70.1098 52.13 70.1398 56.13M57.9398 56.02C59.6198 57.45 61.7698 58.31 64.1098 58.31M57.9398 56.02C59.6198 57.45 61.8298 58.31 64.1098 58.31M64.1098 58.31C66.4498 58.31 68.4898 57.49 70.1398 56.13M64.1098 58.31C66.3898 58.31 68.4798 57.49 70.1398 56.13M14.8698 20.47C12.0598 20.47 9.93976 22.49 9.93976 25.18C9.93976 25.19 9.93976 25.2 9.93976 25.22C11.2498 26.28 12.9198 26.93 14.7298 26.93C16.5398 26.93 18.3598 26.23 19.6998 25.07C19.2498 22.23 17.4298 20.48 14.8698 20.48V20.47ZM47.8398 69.11C45.0498 69.11 42.9398 71.11 42.9198 73.77C44.2598 74.93 45.9998 75.64 47.9098 75.64C49.8198 75.64 51.3998 74.99 52.7198 73.92C52.3298 70.95 50.4798 69.11 47.8498 69.11H47.8398ZM4.09977 36.77C2.38977 36.77 0.999766 38.17 0.999766 39.88C0.999766 41.59 2.38977 42.99 4.09977 42.99C5.80977 42.99 7.19977 41.59 7.19977 39.88C7.19977 38.17 5.80977 36.77 4.09977 36.77ZM17.1798 54.59C17.1798 52.62 15.5798 51.02 13.6198 51.02C11.6598 51.02 10.0598 52.62 10.0598 54.59C10.0598 56.56 11.6598 58.16 13.6198 58.16C15.5798 58.16 17.1798 56.56 17.1798 54.59ZM61.9598 17.83C60.5598 17.83 59.4298 18.97 59.4298 20.37C59.4298 21.77 60.5598 22.91 61.9598 22.91C63.3598 22.91 64.4898 21.77 64.4898 20.37C64.4898 18.97 63.3598 17.83 61.9598 17.83ZM45.3098 8.32999C45.3098 6.35999 43.7098 4.75999 41.7498 4.75999C39.7898 4.75999 38.1898 6.35999 38.1898 8.32999C38.1898 10.3 39.7898 11.9 41.7498 11.9C43.7098 11.9 45.3098 10.3 45.3098 8.32999ZM14.8698 14.34C13.4698 14.34 12.3398 15.48 12.3398 16.88C12.3398 18.28 13.4698 19.42 14.8698 19.42C16.2698 19.42 17.3998 18.28 17.3998 16.88C17.3998 15.48 16.2698 14.34 14.8698 14.34ZM12.8798 19.79C11.9498 19.15 11.3398 18.08 11.3398 16.87C11.3398 14.92 12.9198 13.33 14.8698 13.33C16.8198 13.33 18.3998 14.92 18.3998 16.87C18.3998 18.09 17.7798 19.17 16.8398 19.81C18.6698 20.46 20.0098 22.02 20.5498 24.2C21.6798 22.86 22.3698 21.14 22.3698 19.25C22.3698 15.03 18.9498 11.59 14.7398 11.59C10.5298 11.59 7.10977 15.03 7.10977 19.25C7.10977 21.19 7.83977 22.96 9.02977 24.31C9.34977 22.18 10.8498 20.47 12.8998 19.78L12.8798 19.79ZM47.8598 20.53C47.8598 16.49 45.1198 13.21 41.7498 13.21C38.3798 13.21 35.6698 16.46 35.6498 20.47C37.3498 21.93 39.5298 22.81 41.9098 22.81C44.1598 22.81 46.2398 22.01 47.8898 20.69C47.8698 20.64 47.8598 20.58 47.8598 20.52V20.53ZM64.1098 38.38C58.7698 38.38 54.4198 42.85 54.4198 48.34C54.4198 51.01 55.4498 53.43 57.1198 55.22C57.4698 51.72 59.7098 48.89 62.6098 48.18C60.8698 47.58 59.6098 45.94 59.6098 44C59.6098 41.55 61.5898 39.56 64.0398 39.56C66.4898 39.56 68.4698 41.55 68.4698 44C68.4698 45.95 67.2098 47.58 65.4698 48.18C68.3998 48.9 70.6698 51.8 70.9698 55.36C72.7198 53.56 73.7998 51.08 73.7998 48.34C73.7998 42.85 69.4498 38.38 64.1098 38.38ZM67.5998 44C67.5998 42.03 65.9998 40.43 64.0398 40.43C62.0798 40.43 60.4798 42.03 60.4798 44C60.4798 45.97 62.0798 47.57 64.0398 47.57C65.9998 47.57 67.5998 45.97 67.5998 44ZM35.5898 40.07C32.2698 40.07 29.5698 43.26 29.4898 47.21C31.1698 48.64 33.3198 49.5 35.6598 49.5C36.8098 49.5 37.8998 49.28 38.9198 48.91C38.9198 48.91 38.9198 48.91 38.9298 48.91H38.9498C39.9498 48.54 40.8698 48.01 41.6898 47.34C41.6598 43.34 38.9298 40.09 35.5898 40.09V40.07ZM39.1498 35.19C39.1498 33.22 37.5498 31.62 35.5898 31.62C33.6298 31.62 32.0298 33.22 32.0298 35.19C32.0298 37.16 33.6298 38.76 35.5898 38.76C37.5498 38.76 39.1498 37.16 39.1498 35.19ZM64.1098 37.51C59.4298 37.51 55.4598 40.64 54.0798 44.97L45.8098 42.48C46.0698 41.54 46.2198 40.55 46.2198 39.53C46.2198 39.3 46.1998 39.08 46.1898 38.85L47.0398 38.71C47.3098 38.67 47.4998 38.41 47.4498 38.14C47.4098 37.87 47.1498 37.68 46.8698 37.73L46.0798 37.86C45.9098 36.77 45.5898 35.73 45.1298 34.77L55.1198 28.17C56.6998 30.21 59.1598 31.53 61.9398 31.53C66.7098 31.53 70.5698 27.65 70.5698 22.87C70.5698 18.09 66.6998 14.21 61.9398 14.21C57.1798 14.21 53.3098 18.09 53.3098 22.87C53.3098 24.51 53.7698 26.04 54.5598 27.35L44.6598 33.89C43.3398 31.68 41.2698 29.98 38.7998 29.19L40.0698 23.52C40.6698 23.63 41.2798 23.69 41.8998 23.69C47.7798 23.69 52.5498 18.8 52.5498 12.77C52.5498 6.73999 47.7898 1.83999 41.9098 1.83999C36.0298 1.83999 31.2598 6.72999 31.2598 12.76C31.2598 17.79 34.5798 22.02 39.0998 23.29L37.8398 28.93C37.1398 28.78 36.4098 28.7 35.6598 28.7C34.5398 28.7 33.4698 28.88 32.4598 29.21L22.3398 7.07999C23.1798 6.46999 23.7298 5.47999 23.7298 4.35999C23.7298 2.49999 22.2198 0.98999 20.3698 0.98999C18.5198 0.98999 17.0098 2.49999 17.0098 4.35999C17.0098 6.21999 18.5198 7.72999 20.3698 7.72999C20.7498 7.72999 21.0998 7.64999 21.4398 7.53999L31.5098 29.57C29.9198 30.26 28.5398 31.35 27.4598 32.7L20.8398 25.38C20.8398 25.38 20.8398 25.38 20.8298 25.38C22.3898 23.81 23.3498 21.65 23.3498 19.27C23.3498 14.49 19.4798 10.61 14.7198 10.61C9.95977 10.61 6.08977 14.49 6.08977 19.27C6.08977 24.05 9.95977 27.93 14.7198 27.93C16.7498 27.93 18.6198 27.22 20.0898 26.04C20.0898 26.04 20.0898 26.05 20.0998 26.06L26.8298 33.5C26.8298 33.5 26.8598 33.52 26.8698 33.53C25.7698 35.21 25.1298 37.23 25.0998 39.39H8.15977C7.90977 37.36 6.19977 35.78 4.10977 35.78C1.84977 35.78 0.00976562 37.63 0.00976562 39.89C0.00976562 42.15 1.84977 44 4.10977 44C6.19977 44 7.90977 42.42 8.15977 40.39H25.1498C25.3198 42.64 26.1498 44.7 27.4598 46.35L21.1598 51.27C19.2498 49.32 16.6198 48.12 13.7098 48.12C7.86977 48.12 3.13977 52.97 3.13977 58.96C3.13977 64.95 7.86977 69.8 13.7098 69.8C19.5498 69.8 24.2798 64.95 24.2798 58.96C24.2798 56.32 23.3598 53.9 21.8298 52.02L28.1198 47.11C29.2398 48.29 30.6198 49.2 32.1698 49.75L29.9898 57.5C29.8598 57.48 29.7198 57.46 29.5898 57.46C27.7398 57.46 26.2298 58.97 26.2298 60.83C26.2298 62.69 27.7398 64.2 29.5898 64.2C31.4398 64.2 32.9498 62.69 32.9498 60.83C32.9498 59.46 32.1298 58.29 30.9598 57.76L33.1298 50.05C33.8698 50.24 34.6398 50.35 35.4298 50.37V51.11C35.4298 51.39 35.6498 51.61 35.9198 51.61C36.1898 51.61 36.4198 51.39 36.4198 51.11V50.34C37.2598 50.28 38.0698 50.13 38.8398 49.88L43.5998 60.49C41.0198 61.99 39.2798 64.78 39.2798 67.98C39.2798 72.76 43.1498 76.64 47.9098 76.64C52.6698 76.64 56.5398 72.76 56.5398 67.98C56.5398 63.2 52.6698 59.32 47.9098 59.32C46.6898 59.32 45.5398 59.58 44.4798 60.03L39.7698 49.52C41.1098 48.94 42.3098 48.07 43.2998 47.01L43.6998 47.43C43.7998 47.53 43.9298 47.58 44.0598 47.58C44.1898 47.58 44.3098 47.53 44.4098 47.44C44.6098 47.25 44.6098 46.93 44.4198 46.73L43.9498 46.24C44.5998 45.4 45.1198 44.46 45.5098 43.44L53.8298 45.94C53.6598 46.71 53.5598 47.52 53.5598 48.34C53.5598 54.32 58.2898 59.17 64.1198 59.17C69.9498 59.17 74.6798 54.32 74.6798 48.34C74.6798 42.36 69.9498 37.51 64.1198 37.51H64.1098ZM61.9598 22.9C60.5598 22.9 59.4298 21.76 59.4298 20.36C59.4298 18.96 60.5598 17.82 61.9598 17.82C63.3598 17.82 64.4898 18.96 64.4898 20.36C64.4898 21.76 63.3598 22.9 61.9598 22.9ZM35.6398 20.47C35.6698 16.46 38.3898 13.21 41.7398 13.21C45.0898 13.21 47.8498 16.49 47.8498 20.53C47.8498 20.59 47.8598 20.64 47.8798 20.7C46.2198 22.02 44.1498 22.82 41.8998 22.82C39.5198 22.82 37.3298 21.94 35.6398 20.48V20.47ZM41.7498 11.91C39.7798 11.91 38.1898 10.31 38.1898 8.33999C38.1898 6.36999 39.7898 4.76999 41.7498 4.76999C43.7098 4.76999 45.3098 6.36999 45.3098 8.33999C45.3098 10.31 43.7098 11.91 41.7498 11.91ZM7.08977 19.26C7.08977 15.04 10.5098 11.6 14.7198 11.6C18.9298 11.6 22.3498 15.04 22.3498 19.26C22.3498 21.15 21.6598 22.87 20.5298 24.21C19.9898 22.03 18.6498 20.46 16.8198 19.82C17.7598 19.18 18.3798 18.11 18.3798 16.88C18.3798 14.93 16.7998 13.34 14.8498 13.34C12.8998 13.34 11.3198 14.93 11.3198 16.88C11.3198 18.09 11.9298 19.16 12.8598 19.8C10.8098 20.48 9.31977 22.19 8.98977 24.33C7.79977 22.98 7.06977 21.21 7.06977 19.27L7.08977 19.26ZM14.8698 19.41C13.4698 19.41 12.3398 18.27 12.3398 16.87C12.3398 15.47 13.4698 14.33 14.8698 14.33C16.2698 14.33 17.3998 15.47 17.3998 16.87C17.3998 18.27 16.2698 19.41 14.8698 19.41ZM9.92977 25.21C9.92977 25.21 9.92977 25.19 9.92977 25.17C9.92977 22.49 12.0498 20.46 14.8598 20.46C17.4198 20.46 19.2398 22.22 19.6898 25.05C18.3498 26.2 16.6198 26.91 14.7198 26.91C12.8198 26.91 11.2398 26.27 9.92977 25.2V25.21ZM13.6198 58.17C11.6498 58.17 10.0598 56.57 10.0598 54.6C10.0598 52.63 11.6598 51.03 13.6198 51.03C15.5798 51.03 17.1798 52.63 17.1798 54.6C17.1798 56.57 15.5798 58.17 13.6198 58.17ZM42.9098 73.77C42.9398 71.11 45.0398 69.11 47.8298 69.11C50.4598 69.11 52.3098 70.95 52.6998 73.92C51.3898 74.99 49.7098 75.64 47.8898 75.64C46.0698 75.64 44.2398 74.93 42.8998 73.77H42.9098ZM38.9598 48.89H38.9398C38.9398 48.89 38.9398 48.89 38.9298 48.89C37.9098 49.27 36.8098 49.48 35.6698 49.48C33.3298 49.48 31.1798 48.62 29.4998 47.19C29.5798 43.24 32.2798 40.05 35.5998 40.05C38.9198 40.05 41.6698 43.3 41.6998 47.3C40.8898 47.97 39.9598 48.5 38.9598 48.87V48.89ZM35.5898 38.77C33.6198 38.77 32.0298 37.17 32.0298 35.2C32.0298 33.23 33.6298 31.63 35.5898 31.63C37.5498 31.63 39.1498 33.23 39.1498 35.2C39.1498 37.17 37.5498 38.77 35.5898 38.77ZM64.0398 47.58C62.0798 47.58 60.4798 45.98 60.4798 44.01C60.4798 42.04 62.0798 40.44 64.0398 40.44C65.9998 40.44 67.5998 42.04 67.5998 44.01C67.5998 45.98 65.9998 47.58 64.0398 47.58ZM70.9798 55.37C70.6698 51.81 68.4098 48.91 65.4798 48.19C67.2198 47.59 68.4798 45.95 68.4798 44.01C68.4798 41.56 66.4998 39.57 64.0498 39.57C61.5998 39.57 59.6198 41.56 59.6198 44.01C59.6198 45.96 60.8798 47.59 62.6198 48.19C59.7198 48.9 57.4898 51.73 57.1298 55.23C55.4598 53.44 54.4298 51.02 54.4298 48.35C54.4298 42.86 58.7798 38.39 64.1198 38.39C69.4598 38.39 73.8098 42.86 73.8098 48.35C73.8098 51.09 72.7298 53.57 70.9798 55.37ZM35.9698 76.64C34.6298 76.64 33.5498 77.73 33.5498 79.07C33.5498 80.41 34.6298 81.5 35.9698 81.5C37.3098 81.5 38.3898 80.41 38.3898 79.07C38.3898 77.73 37.3098 76.64 35.9698 76.64ZM70.5098 71.9C69.3098 71.9 68.3398 72.88 68.3398 74.08C68.3398 75.28 69.3098 76.26 70.5098 76.26C71.7098 76.26 72.6798 75.28 72.6798 74.08C72.6798 72.88 71.7098 71.9 70.5098 71.9ZM80.3298 30.66C79.1298 30.66 78.1598 31.64 78.1598 32.84C78.1598 34.04 79.1298 35.02 80.3298 35.02C81.5298 35.02 82.4998 34.04 82.4998 32.84C82.4998 31.64 81.5298 30.66 80.3298 30.66ZM35.3298 67.35C35.3298 67.63 35.5498 67.85 35.8298 67.85C36.1098 67.85 36.3298 67.63 36.3298 67.35V65.32C36.3298 65.04 36.1198 64.82 35.8398 64.82C35.5598 64.82 35.3398 65.04 35.3398 65.32V67.35H35.3298ZM35.3498 63.29C35.3498 63.57 35.5698 63.79 35.8498 63.79C36.1298 63.79 36.3498 63.57 36.3498 63.29V61.26C36.3498 60.98 36.1398 60.76 35.8598 60.76C35.5798 60.76 35.3598 60.98 35.3598 61.26V63.29H35.3498ZM35.3698 59.22C35.3698 59.5 35.5898 59.72 35.8698 59.72C36.1498 59.72 36.3698 59.5 36.3698 59.22V57.19C36.3698 56.91 36.1598 56.69 35.8798 56.69C35.5998 56.69 35.3798 56.91 35.3798 57.19V59.22H35.3698ZM35.3198 71.41C35.3198 71.69 35.5398 71.91 35.8198 71.91C36.0998 71.91 36.3198 71.69 36.3198 71.41V69.38C36.3198 69.1 36.1098 68.88 35.8298 68.88C35.5298 68.91 35.3298 69.1 35.3298 69.38V71.41H35.3198ZM35.2998 75.48C35.2998 75.76 35.5198 75.98 35.7998 75.98C36.0798 75.98 36.2998 75.76 36.2998 75.48V73.45C36.2998 73.17 36.0898 72.95 35.8098 72.95C35.5298 72.95 35.3098 73.17 35.3098 73.45V75.48H35.2998ZM35.8898 55.66C36.1698 55.66 36.3898 55.44 36.3898 55.16V53.13C36.3898 52.85 36.1798 52.63 35.8998 52.63C35.6198 52.63 35.3998 52.85 35.3998 53.13V55.16C35.3998 55.44 35.6098 55.66 35.8898 55.66ZM56.4098 59.15C56.2198 58.95 55.8998 58.95 55.6998 59.14C55.4998 59.33 55.4998 59.65 55.6898 59.85L57.0198 61.23C57.1198 61.33 57.2498 61.38 57.3798 61.38C57.5098 61.38 57.6298 61.33 57.7298 61.24C57.9298 61.05 57.9298 60.73 57.7398 60.53L56.4098 59.15ZM68.4098 71.58L67.0798 70.2C66.8898 70 66.5698 70 66.3698 70.19C66.1698 70.38 66.1698 70.7 66.3598 70.9L67.6898 72.28C67.7898 72.38 67.9198 72.43 68.0498 72.43C68.1798 72.43 68.2998 72.38 68.3998 72.29C68.5998 72.1 68.5998 71.78 68.4098 71.58ZM53.0398 56.38C52.8398 56.57 52.8298 56.89 53.0298 57.09L54.3598 58.47C54.4598 58.57 54.5898 58.62 54.7198 58.62C54.8498 58.62 54.9698 58.57 55.0698 58.48C55.2698 58.29 55.2798 57.97 55.0798 57.77L53.7498 56.39C53.5598 56.19 53.2398 56.19 53.0398 56.38ZM47.7098 50.86C47.5098 51.05 47.5098 51.37 47.6998 51.57L49.0298 52.95C49.1298 53.05 49.2598 53.1 49.3898 53.1C49.5198 53.1 49.6398 53.05 49.7398 52.96C49.9398 52.77 49.9398 52.45 49.7498 52.25L48.4198 50.87C48.2298 50.67 47.9098 50.67 47.7098 50.86ZM59.0798 61.91C58.8898 61.71 58.5698 61.71 58.3698 61.9C58.1698 62.09 58.1698 62.41 58.3598 62.61L59.6898 63.99C59.7898 64.09 59.9198 64.14 60.0498 64.14C60.1798 64.14 60.2998 64.09 60.3998 64C60.5998 63.81 60.5998 63.49 60.4098 63.29L59.0798 61.91ZM45.0398 48.1C44.8398 48.29 44.8398 48.61 45.0298 48.81L46.3598 50.19C46.4598 50.29 46.5898 50.34 46.7198 50.34C46.8498 50.34 46.9698 50.29 47.0698 50.2C47.2698 50.01 47.2698 49.69 47.0798 49.49L45.7498 48.11C45.5598 47.91 45.2398 47.91 45.0398 48.1ZM61.7398 64.67C61.5498 64.47 61.2298 64.47 61.0298 64.66C60.8298 64.85 60.8298 65.17 61.0198 65.37L62.3498 66.75C62.4498 66.85 62.5798 66.9 62.7098 66.9C62.8398 66.9 62.9598 66.85 63.0598 66.76C63.2598 66.57 63.2598 66.25 63.0698 66.05L61.7398 64.67ZM64.4098 67.44C64.2198 67.24 63.8998 67.24 63.6998 67.43C63.4998 67.62 63.4898 67.94 63.6898 68.14L65.0198 69.52C65.1198 69.62 65.2498 69.67 65.3798 69.67C65.5098 69.67 65.6298 69.62 65.7298 69.53C65.9298 69.34 65.9398 69.02 65.7398 68.82L64.4098 67.44ZM50.3698 53.62C50.1698 53.81 50.1698 54.13 50.3598 54.33L51.6898 55.71C51.7898 55.81 51.9198 55.86 52.0498 55.86C52.1798 55.86 52.2998 55.81 52.3998 55.72C52.5998 55.53 52.5998 55.21 52.4098 55.01L51.0798 53.63C50.8898 53.43 50.5698 53.43 50.3698 53.62ZM63.7898 34.93C63.5198 34.97 63.3298 35.23 63.3798 35.5C63.4198 35.74 63.6298 35.92 63.8698 35.92C63.8998 35.92 63.9198 35.92 63.9498 35.92L65.8298 35.61C66.0998 35.57 66.2898 35.31 66.2398 35.04C66.1898 34.77 65.9298 34.58 65.6698 34.63L63.7898 34.94V34.93ZM67.5498 34.31C67.2798 34.35 67.0898 34.61 67.1398 34.88C67.1798 35.12 67.3898 35.3 67.6298 35.3C67.6598 35.3 67.6798 35.3 67.7098 35.3L69.5898 34.99C69.8598 34.95 70.0498 34.69 69.9998 34.42C69.9498 34.15 69.6998 33.96 69.4298 34.01L67.5498 34.32V34.31ZM48.7598 37.42C48.4898 37.46 48.2998 37.72 48.3498 37.99C48.3898 38.23 48.5998 38.41 48.8398 38.41C48.8698 38.41 48.8898 38.41 48.9198 38.41L50.7998 38.1C51.0698 38.06 51.2598 37.8 51.2098 37.53C51.1698 37.26 50.8998 37.07 50.6398 37.12L48.7598 37.43V37.42ZM60.0298 35.55C59.7598 35.59 59.5698 35.85 59.6198 36.12C59.6598 36.36 59.8698 36.54 60.1098 36.54C60.1398 36.54 60.1598 36.54 60.1898 36.54L62.0698 36.23C62.3398 36.19 62.5298 35.93 62.4798 35.66C62.4298 35.39 62.1698 35.2 61.9098 35.25L60.0298 35.56V35.55ZM52.5198 36.8C52.2498 36.84 52.0598 37.1 52.1098 37.37C52.1498 37.61 52.3598 37.79 52.5998 37.79C52.6298 37.79 52.6498 37.79 52.6798 37.79L54.5598 37.48C54.8298 37.44 55.0198 37.18 54.9698 36.91C54.9298 36.64 54.6698 36.45 54.3998 36.5L52.5198 36.81V36.8ZM56.2698 36.18C55.9998 36.22 55.8098 36.48 55.8598 36.75C55.8998 36.99 56.1098 37.17 56.3498 37.17C56.3798 37.17 56.3998 37.17 56.4298 37.17L58.3098 36.86C58.5798 36.82 58.7698 36.56 58.7198 36.29C58.6798 36.02 58.4098 35.83 58.1498 35.88L56.2698 36.19V36.18ZM76.9398 32.76L75.0598 33.07C74.7898 33.11 74.5998 33.37 74.6498 33.64C74.6898 33.88 74.8998 34.06 75.1398 34.06C75.1698 34.06 75.1898 34.06 75.2198 34.06L77.0998 33.75C77.3698 33.71 77.5598 33.45 77.5098 33.18C77.4598 32.91 77.2098 32.72 76.9398 32.77V32.76ZM71.3898 34.68C71.3898 34.68 71.4398 34.68 71.4698 34.68L73.3498 34.37C73.6198 34.33 73.8098 34.07 73.7598 33.8C73.7198 33.53 73.4498 33.34 73.1898 33.39L71.3098 33.7C71.0398 33.74 70.8498 34 70.8998 34.27C70.9398 34.51 71.1498 34.69 71.3898 34.69V34.68Z" stroke="#00C857" stroke-width="0.5"/>
</g>
<defs>
<clipPath id="clip0_47_1452">
<rect width="83" height="82" fill="white"/>
</clipPath>
</defs>
</svg>
