<svg width="82" height="92" viewBox="0 0 82 92" fill="none" xmlns="http://www.w3.org/2000/svg">
<path d="M52.29 12.66C52.54 12.21 53.11 12.04 53.57 12.29C57.7 14.57 61.17 17.91 63.62 21.94C63.89 22.38 63.75 22.96 63.3 23.23C63.15 23.32 62.98 23.37 62.81 23.37C62.49 23.37 62.18 23.21 62.01 22.92C59.73 19.17 56.5 16.06 52.66 13.94C52.2 13.69 52.04 13.12 52.29 12.66ZM18.03 22.91C18.18 23.01 18.36 23.05 18.53 23.05C18.84 23.05 19.15 22.89 19.33 22.61C21.59 18.99 24.76 15.99 28.49 13.93C28.94 13.68 29.11 13.11 28.86 12.65C28.61 12.2 28.04 12.03 27.58 12.28C23.57 14.49 20.17 17.72 17.73 21.6C17.46 22.06 17.59 22.64 18.03 22.91ZM29.78 60.47C30.14 60.47 30.48 60.27 30.63 59.92C30.85 59.45 30.64 58.89 30.17 58.68C25.86 56.71 22.2 53.56 19.59 49.58C19.31 49.15 18.72 49.02 18.29 49.31C17.86 49.59 17.73 50.18 18.02 50.61C20.82 54.89 24.75 58.27 29.39 60.39C29.51 60.44 29.64 60.47 29.78 60.47ZM60.16 51.49C57.71 54.56 54.53 57.05 50.97 58.67C50.5 58.89 50.29 59.44 50.51 59.91C50.67 60.26 51.01 60.46 51.36 60.46C51.49 60.46 51.62 60.43 51.75 60.37C55.58 58.62 59 55.95 61.63 52.65C61.95 52.24 61.89 51.65 61.48 51.33C61.07 51.02 60.48 51.09 60.16 51.49ZM52.77 71.25C55.74 74.21 57.55 78.42 57.86 83.09C57.94 84.35 57.47 85.5 56.52 86.33C52.58 89.77 46.32 92 40.57 92C34.82 92 28.56 89.77 24.63 86.33C23.68 85.5 23.21 84.35 23.29 83.09C23.6 78.42 25.41 74.21 28.38 71.25C31.51 68.13 35.73 66.48 40.58 66.48C45.43 66.48 49.64 68.13 52.77 71.25ZM55.98 83.21C55.39 74.33 49.2 68.36 40.57 68.36C31.94 68.36 25.75 74.33 25.16 83.21C25.12 83.89 25.35 84.46 25.86 84.91C29.42 88.03 35.33 90.12 40.57 90.12C45.81 90.12 51.72 88.03 55.28 84.91C55.79 84.46 56.03 83.89 55.98 83.21ZM48.77 57.27C48.77 61.79 45.09 65.47 40.57 65.47C36.05 65.47 32.37 61.79 32.37 57.27C32.37 52.75 36.05 49.07 40.57 49.07C45.09 49.07 48.77 52.75 48.77 57.27ZM46.89 57.27C46.89 53.78 44.05 50.95 40.57 50.95C37.09 50.95 34.25 53.79 34.25 57.27C34.25 60.75 37.09 63.59 40.57 63.59C44.06 63.6 46.89 60.76 46.89 57.27ZM78.06 47.04C78.06 47.88 77.65 48.63 77.02 49.09C77.21 49.44 77.31 49.85 77.31 50.27C77.31 51.46 76.49 52.45 75.39 52.74C74.77 54.98 72.73 56.6 70.35 56.6C67.97 56.6 65.92 54.98 65.31 52.74C64.21 52.45 63.39 51.46 63.39 50.27C63.39 49.84 63.5 49.44 63.68 49.09C63.05 48.62 62.64 47.88 62.64 47.04C62.64 45.97 63.31 45.05 64.25 44.67C64.22 43.41 63.77 42.36 62.85 41.47C60.74 39.42 59.57 36.67 59.57 33.73C59.57 27.79 64.4 22.96 70.34 22.96C76.28 22.96 81.11 27.79 81.11 33.73C81.11 36.67 79.95 39.42 77.83 41.47C76.93 42.35 76.46 43.43 76.43 44.67C77.4 45.04 78.06 45.96 78.06 47.04ZM64.17 40.12C65.41 41.32 66.06 42.79 66.14 44.48H69.42V37.19L65.35 33.12C64.98 32.75 64.98 32.16 65.35 31.79C65.72 31.42 66.31 31.42 66.68 31.79L70.36 35.47L74.04 31.79C74.41 31.42 75 31.42 75.37 31.79C75.74 32.16 75.74 32.75 75.37 33.12L71.3 37.19V44.48H74.58C74.65 42.79 75.31 41.32 76.55 40.12C78.29 38.43 79.26 36.16 79.26 33.73C79.26 28.83 75.27 24.84 70.37 24.84C65.47 24.84 61.47 28.83 61.47 33.73C61.47 36.16 62.42 38.43 64.17 40.12ZM65.96 49.6C65.59 49.6 65.28 49.91 65.28 50.28C65.28 50.65 65.59 50.96 65.96 50.96H74.76C75.14 50.96 75.44 50.65 75.44 50.28C75.44 49.91 75.13 49.6 74.76 49.6H65.96ZM73.38 52.83H67.35C67.9 53.96 69.05 54.72 70.37 54.72C71.67 54.73 72.82 53.96 73.38 52.83ZM76.19 47.04C76.19 46.66 75.88 46.36 75.51 46.36H65.21C64.83 46.36 64.53 46.67 64.53 47.04C64.53 47.41 64.84 47.72 65.21 47.72H75.5C75.87 47.72 76.19 47.41 76.19 47.04ZM29.88 10.97C29.17 10.23 28.94 9.2 29.25 8.22C29.57 7.24 30.36 6.55 31.37 6.37L35.95 5.54L38.15 1.44C38.64 0.54 39.54 0 40.57 0C41.6 0 42.5 0.54 42.99 1.45L45.19 5.55L49.77 6.38C50.78 6.56 51.57 7.26 51.89 8.23C52.21 9.21 51.97 10.23 51.26 10.98L48.05 14.34L48.67 18.95C48.81 19.97 48.39 20.94 47.56 21.54C47.08 21.89 46.52 22.07 45.95 22.07C45.55 22.07 45.14 21.98 44.75 21.79L40.57 19.77L36.38 21.79C35.45 22.24 34.4 22.14 33.57 21.54C32.74 20.94 32.32 19.97 32.46 18.95L33.08 14.34L29.88 10.97ZM31.23 9.67L34.76 13.36C34.96 13.57 35.05 13.85 35.01 14.14L34.32 19.2C34.27 19.54 34.4 19.82 34.67 20.02C34.94 20.22 35.25 20.25 35.56 20.1L40.16 17.89C40.29 17.83 40.43 17.8 40.57 17.8C40.71 17.8 40.85 17.83 40.98 17.89L45.58 20.1C45.89 20.25 46.19 20.22 46.47 20.02C46.74 19.82 46.87 19.54 46.82 19.2L46.13 14.14C46.09 13.86 46.18 13.57 46.38 13.36L49.91 9.67C50.14 9.42 50.21 9.12 50.11 8.8C50 8.48 49.77 8.27 49.44 8.21L44.42 7.3C44.14 7.25 43.9 7.07 43.76 6.82L41.34 2.33C41.17 2.04 40.91 1.88 40.57 1.88C40.23 1.88 39.97 2.04 39.8 2.34L37.38 6.83C37.24 7.08 37 7.26 36.72 7.31L31.7 8.22C31.37 8.28 31.13 8.48 31.03 8.81C30.93 9.13 31 9.43 31.23 9.67ZM17.6 46.51C16.97 46.77 16.74 47.54 16.66 47.97C16.49 48.83 15.79 49.48 14.92 49.59C14.41 49.65 13.89 49.68 13.37 49.68C12.85 49.68 12.34 49.65 11.82 49.59C10.95 49.49 10.25 48.84 10.08 47.97C10 47.54 9.76 46.77 9.14 46.51C8.51 46.25 7.81 46.63 7.44 46.87C6.71 47.36 5.76 47.33 5.07 46.78C4.26 46.14 3.52 45.4 2.88 44.59C2.34 43.9 2.3 42.95 2.79 42.22C3.04 41.85 3.41 41.15 3.15 40.52C2.89 39.9 2.13 39.66 1.7 39.58C0.84 39.41 0.19 38.71 0.09 37.84C-0.03 36.82 -0.03 35.8 0.09 34.78C0.19 33.91 0.84 33.21 1.7 33.04C2.13 32.96 2.89 32.72 3.15 32.1C3.41 31.48 3.03 30.77 2.79 30.4C2.3 29.67 2.33 28.72 2.88 28.03C3.52 27.22 4.26 26.48 5.07 25.84C5.76 25.29 6.71 25.26 7.44 25.75C7.81 26 8.51 26.37 9.14 26.11C9.77 25.85 10 25.08 10.08 24.65C10.25 23.79 10.94 23.14 11.82 23.03C12.85 22.91 13.89 22.91 14.91 23.03C15.78 23.13 16.48 23.78 16.65 24.65C16.73 25.08 16.97 25.85 17.59 26.11C18.22 26.37 18.92 25.99 19.29 25.75C20.02 25.26 20.97 25.29 21.66 25.84C22.47 26.48 23.21 27.22 23.85 28.03C24.39 28.72 24.43 29.67 23.94 30.4C23.69 30.77 23.32 31.47 23.58 32.1C23.84 32.72 24.6 32.96 25.03 33.04C25.89 33.21 26.54 33.91 26.64 34.78C26.76 35.8 26.76 36.82 26.64 37.84C26.54 38.71 25.89 39.41 25.03 39.58C24.6 39.66 23.84 39.9 23.58 40.52C23.32 41.14 23.7 41.85 23.94 42.22C24.43 42.95 24.4 43.9 23.85 44.59C23.21 45.4 22.47 46.14 21.66 46.78C20.97 47.33 20.02 47.36 19.29 46.87C18.93 46.63 18.22 46.25 17.6 46.51ZM20.35 45.32C20.4 45.36 20.45 45.35 20.5 45.31C21.2 44.76 21.83 44.12 22.38 43.42C22.42 43.37 22.42 43.32 22.39 43.27C21.6 42.1 21.41 40.87 21.85 39.8C22.29 38.74 23.29 38 24.68 37.73C24.74 37.72 24.78 37.68 24.78 37.62C24.88 36.75 24.88 35.86 24.78 34.99C24.77 34.93 24.74 34.89 24.68 34.88C23.3 34.61 22.29 33.88 21.85 32.81C21.41 31.74 21.6 30.51 22.39 29.34C22.43 29.29 22.42 29.24 22.38 29.19C21.83 28.49 21.2 27.86 20.5 27.3C20.45 27.26 20.4 27.26 20.35 27.29C19.18 28.08 17.95 28.28 16.88 27.83C15.81 27.39 15.08 26.38 14.81 24.99C14.8 24.93 14.76 24.89 14.7 24.89C13.82 24.79 12.92 24.79 12.04 24.89C11.98 24.9 11.94 24.93 11.93 24.99C11.66 26.38 10.93 27.39 9.86 27.83C8.79 28.27 7.56 28.08 6.39 27.29C6.34 27.25 6.29 27.26 6.24 27.3C5.54 27.85 4.91 28.49 4.36 29.19C4.32 29.24 4.32 29.29 4.35 29.34C5.14 30.51 5.33 31.74 4.89 32.81C4.45 33.87 3.45 34.61 2.06 34.88C2 34.89 1.96 34.93 1.96 34.99C1.86 35.86 1.86 36.75 1.96 37.62C1.97 37.68 2 37.72 2.06 37.73C3.44 38 4.45 38.73 4.89 39.8C5.33 40.86 5.14 42.1 4.35 43.27C4.31 43.32 4.32 43.37 4.36 43.42C4.91 44.12 5.55 44.75 6.24 45.31C6.29 45.35 6.34 45.35 6.39 45.32C7.15 44.81 7.93 44.54 8.68 44.54C9.09 44.54 9.48 44.62 9.85 44.77C10.92 45.21 11.65 46.22 11.92 47.61C11.93 47.67 11.97 47.71 12.03 47.71C12.91 47.81 13.81 47.81 14.69 47.71C14.75 47.7 14.79 47.67 14.8 47.61C15.07 46.22 15.8 45.21 16.87 44.77C17.94 44.33 19.17 44.53 20.35 45.32ZM19.96 36.32C19.96 39.96 17 42.91 13.37 42.91C9.74 42.91 6.78 39.95 6.78 36.32C6.78 32.69 9.74 29.73 13.37 29.73C17 29.72 19.96 32.68 19.96 36.32ZM18.08 36.32C18.08 33.72 15.96 31.61 13.37 31.61C10.78 31.61 8.66 33.73 8.66 36.32C8.66 38.91 10.78 41.03 13.37 41.03C15.96 41.03 18.08 38.91 18.08 36.32Z" fill="#00C857"/>
</svg>
