<svg width="50" height="83" viewBox="0 0 50 83" fill="none" xmlns="http://www.w3.org/2000/svg">
<path fill-rule="evenodd" clip-rule="evenodd" d="M22.3492 27.479C22.2506 26.675 21.5074 26.1047 20.7162 26.21C19.9111 26.3108 19.3423 27.0438 19.4432 27.8478C19.7896 30.6378 22.1886 32.7429 25.0074 32.7429C27.8263 32.7429 30.2139 30.6378 30.5717 27.8478C30.6703 27.0438 30.1015 26.3131 29.2987 26.21C28.4937 26.1069 27.7643 26.6773 27.6657 27.479C27.4914 28.8076 26.3538 29.8109 25.0074 29.8109C23.6611 29.8109 22.5212 28.8099 22.3492 27.479ZM19.7758 22.4946C19.8905 21.7204 21.0166 21.7227 21.1107 22.4946C21.207 23.2872 21.9455 23.8644 22.7552 23.7636C23.5602 23.6628 24.129 22.9298 24.0281 22.1258C23.7941 20.33 22.2597 18.9785 20.4409 18.9785C18.6221 18.9785 17.09 20.33 16.8675 22.1258C16.7689 22.9298 17.3377 23.6628 18.1405 23.7636C18.9432 23.8644 19.6749 23.294 19.7735 22.4946H19.7758ZM27.2574 23.7636C28.0625 23.8644 28.7919 23.294 28.9019 22.4946C28.9983 21.7135 30.1313 21.7273 30.2253 22.4946C30.3217 23.2872 31.0602 23.8644 31.8698 23.7636C32.6749 23.6628 33.2414 22.9298 33.1428 22.1258C32.9088 20.33 31.3744 18.9785 29.5556 18.9785C27.7368 18.9785 26.2162 20.33 25.9822 22.1258C25.8836 22.9298 26.4524 23.6628 27.2552 23.7636H27.2574ZM14.5327 25.4724C14.5327 19.7046 19.2322 15.0134 25.0074 15.0134C30.7827 15.0134 35.4822 19.7046 35.4822 25.4724C35.4822 31.2402 30.7827 35.9315 25.0074 35.9315C19.2322 35.9315 14.5327 31.2402 14.5327 25.4724ZM11.6015 25.4724C11.6015 18.0874 17.6129 12.0837 25.0074 12.0837C32.4019 12.0837 38.4134 18.0897 38.4134 25.4724C38.4134 32.8551 32.4019 38.8635 25.0074 38.8635C17.6129 38.8635 11.6015 32.8574 11.6015 25.4724ZM33.379 57.1771C35.3698 56.0294 36.9776 54.4512 38.0052 52.6943C33.801 52.7012 29.2804 55.301 27.1841 58.934C29.2116 58.9294 31.3882 58.3247 33.3813 57.1771H33.379ZM18.2047 62.3814C16.2139 61.236 14.0373 60.6267 12.0097 60.6245C14.1061 64.2551 18.6175 66.8573 22.8308 66.8641C21.8033 65.1049 20.1955 63.5267 18.2047 62.3814ZM3.98222 25.4724C6.90194 22.8497 8.01433 18.7059 6.78956 14.9745C10.6474 14.1636 13.6795 11.1331 14.4937 7.28712C18.2276 8.50574 22.3836 7.39707 25.0052 4.47423C27.6175 7.39478 31.7987 8.50803 35.5166 7.28712C36.3331 11.1308 39.3629 14.1636 43.2093 14.9745C41.9914 18.6968 43.1129 22.8588 46.0281 25.4747C43.1107 28.0883 41.9914 32.2527 43.2093 35.975C39.3629 36.7836 36.3331 39.8187 35.5166 43.66C31.7941 42.446 27.6221 43.5524 25.0052 46.4729C22.3629 43.5341 18.1909 42.4437 14.4937 43.6623C13.6772 39.8209 10.6474 36.7859 6.80102 35.975C8.01662 32.2596 6.89277 28.0838 3.98222 25.4747V25.4724ZM26.4799 81.5608V61.8454C32.8263 62.1615 39.5579 57.8528 41.5694 51.9063C41.8538 51.0634 41.3469 50.1792 40.4685 50.0028C37.2643 49.3545 33.5671 50.0532 30.34 51.9155C28.8675 52.763 27.5579 53.8167 26.4822 55.0032V49.3843C27.4226 47.884 28.8813 46.8097 30.613 46.3447C32.4318 45.859 34.324 46.1064 35.9432 47.041C37.0556 47.6893 38.2437 47.0089 38.2437 45.7124C38.2437 41.8413 41.3974 38.6917 45.2689 38.6917C46.707 38.6917 47.168 37.3356 46.6657 36.4949C45.1749 33.9913 45.4249 30.9493 47.0992 28.6266C48.129 27.1996 49.3997 26.6636 49.3997 26.6636C49.7827 26.391 50.0052 25.9512 50.0052 25.4747C50.0052 24.854 49.6863 24.4485 49.1772 24.1485C45.7781 22.1487 44.6474 17.8515 46.6657 14.4568C47.168 13.6138 46.7047 12.2578 45.2689 12.2578C41.3974 12.2578 38.2437 9.10588 38.2437 5.23472C38.2437 3.93593 37.0602 3.26248 35.9432 3.90615C32.5625 5.85319 28.168 4.66435 26.285 1.23527C25.8515 0.445007 24.4501 0.0441467 23.6749 1.33606C21.746 4.68955 17.4295 5.84173 14.0785 3.90615C12.9799 3.27394 11.7781 3.91073 11.7781 5.23472C11.7781 9.10359 8.62442 12.2555 4.74139 12.2555C3.30102 12.2555 2.86295 13.623 3.35607 14.4545C5.37442 17.8492 4.25286 22.1419 0.844601 24.1462L0.745977 24.2057C-0.153105 24.7326 -0.244848 25.926 0.5235 26.5834C0.5235 26.5834 2.25056 27.8158 2.81249 28.4869C4.64047 30.6699 4.88589 33.9134 3.418 36.3919C2.77121 37.4845 3.42717 38.6894 4.74139 38.6894C8.62442 38.6894 11.7781 41.839 11.7781 45.7102C11.7781 47.0318 12.9845 47.6755 14.0785 47.0387C17.3561 45.1467 21.5487 46.2049 23.5396 49.382V62.9288C22.4524 61.7423 21.1519 60.6886 19.6818 59.8411C16.4409 57.9765 12.7552 57.2824 9.53956 57.9307C8.67946 58.1048 8.168 58.9981 8.43864 59.8319C9.4891 62.9311 11.9386 65.7784 15.1657 67.6407C17.7712 69.1433 20.7597 69.9244 23.5396 69.7709V81.5608C23.5396 81.5608 24.0327 82.4977 25.0052 82.4977C25.9776 82.4977 26.4822 81.5608 26.4822 81.5608H26.4799Z" fill="#00C857"/>
</svg>
