<svg width="64" height="65" viewBox="0 0 64 65" fill="none" xmlns="http://www.w3.org/2000/svg">
<path d="M6.14667 54.0866H13.4067C13.8933 54.0866 14.2933 53.6913 14.2933 53.2021V43.9413C14.2933 43.4521 13.9 43.0567 13.4067 43.0567H6.14667C5.66 43.0567 5.26667 43.4521 5.26667 43.9413V53.2021C5.26667 53.6913 5.66 54.0866 6.14667 54.0866ZM7.02667 44.8191H12.52V52.3041H7.02667V44.8191ZM5.94667 28.0464C8.74 28.6964 11.5533 29.0181 14.36 29.0181C19.8733 29.0181 25.3467 27.7784 30.5067 25.3191C36.5467 22.4511 42.1533 17.8608 46.0067 12.6608L48.1467 14.0413C48.5933 14.3294 49.1533 14.3428 49.62 14.0815C50.0867 13.8201 50.36 13.3242 50.34 12.7882L49.9533 1.54384C49.9333 1.06806 49.7 0.645897 49.2933 0.384557C48.8867 0.123217 48.4133 0.0897118 47.9733 0.277341L37.76 4.66652C37.2667 4.87425 36.9467 5.32322 36.9 5.8593C36.8533 6.38868 37.1067 6.89126 37.5467 7.1794L39.1867 8.23817C35.8133 12.8619 25.4533 24.5485 6.06667 26.2907C5.63333 26.3309 5.29333 26.6794 5.26667 27.115C5.24 27.5505 5.52667 27.9459 5.94667 28.0397V28.0464ZM28.0267 20.8897C34.7533 16.7083 38.8867 11.85 41.1733 8.51291C41.3067 8.31188 41.36 8.07064 41.3133 7.8361C41.2667 7.60157 41.1267 7.39384 40.9267 7.26652L39.0533 6.05363L48.2067 2.12683L48.5533 12.1985L46.2667 10.7242C45.8667 10.4696 45.34 10.5701 45.0667 10.9588C38.6133 20.1191 26.38 28.0263 12.2533 27.1887C17.9067 26.0093 23.1933 23.9052 28.0267 20.8964V20.8897ZM62.7267 42.5742H50.1867V21.1913C50.1867 20.7021 49.7933 20.3 49.3067 20.3H42.0467C41.56 20.3 41.1667 20.6954 41.1667 21.1913V42.5742H38.2267V28.6428C38.2267 28.1536 37.8333 27.7516 37.34 27.7516H30.08C29.5933 27.7516 29.1933 28.1469 29.1933 28.6428V42.5742H26.2533V36.8918C26.2533 36.4026 25.86 36.0005 25.3667 36.0005H18.1067C17.62 36.0005 17.22 36.3959 17.22 36.8918V53.1954C17.22 53.6846 17.6133 54.0799 18.1067 54.0799H22.22V56.2175H1.76667V1.06136C1.76667 0.565485 1.37333 0.170124 0.886667 0.170124C0.4 0.170124 0 0.565485 0 1.06136V57.1155C0 57.6047 0.393333 58 0.886667 58H22.2267V63.2201C22.2267 63.7093 22.62 64.1047 23.1133 64.1047H62.7267C63.2133 64.1047 63.6067 63.7093 63.6067 63.2201V43.4655C63.6067 42.9763 63.2133 42.581 62.7267 42.581V42.5742ZM42.9267 22.0758H48.42V42.5676H42.9267V22.0758ZM30.96 29.5273H36.4533V42.5742H30.96V29.5273ZM18.9933 52.3108V37.783H24.4867V42.5742H23.1067C22.62 42.5742 22.22 42.9696 22.22 43.4588V52.3108H18.9933ZM61.84 62.3289H23.9933V44.35H61.84V62.3289ZM25.8333 58.898C26.7 58.898 27.4067 59.6083 27.4067 60.4794C27.4067 60.9686 27.8 61.3639 28.2933 61.3639H57.5467C58.0333 61.3639 58.4267 60.9686 58.4267 60.4794C58.4267 59.6083 59.1333 58.898 60 58.898C60.4867 58.898 60.88 58.5026 60.88 58.0134V48.6789C60.88 48.1897 60.4867 47.7944 60 47.7944C59.1333 47.7944 58.4267 47.084 58.4267 46.2129C58.4267 45.7237 58.0333 45.3284 57.5467 45.3284H28.2933C27.8067 45.3284 27.4067 45.7237 27.4067 46.2129C27.4067 47.084 26.7 47.7944 25.8333 47.7944C25.3467 47.7944 24.9467 48.1897 24.9467 48.6789V58.0134C24.9467 58.5026 25.34 58.898 25.8333 58.898ZM26.7133 49.4361C27.8467 49.1212 28.74 48.2232 29.0533 47.084H56.7733C57.0867 48.2232 57.98 49.1212 59.1133 49.4361V57.2361C57.98 57.5511 57.0867 58.449 56.7733 59.5882H29.0533C28.74 58.449 27.8467 57.5511 26.7133 57.2361V49.4361ZM51.88 53.3361C51.88 52.8469 52.2733 52.4516 52.76 52.4516H54.8733C55.36 52.4516 55.7533 52.8469 55.7533 53.3361C55.7533 53.8253 55.36 54.2206 54.8733 54.2206H52.76C52.2733 54.2206 51.88 53.8253 51.88 53.3361ZM30.0733 53.3361C30.0733 52.8469 30.4667 52.4516 30.96 52.4516H33.0733C33.56 52.4516 33.96 52.8469 33.96 53.3361C33.96 53.8253 33.5667 54.2206 33.0733 54.2206H30.96C30.4733 54.2206 30.0733 53.8253 30.0733 53.3361ZM44.36 55.1454C44.3733 55.0248 44.4 54.8371 43.9933 54.5959C43.62 54.3748 43.18 54.2743 42.6667 54.1469C42.46 54.1 42.2533 54.0464 42.0333 53.9861C41.38 53.8052 40.56 53.4902 40.0733 52.6995C39.54 51.8418 39.6667 50.7629 40.3867 50.0124C40.8267 49.55 41.42 49.2887 42.0333 49.1748V48.5985C42.0333 48.1093 42.4267 47.7139 42.9133 47.7139C43.4 47.7139 43.7933 48.1093 43.7933 48.5985V49.1882C44.7533 49.3825 45.5067 49.8851 45.88 50.582C46.1133 51.0109 45.9533 51.5536 45.52 51.7815C45.0867 52.0093 44.5533 51.8552 44.3267 51.4196C44.1933 51.1717 43.78 50.9639 43.2733 50.8969C42.6267 50.8098 41.9333 50.9572 41.66 51.2454C41.5467 51.366 41.44 51.5469 41.5733 51.7614C41.7067 51.9758 41.9867 52.1299 42.5067 52.2773C42.6933 52.331 42.8733 52.3712 43.0733 52.4181C43.6667 52.5588 44.2867 52.7062 44.8867 53.0614C45.7933 53.5974 46.2267 54.4083 46.1133 55.3598C46.02 56.1505 45.5267 56.8407 44.8 57.2026C44.5 57.35 44.16 57.4572 43.8 57.5176V58.0804C43.8 58.5696 43.4067 58.965 42.92 58.965C42.4333 58.965 42.04 58.5696 42.04 58.0804V57.484C41.0933 57.2897 40.2333 56.8005 39.8133 56.0232C39.58 55.5944 39.7333 55.0516 40.1667 54.817C40.5933 54.5825 41.1333 54.7366 41.3667 55.1722C41.6933 55.7686 43.2067 56.0232 44.0267 55.6078C44.22 55.5072 44.3533 55.333 44.38 55.1387L44.36 55.1454Z" fill="#00C857"/>
</svg>
