<svg width="67" height="67" viewBox="0 0 67 67" fill="none" xmlns="http://www.w3.org/2000/svg">
<path fill-rule="evenodd" clip-rule="evenodd" d="M34.6702 42.6885C36.9756 43.3862 37.7349 46.3137 36.0042 48.0374C33.9861 50.0552 30.5179 48.6188 30.5179 45.7665C30.5179 44.3369 31.4619 43.0989 32.7958 42.6885V38.7828H12.8207V41.5051C12.8207 42.025 12.4034 42.4422 11.8835 42.4422C11.3636 42.4422 10.9463 42.025 10.9463 41.5051V37.8525C10.9463 37.3327 11.3636 36.9154 11.8835 36.9154H32.7958V36.5803C32.7958 36.0604 33.2131 35.6432 33.733 35.6432C34.2529 35.6432 34.6702 36.0604 34.6702 36.5803V36.9154H56.595C57.1149 36.9154 57.5322 37.3327 57.5322 37.8525V41.382C57.5322 41.9019 57.1149 42.3191 56.595 42.3191C56.0751 42.3191 55.6578 41.9019 55.6578 41.382V38.7896H34.6702V42.6953V42.6885ZM34.6839 44.8089C33.8425 43.9676 32.3854 44.5626 32.3854 45.7597C32.3854 46.9567 33.8356 47.5518 34.6839 46.7104C35.2106 46.1838 35.2106 45.3356 34.6839 44.8089ZM12.3692 48.0237C14.7019 49.3918 14.955 52.6818 12.8207 54.3782V57.2784H13.9221C14.7225 53.8173 16.9047 51.6695 16.9047 50.0963C16.9047 47.326 14.6609 45.0825 11.8904 45.0825C9.11984 45.0825 6.87606 47.326 6.87606 50.0963C6.87606 51.6627 9.05828 53.8241 9.85865 57.2784H10.96V54.3782C8.81885 52.675 9.0788 49.3712 11.4252 48.0101C11.7262 47.8322 12.0956 47.8527 12.3761 48.0237H12.3692ZM12.1503 50.363C12.0751 50.2331 11.9861 50.11 11.8835 50.0074C11.1789 50.7666 11.1789 51.9636 11.8835 52.716C12.4787 52.0799 12.5813 51.1086 12.1503 50.363ZM2.51847 52.292C1.99857 52.292 1.58129 51.8747 1.58129 51.3549C1.58129 50.835 1.99857 50.4178 2.51847 50.4178H3.55143C4.07133 50.4178 4.48862 50.835 4.48862 51.3549C4.48862 51.8747 4.07133 52.292 3.55143 52.292H2.51847ZM21.6385 44.6516L19.6136 45.8212C19.169 46.0812 19.0116 46.6489 19.2716 47.0935C19.5315 47.5381 20.0993 47.6954 20.544 47.4355L22.5688 46.2658C23.0135 46.0059 23.1708 45.4382 22.9109 44.9936C22.6509 44.549 22.0831 44.3985 21.6385 44.6516ZM1.20504 46.2658C0.76039 46.0059 0.603051 45.4382 0.863002 44.9936C1.12295 44.549 1.69074 44.3917 2.13539 44.6516L4.16027 45.8212C4.60492 46.0812 4.76226 46.6489 4.50231 47.0935C4.24235 47.5381 3.67457 47.6954 3.22992 47.4355L1.20504 46.2658ZM22.3773 50.4246C22.8972 50.4246 23.3145 50.8419 23.3145 51.3617C23.3145 51.8815 22.8972 52.2988 22.3773 52.2988H21.3443C20.8244 52.2988 20.4072 51.8815 20.4072 51.3617C20.4072 50.8419 20.8244 50.4246 21.3443 50.4246H22.3773ZM16.3232 41.8061L15.8033 42.7021C15.5434 43.1468 15.7007 43.7145 16.1453 43.9744C16.59 44.2343 17.1578 44.077 17.4177 43.6324L17.9376 42.7363C18.1976 42.2917 18.0402 41.724 17.5956 41.4641C17.1509 41.2042 16.5832 41.3615 16.3232 41.8061ZM5.83626 42.7363C5.57631 42.2917 5.73365 41.724 6.1783 41.4641C6.62295 41.2042 7.19074 41.3615 7.45069 41.8061L7.97059 42.7021C8.23054 43.1468 8.0732 43.7145 7.62855 43.9744C7.1839 44.2343 6.61611 44.077 6.35616 43.6324L5.83626 42.7363ZM14.0384 59.1526H9.74235V61.9912H14.0384V59.1526ZM15.7417 57.6888C16.5147 54.4055 18.7722 52.3946 18.7722 50.1031C18.7722 46.3 15.687 43.222 11.8904 43.222C8.09372 43.222 5.00852 46.3069 5.00852 50.1031C5.00852 52.4356 7.24546 54.3166 8.039 57.6888C7.93638 57.8393 7.87482 58.0239 7.87482 58.2155V62.9214C7.87482 63.4413 8.29211 63.8585 8.81201 63.8585H9.113V64.6246C9.113 65.7874 10.057 66.7382 11.2268 66.7382H12.5676C13.1491 66.7382 13.6758 66.5057 14.0589 66.1158C14.7567 65.4181 14.6814 64.7272 14.6814 63.8517H14.9824C15.5023 63.8517 15.9196 63.4345 15.9196 62.9146V58.2086C15.9196 58.0103 15.858 57.8324 15.7554 57.6819L15.7417 57.6888ZM12.8002 63.8585V64.6246C12.8002 64.7614 12.6907 64.864 12.5608 64.864H11.22C11.0832 64.864 10.9805 64.7614 10.9805 64.6315V63.8654H12.807L12.8002 63.8585ZM56.0203 50.9445C56.0203 50.9445 55.9656 50.9581 55.9383 50.965C55.3226 51.1428 54.8369 51.5464 54.5359 52.0594C53.4892 53.8788 55.1652 56.0814 57.2038 55.5341C57.84 55.3631 58.3394 54.9527 58.6472 54.4261C59.6733 52.6408 58.0657 50.4314 56.0203 50.9445ZM55.5004 49.1523C54.3786 49.4396 53.4619 50.1989 52.9215 51.1291C51.7448 53.1196 52.4358 55.7394 54.4675 56.9159C56.4924 58.0855 59.085 57.3947 60.2548 55.3631C60.8021 54.4192 60.9799 53.2769 60.6789 52.1483C60.0906 49.9116 57.7579 48.5436 55.4936 49.1455L55.5004 49.1523ZM59.3655 45.3287L59.0166 43.9949C58.9414 43.5572 58.5583 43.222 58.0931 43.222H55.0968C54.6795 43.222 54.3033 43.5024 54.1938 43.9265L53.8244 45.3356L52.8667 45.7323L51.6833 45.0346C51.3207 44.7747 50.8077 44.8089 50.4793 45.1372L48.3586 47.2576C48.0645 47.5518 47.9961 48.0169 48.215 48.3931L48.9538 49.6517L48.557 50.6024L47.2231 50.9513C46.7853 51.0265 46.4501 51.4096 46.4501 51.8747V54.8707C46.4501 55.2879 46.7305 55.6641 47.1478 55.7736L48.557 56.1429L48.9538 57.0937L48.256 58.277C47.9961 58.6396 48.0303 59.1526 48.3586 59.4809L50.4793 61.6013C50.7734 61.8954 51.2386 61.9638 51.608 61.7449L52.8667 61.0062L53.8176 61.4029L54.1665 62.7368C54.2417 63.1745 54.6248 63.5097 55.09 63.5097H58.0863C58.5035 63.5097 58.8798 63.2293 58.9892 62.8052L59.3587 61.3961C59.5228 61.3414 59.687 61.2798 59.8443 61.2114C60.0017 61.143 60.159 61.0746 60.3164 60.9994L61.4998 61.6971C61.8624 61.957 62.3754 61.9228 62.7038 61.5945L64.8244 59.474C65.1186 59.1799 65.187 58.7148 64.9681 58.3386L64.2293 57.08L64.6261 56.1292L65.96 55.7804C66.3978 55.7052 66.733 55.3221 66.733 54.857V51.8542C66.733 51.4369 66.4526 51.0607 66.0353 50.9513L64.6261 50.5819L64.2293 49.6312L64.9271 48.4478C65.187 48.0853 65.1528 47.5723 64.8244 47.244L62.7038 45.1235C62.4096 44.8294 61.9445 44.761 61.5751 44.9799L60.3164 45.7186L59.3655 45.3287ZM59.1329 47.2371C58.8798 47.1345 58.6335 47.0456 58.3873 46.9772C58.0589 46.902 57.7853 46.6489 57.6963 46.3069L57.3817 45.0962H55.822L55.5073 46.3069C55.3294 46.9977 54.7137 46.9567 54.1049 47.2234L53.3182 47.6065C53.0378 47.7638 52.682 47.7775 52.381 47.5997L51.3002 46.9635L50.1988 48.0648L50.8077 49.1045C50.9924 49.3849 51.0129 49.7611 50.835 50.0689C50.5956 50.493 50.3288 51.1018 50.2057 51.5669C50.1304 51.8952 49.8773 52.1688 49.5353 52.2577L48.3244 52.5724V54.1319L49.5353 54.4466C49.8499 54.5287 50.1099 54.7681 50.1988 55.1032C50.3425 55.6368 50.5614 56.1566 50.835 56.6354C50.9924 56.9158 50.9992 57.2715 50.835 57.5657L50.1988 58.6464L51.3002 59.7476L52.34 59.1389C52.9693 58.749 53.3524 59.1868 54.057 59.474C54.3033 59.5766 54.5564 59.6656 54.8095 59.734C55.1379 59.8092 55.4115 60.0623 55.5004 60.4043L55.8151 61.615H57.3748L57.6895 60.4043C57.7716 60.0896 58.011 59.8297 58.3462 59.7408C58.6062 59.6724 58.8661 59.5835 59.1329 59.474L59.8785 59.1047C60.159 58.9474 60.5147 58.9405 60.8089 59.1047L61.8897 59.7408L62.9911 58.6395L62.3823 57.5999C61.9924 56.9706 62.4302 56.5875 62.7175 55.883C62.8201 55.6368 62.909 55.3837 62.9774 55.1306C63.0527 54.8023 63.3058 54.5287 63.6478 54.4397L64.8587 54.1251V52.5656L63.6478 52.2509C63.3331 52.1688 63.0732 51.9294 62.9843 51.5943C62.8406 51.0607 62.6285 50.5546 62.3481 50.0689C62.1907 49.7885 62.1771 49.4328 62.3481 49.1318L62.9843 48.0511L61.8829 46.9498L60.8431 47.5586C60.2069 47.9485 59.858 47.5381 59.1192 47.2303L59.1329 47.2371ZM45.6292 61.3482V56.1566C45.6292 55.7188 45.3282 55.3563 44.9246 55.2537L33.131 51.0265C32.9327 50.9581 32.7137 50.9513 32.5017 51.0265L20.6192 55.2879C19.7983 55.582 19.7983 56.7449 20.6192 57.039L24.8332 58.5506V63.7765C24.8332 65.1582 26.0577 66.2115 27.4327 66.2115H38.1932C39.5751 66.2115 40.7927 65.1513 40.7927 63.7765V58.5506L43.7548 57.4904V61.3551C42.6671 61.745 41.9146 62.7846 41.9146 63.968C41.9146 66.4304 44.9109 67.6753 46.6553 65.9311C48.1055 64.4878 47.5378 62.0322 45.6292 61.3551V61.3482ZM45.335 63.325C45.6907 63.6807 45.6907 64.2553 45.335 64.611C44.7672 65.1787 43.789 64.7751 43.789 63.968C43.789 63.1609 44.7672 62.7573 45.335 63.325ZM38.9252 59.221V63.7765C38.9252 64.1185 38.5558 64.3442 38.2001 64.3442H27.4395C27.0769 64.3442 26.7144 64.1185 26.7144 63.7765V59.221L32.5085 61.3003C32.7069 61.3687 32.9258 61.3756 33.1379 61.3003L38.932 59.221H38.9252ZM41.9351 56.1634L32.8164 59.433L23.6976 56.1634L32.8164 52.8939L41.9351 56.1634ZM44.7741 22.3118C45.2871 22.346 45.6771 22.7907 45.6429 23.3105C45.6086 23.8235 45.164 24.2134 44.6441 24.1792C42.414 24.0219 40.3207 24.5828 38.1111 25.684C37.646 25.9166 37.085 25.7251 36.8593 25.2668C36.6335 24.8085 36.8182 24.2408 37.2766 24.015C39.7803 22.7701 42.2156 22.1477 44.7741 22.3255V22.3118ZM44.7741 18.0778C45.2871 18.112 45.6771 18.5566 45.6429 19.0765C45.6086 19.5895 45.164 19.9794 44.6441 19.9452C42.414 19.7879 40.3207 20.3487 38.1111 21.45C37.646 21.6826 37.085 21.491 36.8593 21.0328C36.6267 20.5676 36.8182 20.0067 37.2766 19.781C39.7803 18.5361 42.2156 17.9068 44.7741 18.0915V18.0778ZM44.7741 13.8438C45.2871 13.878 45.6771 14.3226 45.6429 14.8425C45.6086 15.3555 45.164 15.7454 44.6441 15.7112C42.414 15.5538 40.3207 16.1147 38.1111 17.216C37.646 17.4485 37.085 17.257 36.8593 16.7987C36.6267 16.3336 36.8182 15.7727 37.2766 15.547C39.7803 14.3021 42.2156 13.6728 44.7741 13.8575V13.8438ZM44.7741 9.60297C45.2871 9.63717 45.6771 10.0818 45.6429 10.6016C45.6086 11.1146 45.164 11.5045 44.6441 11.4703C42.414 11.313 40.3207 11.8739 38.1111 12.9751C37.646 13.2077 37.085 13.0162 36.8593 12.5579C36.6335 12.0996 36.8182 11.5319 37.2766 11.3061C39.7803 10.0613 42.2156 9.4388 44.7741 9.61665V9.60297ZM44.7741 5.37579C45.2871 5.40999 45.6771 5.8546 45.6429 6.37444C45.6086 6.88745 45.164 7.27734 44.6441 7.24314C42.414 7.08581 40.3207 7.6467 38.1111 8.74795C37.646 8.98052 37.085 8.789 36.8593 8.33071C36.6335 7.87242 36.8182 7.3047 37.2766 7.07897C39.7803 5.83408 42.2156 5.20479 44.7741 5.38947V5.37579ZM22.8288 24.1792C22.3157 24.2134 21.8642 23.8235 21.83 23.3105C21.7958 22.7975 22.1858 22.346 22.6988 22.3118C25.2504 22.1272 27.6926 22.7565 30.1963 24.0082C30.6615 24.2408 30.8462 24.8016 30.6136 25.2599C30.381 25.7251 29.8201 25.9097 29.3618 25.6772C27.1522 24.5759 25.0589 24.015 22.8288 24.1724V24.1792ZM22.8288 19.9383C22.3157 19.9725 21.8642 19.5827 21.83 19.0696C21.7958 18.5566 22.1858 18.1052 22.6988 18.071C25.2504 17.8863 27.6926 18.5156 30.1963 19.7673C30.6615 19.9999 30.8462 20.5608 30.6136 21.0191C30.381 21.4842 29.8201 21.6689 29.3618 21.4363C27.1522 20.3351 25.0589 19.7742 22.8288 19.9315V19.9383ZM22.8288 15.7043C22.3157 15.7385 21.8642 15.3486 21.83 14.8356C21.7958 14.3226 22.1858 13.8712 22.6988 13.837C25.2504 13.6523 27.6926 14.2816 30.1963 15.5333C30.6615 15.7659 30.8462 16.3268 30.6136 16.7851C30.381 17.2502 29.8201 17.4349 29.3618 17.2023C27.1522 16.101 25.0589 15.5402 22.8288 15.6975V15.7043ZM22.8288 11.4703C22.3157 11.5045 21.8642 11.1146 21.83 10.6016C21.7958 10.0886 22.1858 9.63717 22.6988 9.60297C25.2504 9.41828 27.6926 10.0476 30.1963 11.2993C30.6615 11.5319 30.8462 12.0928 30.6136 12.551C30.381 13.0162 29.8201 13.2009 29.3618 12.9683C27.1522 11.867 25.0589 11.3061 22.8288 11.4635V11.4703ZM22.8288 7.2363C22.3157 7.2705 21.8642 6.88061 21.83 6.3676C21.7958 5.8546 22.1858 5.40315 22.6988 5.36895C25.2504 5.18427 27.6926 5.81356 30.1963 7.06529C30.6615 7.29786 30.8462 7.85874 30.6136 8.31703C30.381 8.78216 29.8201 8.96684 29.3618 8.73427C27.1522 7.63302 25.0589 7.07213 22.8288 7.22946V7.2363ZM34.6702 28.1464C38.9799 26.8058 43.3512 26.4296 47.7293 27.2436V2.62608C43.2965 2.47559 39.0483 3.61105 34.6634 5.72464V28.1464H34.6702ZM33.7399 4.0967C30.8804 2.70816 28.2672 1.81895 25.8387 1.30594C23.3008 0.772413 20.9749 0.656132 18.7927 0.806613C18.2865 0.813454 17.8761 1.2307 17.8761 1.74371V4.20614H13.5527C13.0328 4.20614 12.6155 4.62338 12.6155 5.14323V32.3941C12.6155 32.914 13.0328 33.3312 13.5527 33.3312H29.0334C29.1565 34.323 30.0048 35.0823 31.0241 35.0823H36.4625C37.4749 35.0823 38.33 34.323 38.4532 33.3312H53.9339C54.4538 33.3312 54.8711 32.914 54.8711 32.3941V5.14323C54.8711 4.62338 54.4538 4.20614 53.9339 4.20614H49.6105V1.73687C49.6105 1.22386 49.1932 0.806613 48.687 0.799773C46.4979 0.649291 44.1789 0.765573 41.641 1.2991C39.2125 1.81211 36.5993 2.70132 33.7399 4.08986V4.0967ZM49.6037 6.07348V28.3927C49.6037 28.9878 49.0496 29.4392 48.4544 29.3024C46.1217 28.7552 43.7616 28.5774 41.3674 28.7484C38.9799 28.9194 36.5583 29.4392 34.1024 30.3011C33.8425 30.4037 33.6304 30.4037 33.3705 30.3011C30.9146 29.4324 28.493 28.9194 26.1055 28.7484C23.7113 28.5774 21.3512 28.7621 19.0185 29.3024C18.4302 29.4392 17.8692 28.9878 17.8692 28.3927V6.07348H14.4762V31.457H29.9432C30.4631 31.457 30.8804 31.8743 30.8804 32.3941C30.8804 32.7498 30.8052 33.2149 31.0172 33.2149H36.4557C36.5309 33.2149 36.5925 33.1534 36.5925 33.0781V32.3941C36.5925 31.8743 37.0098 31.457 37.5297 31.457H52.9967V6.07348H49.6037ZM25.4557 3.13224C23.4171 2.70816 21.529 2.56452 19.7368 2.62608V27.2436C24.1217 26.4296 28.4861 26.8058 32.7958 28.1464V5.72464C30.1211 4.43186 27.6926 3.61105 25.4488 3.13224H25.4557Z" fill="#00C857"/>
</svg>
