<svg width="66" height="66" viewBox="0 0 66 66" fill="none" xmlns="http://www.w3.org/2000/svg">
<path d="M24.4184 65.9H18.3935C17.6294 65.9 17.0091 65.2797 17.0091 64.5154V59.8741H12.3687C11.6045 59.8741 10.9843 59.2538 10.9843 58.4895V52.4636C10.9843 51.6993 11.6045 51.079 12.3687 51.079H17.0091V48.3319C12.712 47.3903 8.80247 45.0641 5.90078 41.7078C2.71114 38.0081 0.950195 33.2671 0.950195 28.3711C0.950195 17.0946 10.1315 7.91178 21.406 7.91178C22.1259 7.91178 22.8457 7.94501 23.5546 8.02255C24.3187 8.10009 24.8614 8.78687 24.7839 9.54011C24.7064 10.3044 24.0197 10.8472 23.2666 10.7697C22.6464 10.7032 22.0262 10.67 21.406 10.67C11.6488 10.67 3.71898 18.6011 3.71898 28.36C3.71898 37.0998 9.97643 44.4327 18.615 45.8063C19.2906 45.9171 19.7779 46.4931 19.7779 47.1688V52.4525C19.7779 53.2168 19.1577 53.8371 18.3935 53.8371H13.7531V57.0938H18.3935C19.1577 57.0938 19.7779 57.7141 19.7779 58.4784V63.1197H23.034V58.4784C23.034 57.7141 23.6542 57.0938 24.4184 57.0938H29.0589V53.8371H24.4184C23.6542 53.8371 23.034 53.2168 23.034 52.4525V47.1688C23.034 46.4931 23.5324 45.906 24.1969 45.8063C32.8244 44.4327 39.093 37.0998 39.093 28.36C39.093 23.8405 37.3874 19.5427 34.3085 16.2528C33.788 15.6989 33.8101 14.8238 34.375 14.2922C34.9287 13.7715 35.8037 13.7937 36.3353 14.3586C39.9015 18.1691 41.8728 23.1316 41.8728 28.36C41.8728 33.256 40.1119 37.997 36.9222 41.6967C34.0206 45.0531 30.111 47.3792 25.8139 48.3208V51.0679H30.4544C31.2186 51.0679 31.8388 51.6882 31.8388 52.4525V58.4784C31.8388 59.2427 31.2186 59.863 30.4544 59.863H25.8139V64.5043C25.8028 65.2797 25.1826 65.9 24.4184 65.9Z" fill="#00C857"/>
<path d="M38.4728 48.8414C38.1184 48.8414 37.7529 48.8303 37.3985 48.8082C36.6343 48.7639 36.0473 48.1214 36.0916 47.3571C36.1359 46.5928 36.7783 46.0057 37.5425 46.05C37.8526 46.0611 38.1627 46.0721 38.4728 46.0721C48.23 46.0721 56.1598 38.141 56.1598 28.3821C56.1598 24.6492 54.9969 21.0602 52.7818 18.0251C52.3831 17.4713 52.4385 16.718 52.9258 16.2306L58.6185 10.537C59.1611 9.99426 60.0361 9.99426 60.5788 10.537L63.1814 13.1401V3.66928H53.7232L56.3259 6.27238C56.5806 6.52715 56.7357 6.88162 56.7357 7.24716C56.7357 7.6127 56.5917 7.96717 56.3259 8.22194L50.6222 13.9266C50.146 14.4029 49.3818 14.4694 48.828 14.0706C45.7934 11.8552 42.2051 10.6921 38.4728 10.6921C28.7156 10.6921 20.7858 18.6233 20.7858 28.3821C20.7858 32.9016 22.4913 37.1994 25.5702 40.4893C26.0908 41.0432 26.0686 41.9183 25.5038 42.45C24.95 42.9706 24.0751 42.9484 23.5435 42.3835C19.9773 38.573 18.0059 33.6105 18.0059 28.3821C18.0059 17.1057 27.1872 7.92286 38.4617 7.92286C42.3934 7.92286 46.17 9.04164 49.4704 11.1574L53.3799 7.24716L51.1095 4.97637C50.4228 4.28959 50.2235 3.27051 50.589 2.37327C50.9545 1.47603 51.8294 0.900024 52.7929 0.900024H64.5658C65.33 0.900024 65.9502 1.52034 65.9502 2.28465V14.0595C65.9502 15.0343 65.3743 15.8983 64.4772 16.2639C63.5801 16.6294 62.5612 16.43 61.8745 15.7432L59.6041 13.4614L55.6946 17.3716C57.81 20.6725 58.9286 24.4498 58.9286 28.3821C58.9286 39.6585 49.7473 48.8414 38.4728 48.8414Z" fill="#00C857"/>
<path d="M33.4557 25.7458H25.4263C24.6621 25.7458 24.0419 25.1255 24.0419 24.3612C24.0419 23.5969 24.6621 22.9765 25.4263 22.9765H33.4557C34.2199 22.9765 34.8401 23.5969 34.8401 24.3612C34.8401 25.1255 34.2199 25.7458 33.4557 25.7458Z" fill="#00C857"/>
<path d="M33.4557 33.7766H25.4263C24.6621 33.7766 24.0419 33.1563 24.0419 32.392C24.0419 31.6277 24.6621 31.0074 25.4263 31.0074H33.4557C34.2199 31.0074 34.8401 31.6277 34.8401 32.392C34.8401 33.1563 34.2199 33.7766 33.4557 33.7766Z" fill="#00C857"/>
</svg>
