<svg width="15" height="15" viewBox="0 0 15 15" fill="none" xmlns="http://www.w3.org/2000/svg">
<g clip-path="url(#clip0_332_10184)">
<path d="M7.06062 5.55947C5.77527 5.55947 4.72633 6.60844 4.72633 7.8938C4.72633 9.17916 5.77527 10.2281 7.06062 10.2281C8.34596 10.2281 9.3949 9.17916 9.3949 7.8938C9.3949 6.60844 8.34596 5.55947 7.06062 5.55947ZM14.0617 7.8938C14.0617 6.92715 14.0704 5.96925 14.0162 5.00435C13.9619 3.88359 13.7062 2.88892 12.8867 2.06937C12.0654 1.24806 11.0725 0.994137 9.95177 0.93985C8.98513 0.885564 8.02725 0.89432 7.06237 0.89432C6.09573 0.89432 5.13785 0.885564 4.17297 0.93985C3.05224 0.994137 2.05758 1.24981 1.23804 2.06937C0.416754 2.89067 0.162836 3.88359 0.108551 5.00435C0.0542651 5.971 0.0630209 6.9289 0.0630209 7.8938C0.0630209 8.8587 0.0542651 9.81834 0.108551 10.7832C0.162836 11.904 0.418505 12.8987 1.23804 13.7183C2.05933 14.5395 3.05224 14.7935 4.17297 14.8477C5.13961 14.9021 6.09748 14.8933 7.06237 14.8933C8.029 14.8933 8.98688 14.9021 9.95177 14.8477C11.0725 14.7935 12.0671 14.5377 12.8867 13.7183C13.7079 12.8969 13.9619 11.904 14.0162 10.7832C14.0722 9.81834 14.0617 8.86045 14.0617 7.8938ZM7.06062 11.4855C5.07307 11.4855 3.469 9.88139 3.469 7.8938C3.469 5.90621 5.07307 4.30212 7.06062 4.30212C9.04818 4.30212 10.6522 5.90621 10.6522 7.8938C10.6522 9.88139 9.04818 11.4855 7.06062 11.4855ZM10.7993 4.99384C10.3353 4.99384 9.96052 4.61908 9.96052 4.15502C9.96052 3.69096 10.3353 3.31621 10.7993 3.31621C11.2634 3.31621 11.6381 3.69096 11.6381 4.15502C11.6383 4.26522 11.6167 4.37435 11.5746 4.47619C11.5325 4.57802 11.4707 4.67054 11.3928 4.74847C11.3148 4.82639 11.2223 4.88816 11.1205 4.93027C11.0187 4.97237 10.9095 4.99398 10.7993 4.99384Z" fill="#2C2C2C"/>
</g>
<defs>
<clipPath id="clip0_332_10184">
<rect width="14" height="14" fill="white" transform="translate(0.0625 0.893799)"/>
</clipPath>
</defs>
</svg>
