<svg width="15" height="14" viewBox="0 0 15 14" fill="none" xmlns="http://www.w3.org/2000/svg">
<g clip-path="url(#clip0_332_10177)">
<path d="M7.06062 4.66567C5.77527 4.66567 4.72633 5.71464 4.72633 7C4.72633 8.28536 5.77527 9.33432 7.06062 9.33432C8.34596 9.33432 9.3949 8.28536 9.3949 7C9.3949 5.71464 8.34596 4.66567 7.06062 4.66567ZM14.0617 7C14.0617 6.03335 14.0704 5.07545 14.0162 4.11055C13.9619 2.98979 13.7062 1.99512 12.8867 1.17557C12.0654 0.354259 11.0725 0.100338 9.95177 0.0460516C8.98513 -0.00823506 8.02725 0.000520879 7.06237 0.000520879C6.09573 0.000520879 5.13785 -0.00823506 4.17297 0.0460516C3.05224 0.100338 2.05758 0.356011 1.23804 1.17557C0.416754 1.99687 0.162836 2.98979 0.108551 4.11055C0.0542651 5.0772 0.0630209 6.0351 0.0630209 7C0.0630209 7.9649 0.0542651 8.92455 0.108551 9.88945C0.162836 11.0102 0.418505 12.0049 1.23804 12.8245C2.05933 13.6457 3.05224 13.8997 4.17297 13.9539C5.13961 14.0083 6.09748 13.9995 7.06237 13.9995C8.029 13.9995 8.98688 14.0083 9.95177 13.9539C11.0725 13.8997 12.0671 13.6439 12.8867 12.8245C13.7079 12.0031 13.9619 11.0102 14.0162 9.88945C14.0722 8.92455 14.0617 7.96665 14.0617 7ZM7.06062 10.5917C5.07307 10.5917 3.469 8.98759 3.469 7C3.469 5.01241 5.07307 3.40832 7.06062 3.40832C9.04818 3.40832 10.6522 5.01241 10.6522 7C10.6522 8.98759 9.04818 10.5917 7.06062 10.5917ZM10.7993 4.10004C10.3353 4.10004 9.96052 3.72528 9.96052 3.26122C9.96052 2.79716 10.3353 2.42241 10.7993 2.42241C11.2634 2.42241 11.6381 2.79716 11.6381 3.26122C11.6383 3.37142 11.6167 3.48055 11.5746 3.58239C11.5325 3.68422 11.4707 3.77674 11.3928 3.85467C11.3148 3.93259 11.2223 3.99436 11.1205 4.03647C11.0187 4.07857 10.9095 4.10018 10.7993 4.10004Z" fill="white" fill-opacity="0.9"/>
</g>
<defs>
<clipPath id="clip0_332_10177">
<rect width="14" height="14" fill="white" transform="translate(0.0625)"/>
</clipPath>
</defs>
</svg>
