<svg width="14" height="14" viewBox="0 0 14 14" fill="none" xmlns="http://www.w3.org/2000/svg">
<g clip-path="url(#clip0_332_10182)">
<path fill-rule="evenodd" clip-rule="evenodd" d="M0 7.46026C0 10.7067 2.35832 13.4064 5.44271 13.9538V9.23751H3.80989V7.4238H5.44271V5.97251C5.44271 4.34001 6.49479 3.43343 7.98282 3.43343C8.45416 3.43343 8.96255 3.5058 9.43383 3.57817V5.24714H8.59948C7.80104 5.24714 7.61979 5.64601 7.61979 6.15426V7.4238H9.36143L9.07135 9.23751H7.61979V13.9538C10.7042 13.4064 13.0625 10.7073 13.0625 7.46026C13.0625 3.84862 10.1234 0.893799 6.53125 0.893799C2.93906 0.893799 0 3.84862 0 7.46026Z" fill="#2C2C2C"/>
</g>
<defs>
<clipPath id="clip0_332_10182">
<rect width="13.0625" height="13.06" fill="white" transform="translate(0 0.893799)"/>
</clipPath>
</defs>
</svg>
