<?xml version="1.0" encoding="UTF-8"?>
<svg id="Layer_1" xmlns="http://www.w3.org/2000/svg" version="1.1" viewBox="0 0 14 15">
  <!-- Generator: Adobe Illustrator 29.5.1, SVG Export Plug-In . SVG Version: 2.1.0 Build 141)  -->
  <defs>
    <style>
      .st0 {
        fill: #202020;
        fill-opacity: .9;
        fill-rule: evenodd;
      }
    </style>
  </defs>
  <path class="st0" d="M0,2C0,1.4.6.9,1.2.9h11.2c.6,0,1.1.5,1.1,1.1v11.2c0,.6-.5,1.1-1.1,1.1,0,0,0,0,0,0H1.2c-.6,0-1.1-.5-1.1-1.1,0,0,0,0,0,0V2h0ZM5.4,6h1.8v.9c.3-.5.9-1,1.9-1,1.9,0,2.4,1,2.4,3v3.5h-2v-3.1c0-1.1-.3-1.7-.9-1.7s-1.3.7-1.3,1.7v3.1h-2s0-6.4,0-6.4ZM2,12.3h2v-6.4h-2v6.4h0ZM4.3,3.8c0,.7-.5,1.3-1.2,1.3-.7,0-1.3-.5-1.3-1.2h0c0-.7.5-1.3,1.2-1.3.7,0,1.3.5,1.3,1.2h0Z"/>
</svg>