<svg width="15" height="15" viewBox="0 0 15 15" fill="none" xmlns="http://www.w3.org/2000/svg">
<g clip-path="url(#clip0_332_10186)">
<path d="M8.23135 7.77203L6.59365 7.00786C6.45073 6.94151 6.33333 7.01588 6.33333 7.17411V8.61349C6.33333 8.77172 6.45073 8.84609 6.59365 8.77974L8.23063 8.01557C8.37427 7.94849 8.37427 7.83911 8.23135 7.77203ZM7.0625 0.893799C3.19646 0.893799 0.0625 4.02776 0.0625 7.8938C0.0625 11.7598 3.19646 14.8938 7.0625 14.8938C10.9285 14.8938 14.0625 11.7598 14.0625 7.8938C14.0625 4.02776 10.9285 0.893799 7.0625 0.893799ZM7.0625 10.7375C3.47938 10.7375 3.41667 10.4145 3.41667 7.8938C3.41667 5.37307 3.47938 5.05005 7.0625 5.05005C10.6456 5.05005 10.7083 5.37307 10.7083 7.8938C10.7083 10.4145 10.6456 10.7375 7.0625 10.7375Z" fill="#2C2C2C"/>
</g>
<defs>
<clipPath id="clip0_332_10186">
<rect width="14" height="14" fill="white" transform="translate(0.0625 0.893799)"/>
</clipPath>
</defs>
</svg>
