<svg width="14" height="15" viewBox="0 0 14 15" fill="none" xmlns="http://www.w3.org/2000/svg">
<g clip-path="url(#clip0_332_10174)">
<path d="M11.7716 3.18524C11.6712 3.1333 11.5733 3.07634 11.4785 3.0146C11.2026 2.8323 10.9498 2.61749 10.7253 2.37482C10.1636 1.73224 9.95381 1.08036 9.87654 0.623956H9.87964C9.8151 0.245114 9.84178 0 9.84581 0H7.28751V9.89084C7.28751 10.0236 7.28751 10.1549 7.28193 10.2846C7.28193 10.3007 7.28038 10.3156 7.27944 10.333C7.27944 10.3401 7.27944 10.3476 7.27789 10.355V10.3606C7.25093 10.7155 7.13714 11.0582 6.94656 11.3589C6.75598 11.6595 6.49444 11.9087 6.18494 12.0845C5.86237 12.268 5.49754 12.3642 5.12642 12.3637C3.93447 12.3637 2.96844 11.3919 2.96844 10.1918C2.96844 8.99167 3.93447 8.0199 5.12642 8.0199C5.35205 8.01969 5.57629 8.05518 5.79083 8.12508L5.79392 5.52066C5.14268 5.43655 4.48106 5.4883 3.8508 5.67265C3.22055 5.85698 2.63535 6.16993 2.13211 6.59172C1.69117 6.97478 1.32046 7.43184 1.03668 7.94233C0.928683 8.12849 0.521229 8.87656 0.471888 10.0907C0.440855 10.7797 0.647841 11.4937 0.746524 11.7888V11.795C0.808588 11.9687 1.04909 12.5617 1.44102 13.0615C1.75707 13.4625 2.13047 13.8146 2.54919 14.1068V14.1006L2.5554 14.1068C3.79389 14.9482 5.16708 14.893 5.16708 14.893C5.40478 14.8834 6.20107 14.893 7.10535 14.4646C8.10832 13.9896 8.67931 13.2818 8.67931 13.2818C9.04409 12.8589 9.33415 12.377 9.53704 11.8567C9.76854 11.2483 9.84581 10.5185 9.84581 10.2269V4.97955C9.87685 4.99817 10.2902 5.27152 10.2902 5.27152C10.2902 5.27152 10.8858 5.65315 11.8148 5.90168C12.4814 6.07853 13.3795 6.11576 13.3795 6.11576V3.5765C13.0648 3.61063 12.4258 3.51135 11.7716 3.18524Z" fill="white" fill-opacity="0.9"/>
</g>
<defs>
<clipPath id="clip0_332_10174">
<rect width="12.9107" height="14.8938" fill="white" transform="translate(0.46875)"/>
</clipPath>
</defs>
</svg>
