<svg width="15" height="14" viewBox="0 0 15 14" fill="none" xmlns="http://www.w3.org/2000/svg">
<g clip-path="url(#clip0_332_10176)">
<path d="M8.23135 6.87823L6.59365 6.11406C6.45073 6.04771 6.33333 6.12208 6.33333 6.28031V7.71969C6.33333 7.87792 6.45073 7.95229 6.59365 7.88594L8.23063 7.12177C8.37427 7.05469 8.37427 6.94531 8.23135 6.87823ZM7.0625 0C3.19646 0 0.0625 3.13396 0.0625 7C0.0625 10.866 3.19646 14 7.0625 14C10.9285 14 14.0625 10.866 14.0625 7C14.0625 3.13396 10.9285 0 7.0625 0ZM7.0625 9.84375C3.47938 9.84375 3.41667 9.52073 3.41667 7C3.41667 4.47927 3.47938 4.15625 7.0625 4.15625C10.6456 4.15625 10.7083 4.47927 10.7083 7C10.7083 9.52073 10.6456 9.84375 7.0625 9.84375Z" fill="white" fill-opacity="0.9"/>
</g>
<defs>
<clipPath id="clip0_332_10176">
<rect width="14" height="14" fill="white" transform="translate(0.0625)"/>
</clipPath>
</defs>
</svg>
