<svg width="14" height="16" viewBox="0 0 14 16" fill="none" xmlns="http://www.w3.org/2000/svg">
<g clip-path="url(#clip0_332_10190)">
<path d="M11.7716 4.07904C11.6712 4.0271 11.5733 3.97014 11.4785 3.9084C11.2026 3.7261 10.9498 3.51129 10.7253 3.26862C10.1636 2.62604 9.95381 1.97416 9.87654 1.51776H9.87964C9.8151 1.13891 9.84178 0.893799 9.84581 0.893799H7.28751V10.7846C7.28751 10.9174 7.28751 11.0487 7.28193 11.1784C7.28193 11.1945 7.28038 11.2094 7.27944 11.2268C7.27944 11.2339 7.27944 11.2414 7.27789 11.2488V11.2544C7.25093 11.6093 7.13714 11.952 6.94656 12.2527C6.75598 12.5532 6.49444 12.8025 6.18494 12.9783C5.86237 13.1618 5.49754 13.258 5.12642 13.2575C3.93447 13.2575 2.96844 12.2857 2.96844 11.0856C2.96844 9.88547 3.93447 8.9137 5.12642 8.9137C5.35205 8.91349 5.57629 8.94898 5.79083 9.01888L5.79392 6.41446C5.14268 6.33035 4.48106 6.3821 3.8508 6.56645C3.22055 6.75078 2.63535 7.06373 2.13211 7.48552C1.69117 7.86858 1.32046 8.32564 1.03668 8.83613C0.928683 9.02229 0.521229 9.77036 0.471888 10.9844C0.440855 11.6735 0.647841 12.3875 0.746524 12.6826V12.6888C0.808588 12.8625 1.04909 13.4555 1.44102 13.9553C1.75707 14.3563 2.13047 14.7084 2.54919 15.0006V14.9944L2.5554 15.0006C3.79389 15.842 5.16708 15.7868 5.16708 15.7868C5.40478 15.7772 6.20107 15.7868 7.10535 15.3584C8.10832 14.8834 8.67931 14.1756 8.67931 14.1756C9.04409 13.7527 9.33415 13.2708 9.53704 12.7505C9.76854 12.1421 9.84581 11.4123 9.84581 11.1207V5.87334C9.87685 5.89196 10.2902 6.16531 10.2902 6.16531C10.2902 6.16531 10.8858 6.54695 11.8148 6.79548C12.4814 6.97233 13.3795 7.00956 13.3795 7.00956V4.4703C13.0648 4.50443 12.4258 4.40515 11.7716 4.07904Z" fill="#2C2C2C"/>
</g>
<defs>
<clipPath id="clip0_332_10190">
<rect width="12.9107" height="14.8938" fill="white" transform="translate(0.46875 0.893799)"/>
</clipPath>
</defs>
</svg>
